<svg width="32" height="32" viewBox="0 0 32 32" fill="none" xmlns="http://www.w3.org/2000/svg">
<path d="M16 7.50714C15.6142 7.48781 15.2285 7.54711 14.8663 7.68143C14.5042 7.81575 14.1731 8.02229 13.8932 8.2885C13.6133 8.55472 13.3904 8.87506 13.2382 9.23005C13.0859 9.58505 13.0074 9.96729 13.0074 10.3536C13.0074 10.7398 13.0859 11.1221 13.2382 11.4771C13.3904 11.8321 13.6133 12.1524 13.8932 12.4186C14.1731 12.6849 14.5042 12.8914 14.8663 13.0257C15.2285 13.16 15.6142 13.2193 16 13.2C16.3858 13.2193 16.7715 13.16 17.1337 13.0257C17.4958 12.8914 17.8269 12.6849 18.1068 12.4186C18.3867 12.1524 18.6096 11.8321 18.7618 11.4771C18.9141 11.1221 18.9926 10.7398 18.9926 10.3536C18.9926 9.96729 18.9141 9.58505 18.7618 9.23005C18.6096 8.87506 18.3867 8.55472 18.1068 8.2885C17.8269 8.02229 17.4958 7.81575 17.1337 7.68143C16.7715 7.54711 16.3858 7.48781 16 7.50714ZM27.4286 0H4.57143C2.05 0 0 2.05 0 4.57143V27.4286C0 29.95 2.05 32 4.57143 32H27.4286C29.95 32 32 29.95 32 27.4286V4.57143C32 2.05 29.95 0 27.4286 0ZM16 4.56429C17.5354 4.56429 19.0079 5.17423 20.0936 6.25993C21.1793 7.34563 21.7893 8.81816 21.7893 10.3536C21.7893 11.889 21.1793 13.3615 20.0936 14.4472C19.0079 15.5329 17.5354 16.1429 16 16.1429C14.4646 16.1429 12.9921 15.5329 11.9064 14.4472C10.8207 13.3615 10.2107 11.889 10.2107 10.3536C10.2107 8.81816 10.8207 7.34563 11.9064 6.25993C12.9921 5.17423 14.4646 4.56429 16 4.56429ZM20.2357 16.5857C21.4357 15.6429 22.3429 16.1929 22.6714 16.8429C23.2286 17.9857 22.5929 18.5357 21.1357 19.4857C19.9143 20.2643 18.2286 20.5714 17.1214 20.6857L18.05 21.6071L21.4571 25.0143C22.7 26.2929 20.6714 28.2857 19.4143 27.0571C18.5571 26.1857 17.3071 24.9357 16.0071 23.6357L12.6 27.0571C11.3357 28.2857 9.31429 26.2714 10.5714 25.0143L11.4643 24.1214C12.2071 23.3786 13.0786 22.5 13.9786 21.6071L14.9 20.6857C13.8 20.5714 12.0929 20.2786 10.8571 19.4857C9.40714 18.5357 8.76429 17.9929 9.32857 16.8429C9.65714 16.1929 10.5643 15.6429 11.7643 16.5857C11.7643 16.5857 13.3857 17.8714 16 17.8714C18.6143 17.8714 20.2357 16.5857 20.2357 16.5857Z" fill="currentColor"/>
</svg>
