<svg width="30" height="30" viewBox="0 0 30 30" fill="none" xmlns="http://www.w3.org/2000/svg">
<path d="M16.1719 22.6172C16.1719 22.849 16.1032 23.0755 15.9744 23.2682C15.8456 23.461 15.6626 23.6112 15.4485 23.6999C15.2343 23.7886 14.9987 23.8118 14.7714 23.7665C14.5441 23.7213 14.3353 23.6097 14.1714 23.4458C14.0075 23.2819 13.8959 23.0731 13.8506 22.8458C13.8054 22.6185 13.8286 22.3829 13.9173 22.1687C14.006 21.9546 14.1562 21.7716 14.3489 21.6428C14.5417 21.514 14.7682 21.4453 15 21.4453C15.3108 21.4453 15.6089 21.5688 15.8286 21.7885C16.0484 22.0083 16.1719 22.3064 16.1719 22.6172ZM15 7.38281C12.0923 7.38281 9.72657 9.48633 9.72657 12.0703V12.6562C9.72657 12.8117 9.7883 12.9607 9.89819 13.0706C10.0081 13.1805 10.1571 13.2422 10.3125 13.2422C10.4679 13.2422 10.6169 13.1805 10.7268 13.0706C10.8367 12.9607 10.8984 12.8117 10.8984 12.6562V12.0703C10.8984 10.1323 12.7383 8.55469 15 8.55469C17.2617 8.55469 19.1016 10.1323 19.1016 12.0703C19.1016 14.0083 17.2617 15.5859 15 15.5859C14.8446 15.5859 14.6956 15.6477 14.5857 15.7576C14.4758 15.8674 14.4141 16.0165 14.4141 16.1719V17.3438C14.4141 17.4992 14.4758 17.6482 14.5857 17.7581C14.6956 17.868 14.8446 17.9297 15 17.9297C15.1554 17.9297 15.3044 17.868 15.4143 17.7581C15.5242 17.6482 15.5859 17.4992 15.5859 17.3438V16.7285C18.2227 16.4692 20.2734 14.4785 20.2734 12.0703C20.2734 9.48633 17.9077 7.38281 15 7.38281ZM29.6484 15C29.6484 17.8972 28.7893 20.7293 27.1797 23.1382C25.5701 25.5472 23.2824 27.4247 20.6057 28.5334C17.9291 29.6421 14.9838 29.9322 12.1422 29.367C9.30072 28.8018 6.69062 27.4066 4.642 25.358C2.59338 23.3094 1.19825 20.6993 0.633035 17.8578C0.0678216 15.0162 0.357909 12.0709 1.46661 9.39429C2.57532 6.71763 4.45285 4.42986 6.86177 2.82027C9.27069 1.21068 12.1028 0.351563 15 0.351562C18.8837 0.355828 22.6071 1.90051 25.3533 4.6467C28.0995 7.39289 29.6442 11.1163 29.6484 15ZM28.4766 15C28.4766 12.3346 27.6862 9.72903 26.2054 7.51282C24.7245 5.29661 22.6198 3.56929 20.1573 2.54928C17.6947 1.52927 14.9851 1.26239 12.3709 1.78239C9.75666 2.30238 7.35537 3.5859 5.47064 5.47063C3.58591 7.35536 2.30239 9.75666 1.78239 12.3709C1.2624 14.9851 1.52928 17.6947 2.54929 20.1573C3.5693 22.6198 5.29662 24.7245 7.51283 26.2054C9.72904 27.6862 12.3346 28.4766 15 28.4766C18.573 28.4727 21.9986 27.0516 24.5251 24.5251C27.0516 21.9986 28.4727 18.573 28.4766 15Z" fill="currentColor"/>
</svg>
