<svg width="32" height="32" viewBox="0 0 32 32" fill="none" xmlns="http://www.w3.org/2000/svg">
<path d="M20.9168 0H11.1008C2.1312 0 0 2.1328 0 11.0832V20.9008C0 29.8672 2.1168 32 11.0832 32H20.9008C29.8672 32 32 29.8832 32 20.9168V11.1008C32 2.1312 29.8832 0 20.9168 0ZM25.8336 22.832H23.4992C22.616 22.832 22.3504 22.1168 20.7664 20.5328C19.384 19.2 18.8 19.0336 18.4496 19.0336C17.9664 19.0336 17.8336 19.1664 17.8336 19.8336V21.9328C17.8336 22.5008 17.6496 22.8336 16.1664 22.8336C14.727 22.7369 13.3311 22.2995 12.0938 21.5576C10.8564 20.8158 9.81307 19.7905 9.0496 18.5664C7.23707 16.3104 5.97591 13.6626 5.3664 10.8336C5.3664 10.4832 5.4992 10.1664 6.1664 10.1664H8.5008C9.1008 10.1664 9.3168 10.4336 9.5504 11.0496C10.6832 14.384 12.616 17.2832 13.4 17.2832C13.7008 17.2832 13.832 17.1504 13.832 16.4V12.9664C13.7328 11.4 12.9008 11.2672 12.9008 10.7008C12.9115 10.5514 12.9799 10.4121 13.0917 10.3123C13.2034 10.2125 13.3496 10.1602 13.4992 10.1664H17.1664C17.6672 10.1664 17.8336 10.416 17.8336 11.016V15.6496C17.8336 16.1504 18.0496 16.3168 18.2 16.3168C18.5008 16.3168 18.7328 16.1504 19.2832 15.6C20.4654 14.1583 21.4313 12.5521 22.1504 10.832C22.2239 10.6254 22.363 10.4485 22.5464 10.3283C22.7299 10.2081 22.9476 10.1513 23.1664 10.1664H25.5008C26.2 10.1664 26.3488 10.5168 26.2 11.016C25.3512 12.9175 24.3009 14.7225 23.0672 16.4C22.816 16.784 22.7152 16.984 23.0672 17.4336C23.2992 17.784 24.1168 18.4672 24.6672 19.1168C25.467 19.9146 26.1313 20.8377 26.6336 21.8496C26.8336 22.4992 26.4992 22.832 25.8336 22.832Z" fill="currentColor"/>
</svg>
