<svg width="418" height="563" viewBox="0 0 418 563" fill="none" xmlns="http://www.w3.org/2000/svg">
<path d="M303.183 322.456L302.773 322.531V322.948V324.893C302.773 330.495 300.548 335.866 296.588 339.827C292.627 343.788 287.255 346.013 281.654 346.013C276.053 346.013 270.681 343.788 266.72 339.827C262.759 335.866 260.534 330.495 260.534 324.893V303.274C260.534 297.673 262.759 292.301 266.72 288.34C270.681 284.379 276.053 282.154 281.654 282.154C317.594 282.154 347.012 257.69 347.012 227.606C347.012 197.521 317.594 173.057 281.654 173.057C245.713 173.057 216.295 197.521 216.295 227.606V238.415C216.295 244.017 214.07 249.388 210.11 253.349C206.149 257.31 200.777 259.535 195.176 259.535C189.575 259.535 184.203 257.31 180.242 253.349C176.281 249.388 174.056 244.017 174.056 238.415V227.606C174.056 174.286 222.263 130.818 281.654 130.818C341.044 130.818 389.251 174.286 389.251 227.606C389.251 274.292 352.281 313.438 303.183 322.456ZM313.583 422.181C313.583 428.496 311.71 434.669 308.202 439.92C304.694 445.171 299.707 449.263 293.873 451.68C288.038 454.096 281.618 454.729 275.425 453.497C269.231 452.265 263.542 449.224 259.076 444.758C254.611 440.293 251.57 434.604 250.338 428.41C249.106 422.216 249.738 415.797 252.155 409.962C254.572 404.128 258.664 399.141 263.915 395.633C269.166 392.124 275.339 390.252 281.654 390.252C290.122 390.252 298.243 393.616 304.231 399.604C310.219 405.592 313.583 413.713 313.583 422.181ZM562.207 281.654C562.207 337.143 545.753 391.385 514.926 437.522C484.098 483.658 440.281 519.618 389.017 540.852C337.753 562.086 281.343 567.642 226.921 556.817C172.498 545.992 122.509 519.272 83.2725 480.036C44.0363 440.8 17.3162 390.81 6.49098 336.388C-4.33424 281.966 1.22166 225.556 22.4561 174.291C43.6905 123.027 79.6498 79.2101 125.787 48.3825C171.923 17.5549 226.165 1.10076 281.654 1.10071C356.037 1.17933 427.351 30.7628 479.948 83.3599C532.545 135.957 562.129 207.271 562.207 281.654ZM519.968 281.655C519.968 234.52 505.991 188.444 479.805 149.254C453.619 110.063 416.399 79.5178 372.853 61.4803C329.307 43.4429 281.389 38.7234 235.161 47.9189C188.932 57.1143 146.469 79.8116 113.14 113.14C79.8111 146.469 57.1138 188.933 47.9184 235.161C38.723 281.39 43.4424 329.307 61.4799 372.853C79.5173 416.4 110.063 453.619 149.253 479.806C188.444 505.992 234.52 519.969 281.654 519.969C344.837 519.897 405.412 494.766 450.089 450.089C494.766 405.412 519.897 344.838 519.968 281.655Z" stroke="#44B859"/>
</svg>
