<svg width="46" height="46" viewBox="0 0 46 46" fill="none" xmlns="http://www.w3.org/2000/svg">
<g id="Frame" clip-path="url(#clip0_602_1562)">
<g id="Group">
<path id="Vector" d="M43.7821 23.5957C43.687 23.4104 43.6375 23.2065 43.6375 22.9999C43.6375 22.7933 43.687 22.5895 43.7821 22.4041L45.5701 18.8944C46.5656 16.9402 45.7769 14.611 43.7745 13.5916L40.1781 11.7606C39.9876 11.6643 39.8226 11.5273 39.6961 11.3602C39.5695 11.1931 39.4847 11.0003 39.4481 10.7967L38.7447 6.94876C38.3531 4.80636 36.2878 3.36671 34.0437 3.67137L30.0126 4.21851C29.7995 4.24807 29.5821 4.23024 29.3774 4.16638C29.1726 4.10253 28.9858 3.99436 28.8316 3.85025L25.9055 1.13411C24.2762 -0.378316 21.7238 -0.378405 20.0946 1.13411L17.1684 3.85052C17.0141 3.9946 16.8274 4.10274 16.6226 4.16659C16.4179 4.23044 16.2005 4.2483 15.9874 4.21878L11.9563 3.67164C9.71149 3.3668 7.64691 4.80663 7.25525 6.94903L6.55189 10.7967C6.51533 11.0003 6.4305 11.1932 6.30396 11.3603C6.17741 11.5275 6.01252 11.6645 5.82203 11.7608L2.22563 13.5918C0.223219 14.6111 -0.565536 16.9405 0.429958 18.8947L2.21786 22.4043C2.31303 22.5896 2.36252 22.7935 2.36252 23.0001C2.36252 23.2067 2.31303 23.4106 2.21786 23.5959L0.429864 27.1055C-0.565629 29.0597 0.223125 31.3889 2.22553 32.4084L5.82193 34.2394C6.01245 34.3356 6.17735 34.4726 6.30392 34.6397C6.43049 34.8069 6.51533 34.9997 6.55189 35.2033L7.25525 39.0512C7.6118 41.0015 9.35466 42.3693 11.3577 42.3691C11.555 42.3691 11.7552 42.3558 11.9564 42.3285L15.9875 41.7813C16.2006 41.7518 16.418 41.7696 16.6227 41.8334C16.8275 41.8973 17.0143 42.0055 17.1685 42.1496L20.0946 44.8657C20.9094 45.622 21.9545 46.0001 23 46C24.0452 45.9999 25.091 45.6219 25.9054 44.8657L28.8316 42.1496C29.1473 41.8566 29.5776 41.7228 30.0126 41.7813L34.0437 42.3285C36.2888 42.6332 38.3531 41.1935 38.7447 39.0511L39.4482 35.2034C39.4848 34.9998 39.5696 34.807 39.6961 34.6398C39.8227 34.4727 39.9876 34.3357 40.1781 34.2394L43.7745 32.4084C45.7769 31.389 46.5656 29.0596 45.5701 27.1054L43.7821 23.5957ZM17.47 11.0611C20.2651 11.0611 22.5391 13.2431 22.5391 15.9251C22.5391 18.6071 20.2651 20.7891 17.47 20.7891C14.6749 20.7891 12.4009 18.6071 12.4009 15.9251C12.4009 13.2431 14.6749 11.0611 17.47 11.0611ZM14.8536 32.6926C14.5836 32.9516 14.2298 33.0812 13.876 33.0812C13.5223 33.0812 13.1684 32.9517 12.8985 32.6926C12.3587 32.1746 12.3587 31.3346 12.8985 30.8166L31.1463 13.3071C31.6861 12.7891 32.5616 12.7891 33.1015 13.3071C33.6413 13.8252 33.6413 14.6651 33.1015 15.1832L14.8536 32.6926ZM28.5298 34.9389C25.7347 34.9389 23.4607 32.7569 23.4607 30.0749C23.4607 27.3929 25.7347 25.2108 28.5298 25.2108C31.3249 25.2108 33.5989 27.3929 33.5989 30.0749C33.5989 32.7569 31.3249 34.9389 28.5298 34.9389Z" fill="#44B859"/>
<path id="Vector_2" d="M28.5299 27.864C27.2594 27.864 26.2257 28.8558 26.2257 30.0748C26.2257 31.2939 27.2593 32.2857 28.5299 32.2857C29.8004 32.2857 30.834 31.2939 30.834 30.0748C30.834 28.8558 29.8004 27.864 28.5299 27.864ZM17.4701 13.7141C16.1996 13.7141 15.166 14.7059 15.166 15.925C15.166 17.1441 16.1996 18.1359 17.4701 18.1359C18.7406 18.1359 19.7743 17.1441 19.7743 15.925C19.7742 14.706 18.7406 13.7141 17.4701 13.7141Z" fill="#44B859"/>
</g>
</g>
<defs>
<clipPath id="clip0_602_1562">
<rect width="46" height="46" fill="white"/>
</clipPath>
</defs>
</svg>
