<svg width="48" height="48" viewBox="0 0 48 48" fill="none" xmlns="http://www.w3.org/2000/svg">
<g id="Frame">
<g id="Group">
<path id="Vector" d="M5.58394 17.283C4.45886 17.2889 3.38157 17.7386 2.58615 18.5343C1.79073 19.33 1.34145 20.4074 1.33594 21.5325V43.749C1.34106 44.8743 1.79017 45.9522 2.58563 46.7482C3.38109 47.5442 4.4586 47.9941 5.58394 48H42.4194C43.5453 47.9949 44.6236 47.5454 45.4197 46.7492C46.2158 45.9531 46.6653 44.8749 46.6704 43.749V27.375C46.6649 26.2494 46.2152 25.1715 45.4192 24.3757C44.6231 23.5799 43.545 23.1306 42.4194 23.1255H23.4054L19.6674 17.8785C19.5363 17.6945 19.363 17.5446 19.1621 17.4413C18.9611 17.3379 18.7384 17.2842 18.5124 17.2845L5.58394 17.283ZM13.2204 0C12.8448 -2.10344e-07 12.4844 0.149137 12.2186 0.414646C11.9529 0.680154 11.8033 1.04032 11.8029 1.416V12.5895L11.7594 15.423C14.4189 15.423 17.9529 15.5475 20.6244 15.5475L24.3624 20.7975C24.4941 20.9808 24.6675 21.1302 24.8684 21.2332C25.0692 21.3363 25.2917 21.39 25.5174 21.39C31.1859 21.3945 35.9769 21.2655 41.6274 21.2655L41.6709 18.432V1.416C41.6709 1.04071 41.522 0.680775 41.2567 0.415267C40.9915 0.149758 40.6317 0.00039755 40.2564 0L13.2204 0ZM16.4109 3.981H34.5984C34.7872 3.97231 34.9757 4.00144 35.153 4.06666C35.3303 4.13189 35.4928 4.2319 35.6309 4.36081C35.769 4.48973 35.8799 4.64495 35.9572 4.81736C36.0345 4.98976 36.0765 5.17587 36.0808 5.36474C36.0851 5.55361 36.0516 5.74144 35.9822 5.91718C35.9129 6.09292 35.8091 6.25303 35.6771 6.3881C35.545 6.52317 35.3872 6.63047 35.213 6.70369C35.0389 6.77692 34.8519 6.81459 34.6629 6.8145H16.4109C16.225 6.81868 16.0402 6.78617 15.8668 6.71883C15.6935 6.65149 15.5352 6.55064 15.4009 6.42205C15.2666 6.29346 15.159 6.13965 15.0841 5.96943C15.0093 5.7992 14.9688 5.6159 14.9649 5.43C14.9604 5.24398 14.9925 5.05889 15.0596 4.88533C15.1266 4.71176 15.2273 4.55313 15.3558 4.41853C15.4842 4.28393 15.638 4.176 15.8083 4.10092C15.9785 4.02584 16.1619 3.98509 16.3479 3.981H16.4109ZM16.2654 8.592C16.3144 8.5905 16.3635 8.5905 16.4124 8.592H28.9314C29.2961 8.60878 29.6403 8.76545 29.8924 9.02945C30.1445 9.29344 30.2852 9.64445 30.2852 10.0095C30.2852 10.3745 30.1445 10.7256 29.8924 10.9896C29.6403 11.2535 29.2961 11.4102 28.9314 11.427H16.4124C16.222 11.4444 16.03 11.4232 15.848 11.3646C15.6659 11.306 15.4976 11.2112 15.353 11.086C15.2085 10.9607 15.0908 10.8076 15.0068 10.6358C14.9229 10.4639 14.8745 10.2769 14.8646 10.0859C14.8547 9.89496 14.8835 9.70395 14.9492 9.52435C15.0149 9.34475 15.1162 9.18027 15.247 9.04077C15.3778 8.90126 15.5354 8.78961 15.7104 8.71249C15.8854 8.63538 16.0742 8.5944 16.2654 8.592Z" fill="#44B859"/>
</g>
</g>
</svg>
