<svg width="49" height="48" viewBox="0 0 49 48" fill="none" xmlns="http://www.w3.org/2000/svg">
<g id="Frame" clip-path="url(#clip0_791_2808)">
<g id="Group">
<path id="Vector" d="M32.5 4H32.158C31.7428 2.83098 30.9762 1.81902 29.9632 1.10289C28.9503 0.386752 27.7405 0.0015135 26.5 0L22.5 0C21.2595 0.0015135 20.0497 0.386752 19.0368 1.10289C18.0238 1.81902 17.2572 2.83098 16.842 4H16.5C13.8488 4.00318 11.3071 5.05776 9.43244 6.93244C7.55776 8.80712 6.50318 11.3488 6.5 14V38C6.50318 40.6512 7.55776 43.1929 9.43244 45.0676C11.3071 46.9422 13.8488 47.9968 16.5 48H32.5C35.1512 47.9968 37.6929 46.9422 39.5676 45.0676C41.4422 43.1929 42.4968 40.6512 42.5 38V14C42.4968 11.3488 41.4422 8.80712 39.5676 6.93244C37.6929 5.05776 35.1512 4.00318 32.5 4ZM18.5 14H22.5V10C22.5 9.46957 22.7107 8.96086 23.0858 8.58579C23.4609 8.21071 23.9696 8 24.5 8C25.0304 8 25.5391 8.21071 25.9142 8.58579C26.2893 8.96086 26.5 9.46957 26.5 10V14H30.5C31.0304 14 31.5391 14.2107 31.9142 14.5858C32.2893 14.9609 32.5 15.4696 32.5 16C32.5 16.5304 32.2893 17.0391 31.9142 17.4142C31.5391 17.7893 31.0304 18 30.5 18H26.5V22C26.5 22.5304 26.2893 23.0391 25.9142 23.4142C25.5391 23.7893 25.0304 24 24.5 24C23.9696 24 23.4609 23.7893 23.0858 23.4142C22.7107 23.0391 22.5 22.5304 22.5 22V18H18.5C17.9696 18 17.4609 17.7893 17.0858 17.4142C16.7107 17.0391 16.5 16.5304 16.5 16C16.5 15.4696 16.7107 14.9609 17.0858 14.5858C17.4609 14.2107 17.9696 14 18.5 14ZM24.5 40H16.5C15.9696 40 15.4609 39.7893 15.0858 39.4142C14.7107 39.0391 14.5 38.5304 14.5 38C14.5 37.4696 14.7107 36.9609 15.0858 36.5858C15.4609 36.2107 15.9696 36 16.5 36H24.5C25.0304 36 25.5391 36.2107 25.9142 36.5858C26.2893 36.9609 26.5 37.4696 26.5 38C26.5 38.5304 26.2893 39.0391 25.9142 39.4142C25.5391 39.7893 25.0304 40 24.5 40ZM32.5 32H16.5C15.9696 32 15.4609 31.7893 15.0858 31.4142C14.7107 31.0391 14.5 30.5304 14.5 30C14.5 29.4696 14.7107 28.9609 15.0858 28.5858C15.4609 28.2107 15.9696 28 16.5 28H32.5C33.0304 28 33.5391 28.2107 33.9142 28.5858C34.2893 28.9609 34.5 29.4696 34.5 30C34.5 30.5304 34.2893 31.0391 33.9142 31.4142C33.5391 31.7893 33.0304 32 32.5 32Z" fill="#44B859"/>
</g>
</g>
<defs>
<clipPath id="clip0_791_2808">
<rect width="48" height="48" fill="white" transform="translate(0.5)"/>
</clipPath>
</defs>
</svg>
