<svg width="49" height="48" viewBox="0 0 49 48" fill="none" xmlns="http://www.w3.org/2000/svg">
<g id="Frame" clip-path="url(#clip0_211_308)">
<g id="Group">
<path id="Vector" d="M48.5001 16.96V40C48.5001 40.5304 48.2894 41.0391 47.9143 41.4142C47.5392 41.7893 47.0305 42 46.5001 42C45.9696 42 45.4609 41.7893 45.0859 41.4142C44.7108 41.0391 44.5001 40.5304 44.5001 40V23.504L29.7001 30.576C28.1396 31.4971 26.3581 31.9768 24.5461 31.964C22.6458 31.9669 20.78 31.4563 19.1461 30.486L4.38607 23.46C3.22583 22.8361 2.25369 21.9131 1.57051 20.7867C0.887331 19.6604 0.518011 18.3717 0.500869 17.0545C0.483728 15.7372 0.81939 14.4394 1.47303 13.2956C2.12666 12.1519 3.07446 11.2039 4.21807 10.55C4.27207 10.518 4.33007 10.488 4.38607 10.46L19.3001 3.34399C20.9102 2.41932 22.7376 1.94025 24.5943 1.95607C26.451 1.97189 28.2699 2.48202 29.8641 3.43399L44.6141 10.46C45.7779 11.104 46.7506 12.0446 47.4331 13.1862C48.1157 14.3279 48.4838 15.6299 48.5001 16.96ZM24.5441 35.96C21.9852 35.9657 19.4703 35.295 17.2541 34.016L8.50007 29.838V35.238C8.50126 37.373 9.1848 39.4518 10.4509 41.1709C11.717 42.89 13.4995 44.1595 15.5381 44.794C18.4507 45.6303 21.4699 46.0366 24.5001 46C27.5306 46.034 30.5498 45.625 33.4621 44.786C35.5007 44.1515 37.2831 42.882 38.5492 41.1629C39.8153 39.4438 40.4989 37.365 40.5001 35.23V29.848L31.5821 34.108C29.4414 35.3379 27.0129 35.9783 24.5441 35.964V35.96Z" fill="#44B859"/>
</g>
</g>
<defs>
<clipPath id="clip0_211_308">
<rect width="48" height="48" fill="white" transform="translate(0.5)"/>
</clipPath>
</defs>
</svg>
