<svg width="47" height="48" viewBox="0 0 47 48" fill="none" xmlns="http://www.w3.org/2000/svg">
<g id="Frame" clip-path="url(#clip0_791_2800)">
<g id="Group">
<path id="Vector" d="M18 24C11.382 24 6 18.618 6 12C6 5.382 11.382 0 18 0C24.618 0 30 5.382 30 12C30 18.618 24.618 24 18 24ZM45.392 38.268L43.444 37.144C43.776 36.15 44 35.106 44 34C44 32.894 43.778 31.85 43.444 30.856L45.392 29.732C45.8476 29.4649 46.1791 29.0284 46.3141 28.5178C46.4491 28.0072 46.3766 27.464 46.1125 27.0066C45.8485 26.5492 45.4142 26.2149 44.9045 26.0765C44.3948 25.9381 43.8511 26.007 43.392 26.268L41.446 27.392C40.0249 25.7662 38.1133 24.6472 36 24.204V22.002C36 21.4716 35.7893 20.9629 35.4142 20.5878C35.0391 20.2127 34.5304 20.002 34 20.002C33.4696 20.002 32.9609 20.2127 32.5858 20.5878C32.2107 20.9629 32 21.4716 32 22.002V24.204C29.8873 24.6487 27.9761 25.7675 26.554 27.392L24.608 26.268C24.1489 26.007 23.6052 25.9381 23.0955 26.0765C22.5858 26.2149 22.1515 26.5492 21.8875 27.0066C21.6234 27.464 21.5509 28.0072 21.6859 28.5178C21.8209 29.0284 22.1524 29.4649 22.608 29.732L24.556 30.856C24.224 31.85 24 32.894 24 34C24 35.106 24.222 36.15 24.556 37.144L22.608 38.268C22.1524 38.5351 21.8209 38.9716 21.6859 39.4822C21.5509 39.9928 21.6234 40.536 21.8875 40.9934C22.1515 41.4508 22.5858 41.7851 23.0955 41.9235C23.6052 42.0619 24.1489 41.993 24.608 41.732L26.554 40.608C27.9751 42.2338 29.8867 43.3528 32 43.796V45.998C32 46.5284 32.2107 47.0371 32.5858 47.4122C32.9609 47.7873 33.4696 47.998 34 47.998C34.5304 47.998 35.0391 47.7873 35.4142 47.4122C35.7893 47.0371 36 46.5284 36 45.998V43.796C38.1127 43.3513 40.0239 42.2325 41.446 40.608L43.392 41.732C43.6192 41.8641 43.8704 41.95 44.1309 41.9847C44.3915 42.0194 44.6563 42.0022 44.9102 41.9342C45.1641 41.8662 45.4021 41.7486 45.6104 41.5883C45.8187 41.428 45.9932 41.228 46.124 41C46.3892 40.5406 46.4611 39.9947 46.3238 39.4824C46.1865 38.9701 45.8513 38.5332 45.392 38.268ZM34 37C32.346 37 31 35.654 31 34C31 32.346 32.346 31 34 31C35.654 31 37 32.346 37 34C37 35.654 35.654 37 34 37ZM16 34C16 31.912 16.374 29.914 17.028 28.05C7.556 28.558 0 36.404 0 46C0 46.5304 0.210714 47.0391 0.585786 47.4142C0.960859 47.7893 1.46957 48 2 48H22.698C20.6058 46.3158 18.9179 44.1837 17.7587 41.7608C16.5995 39.3379 15.9986 36.6859 16 34Z" fill="#44B859"/>
</g>
</g>
<defs>
<clipPath id="clip0_791_2800">
<rect width="47" height="48" fill="white"/>
</clipPath>
</defs>
</svg>
