<svg width="48" height="48" viewBox="0 0 48 48" fill="none" xmlns="http://www.w3.org/2000/svg">
<path d="M47.2279 25.7475C47.3021 27.5197 46.6703 29.2489 45.4711 30.5558C44.2719 31.8627 42.6033 32.6406 40.8313 32.7188C40.7277 32.7236 40.6243 32.726 40.521 32.726C40.0502 32.7256 39.5808 32.6747 39.1209 32.574C37.7562 34.681 35.9668 36.48 33.8671 37.8559C31.7674 39.2317 29.4037 40.1542 26.9271 40.5643C26.6342 41.4249 26.0498 42.1561 25.2749 42.6315C24.5001 43.1068 23.5835 43.2966 22.6836 43.1679C21.7837 43.0391 20.957 42.6 20.3465 41.9265C19.7361 41.2529 19.3801 40.3872 19.3402 39.4791C19.3002 38.5709 19.5789 37.6773 20.1279 36.9528C20.6769 36.2282 21.4619 35.7183 22.347 35.5111C23.2321 35.3039 24.1618 35.4125 24.9754 35.818C25.789 36.2236 26.4353 36.9007 26.8026 37.7322C30.2893 37.0874 33.4392 35.2394 35.7033 32.5105C37.9673 29.7816 39.202 26.3447 39.1921 22.7989C39.1921 14.4218 32.377 7.60669 23.9999 7.60669C15.6229 7.60669 8.80774 14.4218 8.80774 22.7989C8.80729 25.3892 9.46929 27.9366 10.7308 30.1989C10.7736 30.2736 10.8057 30.3539 10.8262 30.4374C10.948 30.7761 10.935 31.1487 10.7898 31.478C10.6446 31.8074 10.3783 32.0683 10.0461 32.2068C9.23257 32.5492 8.35883 32.7255 7.47621 32.7253C7.37233 32.7253 7.26824 32.7229 7.16393 32.7181C5.39269 32.6389 3.72514 31.8606 2.52691 30.5538C1.32868 29.2469 0.697567 27.5183 0.771959 25.7468C0.801865 25.0404 0.785178 24.4102 0.768865 23.8007C0.753678 23.2268 0.737834 22.6334 0.763897 22.0142C0.841679 20.2846 1.5857 18.6521 2.84014 17.4587C4.09457 16.2654 5.76209 15.6037 7.49346 15.6123C10.2737 9.25116 16.6256 4.79419 23.9999 4.79419C31.3743 4.79419 37.7262 9.25116 40.5065 15.6124C42.238 15.6025 43.9061 16.2636 45.1607 17.457C46.4154 18.6504 47.1591 20.2833 47.2359 22.0132C47.262 22.6333 47.2463 23.2267 47.2309 23.8005C47.2148 24.4101 47.198 25.0406 47.2279 25.7475ZM35.7941 22.7989C35.7935 24.6058 35.3778 26.3884 34.5792 28.0092C33.7806 29.63 32.6204 31.0458 31.1881 32.1473C29.7558 33.2488 28.0896 34.0066 26.3181 34.3623C24.5466 34.718 22.717 34.6621 20.9705 34.1989L16.1966 36.9558C15.9558 37.0949 15.6791 37.1594 15.4015 37.1413C15.1239 37.1231 14.858 37.023 14.6373 36.8537C14.4167 36.6844 14.2512 36.4534 14.1618 36.19C14.0724 35.9266 14.0631 35.6426 14.1351 35.3739L15.3551 30.8226C13.3347 28.6386 12.2104 25.7741 12.2062 22.7989C12.2062 16.2938 17.4966 11.0019 23.9999 11.0019C30.5033 11.0019 35.7941 16.2938 35.7941 22.7989ZM20.721 22.7989C20.721 22.4259 20.5729 22.0682 20.3091 21.8045C20.0454 21.5408 19.6877 21.3926 19.3148 21.3926H19.3124C19.0344 21.3931 18.7628 21.4761 18.5319 21.6309C18.301 21.7857 18.1211 22.0055 18.0151 22.2625C17.9091 22.5195 17.8816 22.8022 17.9361 23.0748C17.9907 23.3474 18.1248 23.5978 18.3216 23.7942C18.5184 23.9906 18.769 24.1242 19.0417 24.1783C19.3144 24.2323 19.597 24.2043 19.8538 24.0978C20.1106 23.9913 20.3301 23.8111 20.4845 23.5799C20.6389 23.3487 20.7213 23.0769 20.7213 22.7989H20.721ZM25.4065 22.7989C25.4063 22.7528 25.4038 22.7068 25.399 22.6611C25.3945 22.6151 25.3877 22.5694 25.3784 22.5242C25.37 22.4791 25.3587 22.4347 25.3446 22.3911C25.3316 22.347 25.3156 22.3039 25.2987 22.2608C25.2819 22.2176 25.2612 22.1773 25.2397 22.137C25.2183 22.0965 25.1948 22.057 25.1694 22.0189C25.1437 21.9803 25.1162 21.9431 25.0868 21.9073C25.0579 21.8715 25.0269 21.8374 24.9941 21.8051C24.9622 21.7723 24.9275 21.7414 24.8919 21.7114C24.8561 21.6833 24.8186 21.6551 24.7802 21.6298C24.7421 21.6044 24.7027 21.5809 24.6622 21.5595C24.6218 21.5379 24.5797 21.5183 24.5374 21.5004C24.4952 21.4828 24.452 21.4674 24.4081 21.4545C24.3204 21.4263 24.2299 21.4081 24.1381 21.4001C24.0004 21.3869 23.8615 21.3935 23.7256 21.4198C23.6804 21.429 23.6357 21.4406 23.5916 21.4545C23.5477 21.4674 23.5045 21.4827 23.4623 21.5004C23.4201 21.5183 23.3779 21.5379 23.3376 21.5595C23.2973 21.5811 23.2579 21.6045 23.2194 21.6298C23.1424 21.6809 23.0708 21.7396 23.0057 21.8051C22.9728 21.8374 22.9418 21.8715 22.9128 21.9073C22.8838 21.9431 22.8566 21.9803 22.8313 22.0189C22.8056 22.057 22.7818 22.0964 22.7601 22.137C22.7385 22.1772 22.719 22.2185 22.7019 22.2608C22.6841 22.3034 22.6684 22.3469 22.655 22.3911C22.642 22.4342 22.6307 22.4792 22.6213 22.5242C22.6121 22.5694 22.6052 22.6151 22.6006 22.6611C22.596 22.707 22.5941 22.7529 22.5941 22.7989C22.5941 22.8448 22.596 22.8917 22.6006 22.9376C22.6052 22.9833 22.6121 23.0286 22.6213 23.0736C22.6307 23.1186 22.642 23.1636 22.655 23.2076C22.6684 23.2515 22.6841 23.2947 22.7019 23.337C22.719 23.3796 22.7384 23.4212 22.7601 23.4617C22.7816 23.502 22.806 23.5414 22.8313 23.5798C22.8566 23.6181 22.8838 23.655 22.9128 23.6904C22.942 23.7264 22.973 23.7608 23.0057 23.7936C23.0385 23.8254 23.0723 23.8573 23.1088 23.8864C23.1441 23.9157 23.181 23.9429 23.2194 23.9679C23.2579 23.9933 23.2972 24.0176 23.3376 24.0392C23.419 24.0816 23.504 24.1168 23.5916 24.1442C23.6356 24.1573 23.6806 24.1686 23.7256 24.1779C23.816 24.1964 23.908 24.2055 24.0003 24.2051C24.3728 24.2041 24.7299 24.0562 24.9941 23.7936C25.0589 23.7278 25.1175 23.6562 25.1694 23.5798C25.1947 23.5414 25.2181 23.502 25.2397 23.4617C25.2612 23.4214 25.2809 23.3792 25.2987 23.337C25.3166 23.2948 25.3316 23.2508 25.3446 23.2076C25.3586 23.1637 25.3699 23.1189 25.3784 23.0736C25.3876 23.0286 25.3945 22.9833 25.399 22.9376C25.4038 22.8915 25.4062 22.8451 25.4062 22.7987L25.4065 22.7989ZM30.094 22.7989C30.094 22.4259 29.9458 22.0682 29.6821 21.8045C29.4184 21.5408 29.0607 21.3926 28.6877 21.3926H28.685C28.407 21.3932 28.1354 21.4761 27.9045 21.6309C27.6736 21.7858 27.4937 22.0056 27.3877 22.2626C27.2817 22.5196 27.2542 22.8023 27.3088 23.0749C27.3634 23.3475 27.4975 23.5978 27.6943 23.7942C27.8911 23.9906 28.1416 24.1243 28.4144 24.1783C28.6871 24.2323 28.9697 24.2043 29.2265 24.0978C29.4833 23.9913 29.7028 23.8111 29.8572 23.5799C30.0116 23.3487 30.094 23.0769 30.094 22.7989Z" fill="#44B859"/>
</svg>
