<svg width="43" height="44" viewBox="0 0 43 44" fill="none" xmlns="http://www.w3.org/2000/svg">
<g id="Frame" clip-path="url(#clip0_211_316)">
<g id="Group">
<path id="Vector" d="M21.5003 0.666687C9.73677 0.666687 0.166992 10.2365 0.166992 22C0.166992 33.7636 9.73677 43.3334 21.5003 43.3334C33.2639 43.3334 42.8337 33.7636 42.8337 22C42.8337 10.2365 33.2639 0.666687 21.5003 0.666687ZM28.6114 23.7778H21.5003C21.0288 23.7778 20.5766 23.5905 20.2432 23.2571C19.9098 22.9237 19.7225 22.4715 19.7225 22V11.3334C19.7225 10.8619 19.9098 10.4097 20.2432 10.0763C20.5766 9.74288 21.0288 9.55558 21.5003 9.55558C21.9718 9.55558 22.424 9.74288 22.7574 10.0763C23.0908 10.4097 23.2781 10.8619 23.2781 11.3334V20.2222H28.6114C29.0829 20.2222 29.5351 20.4095 29.8685 20.7429C30.2019 21.0763 30.3892 21.5285 30.3892 22C30.3892 22.4715 30.2019 22.9237 29.8685 23.2571C29.5351 23.5905 29.0829 23.7778 28.6114 23.7778Z" fill="#44B859"/>
</g>
</g>
<defs>
<clipPath id="clip0_211_316">
<rect width="42.6667" height="42.6667" fill="white" transform="translate(0.166992 0.666687)"/>
</clipPath>
</defs>
</svg>
