<svg width="43" height="43" viewBox="0 0 43 43" fill="none" xmlns="http://www.w3.org/2000/svg">
<g id="Frame" clip-path="url(#clip0_791_2825)">
<g id="Group">
<path id="Vector" d="M2.85722 32C4.32772 34.5522 7.5888 35.429 10.141 33.9585L10.1461 33.9555L10.9372 33.4986C12.4306 34.7762 14.147 35.7671 16.0003 36.4212V37.3333C16.0003 40.2788 18.3881 42.6667 21.3336 42.6667C24.2791 42.6667 26.667 40.2788 26.667 37.3333V36.4213C28.5205 35.7661 30.237 34.774 31.7301 33.4951L32.5247 33.9538C35.0775 35.4265 38.3409 34.551 39.8136 31.9982C41.2864 29.4454 40.4109 26.182 37.8581 24.7092L37.0687 24.2542C37.4241 22.3207 37.4241 20.3387 37.0687 18.4053L37.8581 17.9502C40.4108 16.4774 41.2864 13.2141 39.8136 10.6613C38.3409 8.1085 35.0776 7.23292 32.5247 8.70567L31.7336 9.16258C30.2388 7.88648 28.5211 6.89747 26.667 6.24533V5.33333C26.667 2.38783 24.2791 0 21.3336 0C18.3881 0 16.0003 2.38783 16.0003 5.33333V6.24533C14.1468 6.90055 12.4303 7.89262 10.9372 9.17158L10.1426 8.71117C7.58972 7.23833 4.32639 8.11392 2.85364 10.6667C1.38089 13.2194 2.25639 16.4828 4.80922 17.9556L5.59855 18.4107C5.24322 20.3441 5.24322 22.3261 5.59855 24.2596L4.80922 24.7147C2.26347 26.1913 1.3908 29.4483 2.85722 32ZM21.3336 14.2223C25.261 14.2223 28.4447 17.406 28.4447 21.3333C28.4447 25.2607 25.261 28.4444 21.3336 28.4444C17.4063 28.4444 14.2226 25.2607 14.2226 21.3333C14.2226 17.406 17.4063 14.2223 21.3336 14.2223Z" fill="#44B859"/>
</g>
</g>
<defs>
<clipPath id="clip0_791_2825">
<rect width="42.6667" height="42.6667" fill="white"/>
</clipPath>
</defs>
</svg>
