<svg width="48" height="48" viewBox="0 0 48 48" fill="none" xmlns="http://www.w3.org/2000/svg">
<g id="Frame" clip-path="url(#clip0_791_2816)">
<g id="Group">
<path id="Vector" d="M36 24C32.8174 24 29.7652 25.2643 27.5147 27.5147C25.2643 29.7652 24 32.8174 24 36C24 39.1826 25.2643 42.2348 27.5147 44.4853C29.7652 46.7357 32.8174 48 36 48C39.1826 48 42.2348 46.7357 44.4853 44.4853C46.7357 42.2348 48 39.1826 48 36C48 32.8174 46.7357 29.7652 44.4853 27.5147C42.2348 25.2643 39.1826 24 36 24ZM42.384 36.404L37.958 40.652C37.054 41.544 35.854 41.994 34.652 41.994C33.45 41.994 32.246 41.544 31.326 40.646L29.062 38.428C28.8701 38.2452 28.7165 38.026 28.61 37.7833C28.5036 37.5406 28.4464 37.2791 28.4419 37.0141C28.4374 36.7491 28.4856 36.4858 28.5837 36.2396C28.6818 35.9934 28.8279 35.7691 29.0135 35.5799C29.199 35.3906 29.4203 35.2401 29.6646 35.1371C29.9088 35.0341 30.171 34.9807 30.4361 34.98C30.7011 34.9793 30.9637 35.0312 31.2085 35.1329C31.4533 35.2345 31.6754 35.3838 31.862 35.572L34.124 37.788C34.2642 37.9236 34.4518 37.999 34.6468 37.9983C34.8418 37.9975 35.0288 37.9206 35.168 37.784L39.614 33.516C39.8035 33.3341 40.027 33.1913 40.2716 33.0958C40.5163 33.0003 40.7774 32.9539 41.04 32.9593C41.3026 32.9647 41.5616 33.0217 41.8021 33.1272C42.0427 33.2327 42.2601 33.3845 42.442 33.574C42.6239 33.7635 42.7667 33.987 42.8622 34.2316C42.9577 34.4763 43.0041 34.7374 42.9987 35C42.9933 35.2626 42.9363 35.5216 42.8308 35.7621C42.7253 36.0027 42.5735 36.2221 42.384 36.404ZM20 36C19.9976 33.7295 20.4796 31.4846 21.4139 29.4153C22.3482 27.3459 23.7133 25.4997 25.418 24H10C9.46957 24 8.96086 23.7893 8.58579 23.4142C8.21071 23.0391 8 22.5304 8 22C8 21.4696 8.21071 20.9609 8.58579 20.5858C8.96086 20.2107 9.46957 20 10 20H26C26.2747 20.0001 26.5464 20.0568 26.7983 20.1666C27.0501 20.2763 27.2766 20.4368 27.4637 20.6379C27.6508 20.8391 27.7944 21.0766 27.8857 21.3358C27.9769 21.5949 28.0138 21.87 27.994 22.144C30.4265 20.7348 33.1888 19.9951 36 20V10C36 4.486 31.514 0 26 0H10C4.486 0 0 4.486 0 10V38C0 43.514 4.486 48 10 48H25.418C23.7133 46.5003 22.3482 44.6541 21.4139 42.5847C20.4796 40.5154 19.9976 38.2705 20 36ZM10 10H26C26.5304 10 27.0391 10.2107 27.4142 10.5858C27.7893 10.9609 28 11.4696 28 12C28 12.5304 27.7893 13.0391 27.4142 13.4142C27.0391 13.7893 26.5304 14 26 14H10C9.46957 14 8.96086 13.7893 8.58579 13.4142C8.21071 13.0391 8 12.5304 8 12C8 11.4696 8.21071 10.9609 8.58579 10.5858C8.96086 10.2107 9.46957 10 10 10ZM14 34H10C9.46957 34 8.96086 33.7893 8.58579 33.4142C8.21071 33.0391 8 32.5304 8 32C8 31.4696 8.21071 30.9609 8.58579 30.5858C8.96086 30.2107 9.46957 30 10 30H14C14.5304 30 15.0391 30.2107 15.4142 30.5858C15.7893 30.9609 16 31.4696 16 32C16 32.5304 15.7893 33.0391 15.4142 33.4142C15.0391 33.7893 14.5304 34 14 34Z" fill="#44B859"/>
</g>
</g>
<defs>
<clipPath id="clip0_791_2816">
<rect width="48" height="48" fill="white"/>
</clipPath>
</defs>
</svg>
