<svg width="48" height="48" viewBox="0 0 48 48" fill="none" xmlns="http://www.w3.org/2000/svg">
<g id="Frame" clip-path="url(#clip0_828_9358)">
<g id="Group">
<path id="Vector" d="M47.588 32.1368L43.0401 27.5885L33.6317 36.9968C31.9523 38.6763 29.8444 39.7713 27.5548 40.181L33.5493 46.1755C34.0983 46.7249 34.9889 46.7249 35.5378 46.1755L47.588 34.1257C48.1373 33.5764 48.1373 32.6857 47.588 32.1368ZM41.1874 25.4637C42.7727 23.8788 42.7731 21.2995 41.1895 19.7135L41.1841 19.708C40.7993 19.3223 40.3409 19.0179 39.8361 18.813C40.2682 17.7199 40.3594 15.8712 38.9278 14.4394C38.9242 14.4356 38.9205 14.4316 38.9166 14.4279C38.5333 14.0461 38.0777 13.7446 37.5765 13.541C38.0087 12.4486 38.1002 10.5995 36.6695 9.16846L36.6668 9.16592C36.2747 8.77367 35.8165 8.47124 35.3174 8.26939C35.7496 7.17627 35.8407 5.32724 34.4092 3.89539C34.4088 3.89539 34.4088 3.89502 34.4084 3.89502L34.4074 3.89389C32.8213 2.30783 30.2409 2.30783 28.6549 3.89389L25.9885 6.55996L27.3519 7.92336C29.6239 10.1953 29.6239 13.8919 27.3523 16.1638C26.5877 16.928 25.6483 17.4532 24.6244 17.7034C24.372 18.7347 23.8409 19.6767 23.0892 20.4265C22.3257 21.19 21.3878 21.7148 20.365 21.9653C20.1149 22.9878 19.5897 23.926 18.8266 24.6892C18.063 25.4527 17.1251 25.9775 16.1022 26.228C15.8522 27.2505 15.327 28.1887 14.5638 28.9522C13.4633 30.0524 12 30.6588 10.4436 30.6588C8.88722 30.6588 7.42387 30.0527 6.32334 28.9519L4.95994 27.5885L0.412031 32.1368C-0.137344 32.6862 -0.137344 33.5764 0.412031 34.1257L12.4617 46.1755C13.0111 46.7249 13.9013 46.7245 14.4507 46.1755L23.0764 37.5501H25.5066C27.8247 37.5501 30.004 36.647 31.6432 35.0083L41.1874 25.4637Z" fill="#44B859"/>
<path id="Vector_2" d="M8.31121 26.9634C9.48824 28.1407 11.3969 28.1407 12.5739 26.9634C13.7512 25.7863 13.7512 23.8781 12.5739 22.7006C13.7512 23.8781 15.6596 23.8781 16.8369 22.7006C18.014 21.5236 18.014 19.615 16.8369 18.4379C18.014 19.615 19.9227 19.615 21.0997 18.4379C22.2767 17.2609 22.2767 15.3522 21.0997 14.1752C22.2767 15.3522 24.1853 15.3522 25.3624 14.1752C26.5398 12.9979 26.5398 11.0895 25.3624 9.91212L19.3521 3.9019C18.1751 2.72487 16.2665 2.72487 15.0894 3.9019C13.9124 5.07893 13.9124 6.98759 15.0894 8.16462L15.8423 8.9179C14.6653 7.7405 12.7566 7.7405 11.5796 8.9179C10.4027 10.0949 10.4027 12.0036 11.5796 13.1806L13.0859 14.6868C11.9089 13.5098 10.0002 13.5098 8.82318 14.6868C7.64577 15.8638 7.64577 17.7725 8.82318 18.9495L10.3294 20.4561C9.15206 19.2788 7.24368 19.2788 6.06637 20.4561C4.88934 21.6331 4.88934 23.5414 6.06637 24.7188L8.31121 26.9634ZM26.665 1.90493C26.8717 1.69912 27.0911 1.50649 27.3219 1.32818L26.4995 0.505715C26.2908 0.297039 26.0218 0.159286 25.7305 0.111958C25.4392 0.0646287 25.1404 0.110122 24.8764 0.241996L21.4055 1.9775L23.999 4.57137L26.665 1.90493Z" fill="#44B859"/>
</g>
</g>
<defs>
<clipPath id="clip0_828_9358">
<rect width="48" height="48" fill="white"/>
</clipPath>
</defs>
</svg>
