<svg width="49" height="49" viewBox="0 0 49 49" fill="none" xmlns="http://www.w3.org/2000/svg">
<g id="Frame">
<g id="Group">
<path id="Vector" fill-rule="evenodd" clip-rule="evenodd" d="M27.4019 2.7889L30.3195 4.97284C31.1174 5.57012 31.9573 5.8758 32.9525 5.93121L36.5913 6.13362C38.7701 6.25478 40.5398 7.73962 41.0374 9.86442L41.8687 13.4128C42.096 14.3832 42.5429 15.1573 43.2697 15.8394L45.9271 18.3335C47.5183 19.8268 47.9194 22.1018 46.935 24.0493L45.2909 27.3018C44.8413 28.1914 44.686 29.0716 44.8043 30.0612L45.2369 33.6799C45.4959 35.8468 44.3408 37.8472 42.3349 38.7064L38.9847 40.1412C38.0684 40.5335 37.3838 41.108 36.8383 41.9422L34.8435 44.9922C33.6492 46.8186 31.4784 47.6086 29.3896 46.9773L25.901 45.9231C24.947 45.6347 24.0532 45.6347 23.099 45.9231L19.6105 46.9773C17.5217 47.6086 15.3509 46.8186 14.1565 44.9922L12.1618 41.9422C11.6162 41.108 10.9315 40.5335 10.0154 40.1412L6.66499 38.7062C4.65906 37.8471 3.50401 35.8466 3.76299 33.6798L4.19557 30.061C4.31385 29.0714 4.15862 28.1912 3.70901 27.3016L2.06493 24.0492C1.08052 22.1017 1.48162 19.8267 3.07278 18.3333L5.73017 15.8392C6.45693 15.1571 6.90377 14.383 7.13107 13.4126L7.96234 9.86423C8.46 7.73952 10.2296 6.25469 12.4085 6.13343L16.0473 5.93102C17.0425 5.8757 17.8824 5.56993 18.6803 4.97265L21.5979 2.7887C23.3448 1.48121 25.6549 1.48121 27.4019 2.7889ZM22.6387 25.7499L19.4725 22.5837C18.6518 21.763 17.3207 21.763 16.5001 22.5837C15.6795 23.4043 15.6795 24.7353 16.5001 25.556L21.1571 30.2129C21.9778 31.0335 23.3089 31.0336 24.1295 30.2129C26.9364 27.4058 29.7116 24.5673 32.5057 21.7474C33.3204 20.9251 33.3178 19.5983 32.4966 18.7817C31.6753 17.9648 30.3446 17.9671 29.529 18.7908L22.6387 25.7499ZM24.4998 8.84815C20.1778 8.84815 16.2648 10.6001 13.4324 13.4325C10.5999 16.265 8.84798 20.178 8.84798 24.5C8.84798 28.8221 10.5999 32.7351 13.4324 35.5675C16.2648 38.3999 20.1778 40.1519 24.4998 40.1519C28.8219 40.1519 32.7349 38.3999 35.5673 35.5675C38.3998 32.7351 40.1517 28.8221 40.1517 24.5C40.1517 20.178 38.3998 16.2649 35.5673 13.4325C32.7349 10.6001 28.8219 8.84815 24.4998 8.84815ZM34.4846 14.5152C31.9294 11.9599 28.3992 10.3794 24.4998 10.3794C20.6005 10.3794 17.0703 11.9599 14.515 14.5152C11.9598 17.0705 10.3792 20.6007 10.3792 24.5C10.3792 28.3993 11.9598 31.9295 14.515 34.4848C17.0703 37.0401 20.6005 38.6206 24.4998 38.6206C28.3992 38.6206 31.9294 37.0401 34.4846 34.4849C37.0399 31.9296 38.6204 28.3994 38.6204 24.5001C38.6205 20.6007 37.0399 17.0705 34.4846 14.5152Z" fill="#44B859"/>
</g>
</g>
</svg>
