<svg width="43" height="43" viewBox="0 0 43 43" fill="none" xmlns="http://www.w3.org/2000/svg">
<g id="Frame" clip-path="url(#clip0_211_342)">
<g id="Group">
<path id="Vector" d="M33.7778 7.11111H31.8222C31.4096 5.10473 30.3179 3.30195 28.7311 2.00661C27.1443 0.711271 25.1595 0.00258582 23.1111 0L19.5556 0C17.5072 0.00258582 15.5223 0.711271 13.9356 2.00661C12.3488 3.30195 11.2571 5.10473 10.8444 7.11111H8.88889C6.53228 7.11393 4.27299 8.05135 2.60661 9.71772C0.940235 11.3841 0.00282286 13.6434 0 16L0 21.3333H42.6667V16C42.6638 13.6434 41.7264 11.3841 40.0601 9.71772C38.3937 8.05135 36.1344 7.11393 33.7778 7.11111ZM14.5493 7.11111C14.9157 6.07483 15.5933 5.17705 16.4894 4.5406C17.3855 3.90415 18.4564 3.56011 19.5556 3.55556H23.1111C24.2102 3.56011 25.2811 3.90415 26.1772 4.5406C27.0734 5.17705 27.751 6.07483 28.1173 7.11111H14.5493ZM23.1111 26.6667C23.1111 27.1382 22.9238 27.5903 22.5904 27.9237C22.257 28.2571 21.8048 28.4444 21.3333 28.4444C20.8618 28.4444 20.4097 28.2571 20.0763 27.9237C19.7429 27.5903 19.5556 27.1382 19.5556 26.6667V24.8889H0V33.7778C0.00282286 36.1344 0.940235 38.3937 2.60661 40.0601C4.27299 41.7264 6.53228 42.6638 8.88889 42.6667H33.7778C36.1344 42.6638 38.3937 41.7264 40.0601 40.0601C41.7264 38.3937 42.6638 36.1344 42.6667 33.7778V24.8889H23.1111V26.6667Z" fill="#44B859"/>
</g>
</g>
<defs>
<clipPath id="clip0_211_342">
<rect width="42.6667" height="42.6667" fill="white"/>
</clipPath>
</defs>
</svg>
