<svg width="50" height="50" viewBox="0 0 50 50" fill="none" xmlns="http://www.w3.org/2000/svg">
<g id="Frame">
<g id="Group">
<g id="Layer 2">
<path id="Vector" d="M29.0781 43.3438L23.4844 44.5156C23.1658 44.5837 22.8413 44.6204 22.5156 44.625C21.2734 44.6213 20.0828 44.1272 19.2031 43.25C18.6509 42.6992 18.2457 42.0187 18.0246 41.2707C17.8035 40.5227 17.7735 39.7313 17.9375 38.9688L19.1094 33.375C19.2901 32.4778 19.7365 31.6557 20.3906 31.0156L35.0937 16.3125C35.3565 16.052 35.6385 15.8117 35.9375 15.5937V7.8125C35.9338 6.57044 35.4387 5.38031 34.5605 4.50203C33.6822 3.62376 32.4921 3.12871 31.25 3.125H9.375C8.13294 3.12871 6.94281 3.62376 6.06453 4.50203C5.18626 5.38031 4.69121 6.57044 4.6875 7.8125V42.1875C4.69121 43.4296 5.18626 44.6197 6.06453 45.498C6.94281 46.3762 8.13294 46.8713 9.375 46.875H31.25C32.4921 46.8713 33.6822 46.3762 34.5605 45.498C35.4387 44.6197 35.9338 43.4296 35.9375 42.1875V37.5625L31.4375 42.0625C30.7974 42.7166 29.9753 43.1631 29.0781 43.3438ZM12.5 9.375H28.125C28.5394 9.375 28.9368 9.53962 29.2299 9.83265C29.5229 10.1257 29.6875 10.5231 29.6875 10.9375C29.6875 11.3519 29.5229 11.7493 29.2299 12.0424C28.9368 12.3354 28.5394 12.5 28.125 12.5H12.5C12.0856 12.5 11.6882 12.3354 11.3951 12.0424C11.1021 11.7493 10.9375 11.3519 10.9375 10.9375C10.9375 10.5231 11.1021 10.1257 11.3951 9.83265C11.6882 9.53962 12.0856 9.375 12.5 9.375ZM12.5 15.625H28.125C28.5394 15.625 28.9368 15.7896 29.2299 16.0826C29.5229 16.3757 29.6875 16.7731 29.6875 17.1875C29.6875 17.6019 29.5229 17.9993 29.2299 18.2924C28.9368 18.5854 28.5394 18.75 28.125 18.75H12.5C12.0856 18.75 11.6882 18.5854 11.3951 18.2924C11.1021 17.9993 10.9375 17.6019 10.9375 17.1875C10.9375 16.7731 11.1021 16.3757 11.3951 16.0826C11.6882 15.7896 12.0856 15.625 12.5 15.625ZM10.9375 23.4375C10.9375 23.0231 11.1021 22.6257 11.3951 22.3326C11.6882 22.0396 12.0856 21.875 12.5 21.875H18.75C19.1644 21.875 19.5618 22.0396 19.8549 22.3326C20.1479 22.6257 20.3125 23.0231 20.3125 23.4375C20.3125 23.8519 20.1479 24.2493 19.8549 24.5424C19.5618 24.8354 19.1644 25 18.75 25H12.5C12.0856 25 11.6882 24.8354 11.3951 24.5424C11.1021 24.2493 10.9375 23.8519 10.9375 23.4375Z" fill="#44B859"/>
<path id="Vector_2" d="M43.9413 18.5156C43.0482 17.6633 41.861 17.1878 40.6265 17.1878C39.3919 17.1878 38.2048 17.6633 37.3116 18.5156L22.5929 33.2328C22.3791 33.4468 22.232 33.7182 22.1695 34.0141L20.9945 39.6094C20.9466 39.8368 20.95 40.0721 21.0046 40.298C21.0592 40.524 21.1634 40.7349 21.3098 40.9154C21.4562 41.096 21.6411 41.2416 21.8509 41.3416C22.0607 41.4417 22.2901 41.4936 22.5226 41.4938C22.6308 41.4938 22.7387 41.4823 22.8445 41.4594L28.4398 40.2828C28.7357 40.2203 29.0071 40.0732 29.221 39.8594L43.9382 25.1438C44.3736 24.7085 44.7189 24.1917 44.9545 23.6229C45.1901 23.0542 45.3114 22.4446 45.3114 21.8289C45.3114 21.2133 45.1901 20.6037 44.9545 20.0349C44.7189 19.4661 44.3736 18.9494 43.9382 18.5141L43.9413 18.5156Z" fill="#44B859"/>
</g>
</g>
</g>
</svg>
