<svg width="48" height="48" viewBox="0 0 48 48" fill="none" xmlns="http://www.w3.org/2000/svg">
<g id="Frame" clip-path="url(#clip0_791_2833)">
<g id="Group">
<path id="Vector" d="M18 8C18 3.582 24.716 0 33 0C41.284 0 48 3.582 48 8C48 12.418 41.284 16 33 16C24.716 16 18 12.418 18 8ZM33 20C30.946 20 28.998 19.77 27.218 19.37C24.5 17.332 20.046 16 15 16C6.716 16 0 19.582 0 24C0 28.418 6.716 32 15 32C23.284 32 30 28.418 30 24C30 23.942 29.986 23.886 29.984 23.828H30V28C30 32.418 23.284 36 15 36C6.716 36 0 32.418 0 28V32C0 36.418 6.716 40 15 40C23.284 40 30 36.418 30 32V36C30 40.418 23.284 44 15 44C6.716 44 0 40.418 0 36V40C0 44.418 6.716 48 15 48C23.284 48 30 44.418 30 40V39.84C30.97 39.944 31.972 40 33 40C41.284 40 48 36.418 48 32V28C48 32.238 41.816 35.698 34 35.974V31.974C41.816 31.698 48 28.24 48 24V20C48 24.238 41.816 27.698 34 27.974V23.974C41.816 23.698 48 20.24 48 16V12C48 16.418 41.284 20 33 20Z" fill="#44B859"/>
</g>
</g>
<defs>
<clipPath id="clip0_791_2833">
<rect width="48" height="48" fill="white"/>
</clipPath>
</defs>
</svg>
