<svg width="54" height="54" viewBox="0 0 54 54" fill="none" xmlns="http://www.w3.org/2000/svg">
<path fill-rule="evenodd" clip-rule="evenodd" d="M9.387 7.137C6.75 9.77175 6.75 14.0153 6.75 22.5V31.5C6.75 39.9847 6.75 44.2282 9.387 46.863C12.0217 49.5 16.2653 49.5 24.75 49.5H29.25C37.7347 49.5 41.9782 49.5 44.613 46.863C47.25 44.2282 47.25 39.9847 47.25 31.5V22.5C47.25 14.0153 47.25 9.77175 44.613 7.137C41.9782 4.5 37.7347 4.5 29.25 4.5H24.75C16.2653 4.5 12.0217 4.5 9.387 7.137ZM18 20.8125C17.5524 20.8125 17.1232 20.9903 16.8068 21.3068C16.4903 21.6232 16.3125 22.0524 16.3125 22.5C16.3125 22.9476 16.4903 23.3768 16.8068 23.6932C17.1232 24.0097 17.5524 24.1875 18 24.1875H36C36.4476 24.1875 36.8768 24.0097 37.1932 23.6932C37.5097 23.3768 37.6875 22.9476 37.6875 22.5C37.6875 22.0524 37.5097 21.6232 37.1932 21.3068C36.8768 20.9903 36.4476 20.8125 36 20.8125H18ZM18 29.8125C17.5524 29.8125 17.1232 29.9903 16.8068 30.3068C16.4903 30.6232 16.3125 31.0524 16.3125 31.5C16.3125 31.9476 16.4903 32.3768 16.8068 32.6932C17.1232 33.0097 17.5524 33.1875 18 33.1875H29.25C29.6976 33.1875 30.1268 33.0097 30.4432 32.6932C30.7597 32.3768 30.9375 31.9476 30.9375 31.5C30.9375 31.0524 30.7597 30.6232 30.4432 30.3068C30.1268 29.9903 29.6976 29.8125 29.25 29.8125H18Z" fill="#44B859"/>
</svg>
