<svg width="48" height="48" viewBox="0 0 48 48" fill="none" xmlns="http://www.w3.org/2000/svg">
<g id="Frame">
<g id="Group">
<path id="Vector" d="M44.9441 39.1096L34.5911 30.3496L38.8331 26.1061C39.1144 26.3873 39.4958 26.5453 39.8936 26.5453C40.2913 26.5453 40.6728 26.3873 40.9541 26.1061L43.0751 23.9851C43.3563 23.7038 43.5143 23.3223 43.5143 22.9246C43.5143 22.5268 43.3563 22.1454 43.0751 21.8641L32.4701 11.2561C32.3308 11.1166 32.1653 11.006 31.9832 10.9305C31.8011 10.855 31.606 10.8162 31.4088 10.8162C31.2117 10.8162 31.0165 10.855 30.8344 10.9305C30.6523 11.006 30.4869 11.1166 30.3476 11.2561L28.2266 13.3801C27.9454 13.6614 27.7874 14.0428 27.7874 14.4406C27.7874 14.8383 27.9454 15.2198 28.2266 15.5011L15.4991 28.2286C15.3598 28.0891 15.1943 27.9785 15.0122 27.903C14.8301 27.8275 14.635 27.7887 14.4378 27.7887C14.2407 27.7887 14.0455 27.8275 13.8634 27.903C13.6813 27.9785 13.5159 28.0891 13.3766 28.2286L11.2556 30.3496C10.9744 30.6309 10.8164 31.0123 10.8164 31.4101C10.8164 31.8078 10.9744 32.1893 11.2556 32.4706L21.8621 43.0786C22.0014 43.2181 22.1668 43.3287 22.3489 43.4042C22.531 43.4797 22.7262 43.5185 22.9233 43.5185C23.1205 43.5185 23.3156 43.4797 23.4977 43.4042C23.6798 43.3287 23.8453 43.2181 23.9846 43.0786L26.1056 40.9561C26.3868 40.6748 26.5448 40.2933 26.5448 39.8956C26.5448 39.4978 26.3868 39.1164 26.1056 38.8351L30.3476 34.5931L39.1076 44.9461C39.4776 45.3827 39.9342 45.7379 40.4485 45.9892C40.9628 46.2404 41.5236 46.3823 42.0955 46.4059C42.6674 46.4295 43.2379 46.3342 43.7711 46.1261C44.3043 45.918 44.7886 45.6016 45.1933 45.1968C45.5981 44.7921 45.9145 44.3078 46.1226 43.7746C46.3307 43.2414 46.426 42.6709 46.4024 42.099C46.3788 41.5271 46.2369 40.9663 45.9857 40.452C45.7344 39.9377 45.3792 39.4812 44.9426 39.1111L44.9441 39.1096Z" fill="#44B859"/>
<path id="Vector_2" d="M28.5 0H4.5C3.30762 0.00356114 2.1651 0.47881 1.32195 1.32195C0.47881 2.1651 0.00356114 3.30762 0 4.5L0 37.5C0.00356114 38.6924 0.47881 39.8349 1.32195 40.678C2.1651 41.5212 3.30762 41.9964 4.5 42H16.545L9.135 34.59C8.71666 34.1728 8.38474 33.6772 8.15827 33.1315C7.9318 32.5858 7.81523 32.0008 7.81523 31.41C7.81523 30.8192 7.9318 30.2342 8.15827 29.6885C8.38474 29.1428 8.71666 28.6472 9.135 28.23L10.356 27H7.5C7.10218 27 6.72064 26.842 6.43934 26.5607C6.15804 26.2794 6 25.8978 6 25.5C6 25.1022 6.15804 24.7206 6.43934 24.4393C6.72064 24.158 7.10218 24 7.5 24H10.5C10.8978 24 11.2794 24.158 11.5607 24.4393C11.842 24.7206 12 25.1022 12 25.5V25.506C12.8003 24.9979 13.7381 24.7496 14.685 24.795L18.627 20.853C18.4314 20.9475 18.2173 20.9977 18 21H7.5C7.10218 21 6.72064 20.842 6.43934 20.5607C6.15804 20.2794 6 19.8978 6 19.5C6 19.1022 6.15804 18.7206 6.43934 18.4393C6.72064 18.158 7.10218 18 7.5 18H18C18.3978 18 18.7794 18.158 19.0607 18.4393C19.342 18.7206 19.5 19.1022 19.5 19.5C19.4977 19.7173 19.4475 19.9314 19.353 20.127L24.795 14.685C24.7633 14.0533 24.8629 13.422 25.0875 12.8307C25.3121 12.2395 25.6569 11.7013 26.1 11.25L28.23 9.135C28.8418 8.52272 29.6169 8.09952 30.4628 7.91598C31.3086 7.73245 32.1895 7.79633 33 8.1V4.5C32.9964 3.30762 32.5212 2.1651 31.678 1.32195C30.8349 0.47881 29.6924 0.00356114 28.5 0ZM22.5 15H7.5C7.10218 15 6.72064 14.842 6.43934 14.5607C6.15804 14.2794 6 13.8978 6 13.5C6 13.1022 6.15804 12.7206 6.43934 12.4393C6.72064 12.158 7.10218 12 7.5 12H22.5C22.8978 12 23.2794 12.158 23.5607 12.4393C23.842 12.7206 24 13.1022 24 13.5C24 13.8978 23.842 14.2794 23.5607 14.5607C23.2794 14.842 22.8978 15 22.5 15ZM25.5 9H7.5C7.10218 9 6.72064 8.84196 6.43934 8.56066C6.15804 8.27936 6 7.89782 6 7.5C6 7.10218 6.15804 6.72064 6.43934 6.43934C6.72064 6.15804 7.10218 6 7.5 6H25.5C25.8978 6 26.2794 6.15804 26.5607 6.43934C26.842 6.72064 27 7.10218 27 7.5C27 7.89782 26.842 8.27936 26.5607 8.56066C26.2794 8.84196 25.8978 9 25.5 9Z" fill="#44B859"/>
</g>
</g>
</svg>
