<svg width="48" height="48" viewBox="0 0 48 48" fill="none" xmlns="http://www.w3.org/2000/svg">
<g id="Frame" clip-path="url(#clip0_817_7992)">
<g id="Group">
<path id="Vector" d="M24 0C10.766 0 0 10.766 0 24C0 37.234 10.766 48 24 48C37.234 48 48 37.234 48 24C48 10.766 37.234 0 24 0ZM32 26H24C23.4696 26 22.9609 25.7893 22.5858 25.4142C22.2107 25.0391 22 24.5304 22 24V12C22 11.4696 22.2107 10.9609 22.5858 10.5858C22.9609 10.2107 23.4696 10 24 10C24.5304 10 25.0391 10.2107 25.4142 10.5858C25.7893 10.9609 26 11.4696 26 12V22H32C32.5304 22 33.0391 22.2107 33.4142 22.5858C33.7893 22.9609 34 23.4696 34 24C34 24.5304 33.7893 25.0391 33.4142 25.4142C33.0391 25.7893 32.5304 26 32 26Z" fill="#44B859"/>
</g>
</g>
<defs>
<clipPath id="clip0_817_7992">
<rect width="48" height="48" fill="white"/>
</clipPath>
</defs>
</svg>
