<svg width="46" height="46" viewBox="0 0 46 46" fill="none" xmlns="http://www.w3.org/2000/svg">
<g id="Frame" clip-path="url(#clip0_612_314)">
<g id="Group">
<path id="Vector" d="M44.6473 24.4469H43.2318C42.6151 15.1609 35.7166 7.54454 26.7463 5.89636C26.9874 5.37895 27.1317 4.64959 27.1317 4.04207C27.1317 1.81323 25.3184 0 23.0896 0C20.8608 0 19.0475 1.81323 19.0475 4.04207C19.0475 4.64959 19.1918 5.37895 19.4329 5.89636C10.4626 7.54454 3.38445 15.1608 2.76794 24.4469H1.35227C0.607555 24.4469 0.00488281 25.0137 0.00488281 25.7584C0.00488281 26.5031 0.607465 27.1058 1.35227 27.1058H44.6473C45.3921 27.1058 45.9947 26.5031 45.9947 25.7584C45.9947 25.0137 45.3921 24.4469 44.6473 24.4469ZM23.0896 5.54803C22.3462 5.54803 21.7422 4.78553 21.7422 4.04207C21.7422 3.29861 22.3462 2.69468 23.0896 2.69468C23.833 2.69468 24.437 3.29861 24.437 4.04207C24.437 4.78553 23.8331 5.54803 23.0896 5.54803ZM4.04704 32.4951C3.29245 32.4951 2.69966 33.0879 2.69966 33.8425V44.6424C2.69966 45.3968 3.29245 45.9898 4.04704 45.9898H8.08911V32.4951H4.04704ZM41.7946 31.3416C40.742 30.289 39.0369 30.289 37.9843 31.3415L30.2686 39.0213C29.3019 39.9879 28.03 40.5254 26.6724 40.5792H22.982C22.243 40.5792 21.6346 40.0293 21.6346 39.2318C21.6346 38.4341 22.2429 37.8844 22.982 37.8844H27.1318C28.6138 37.8844 29.8265 36.6718 29.8265 35.1897C29.8265 33.7077 28.6138 32.531 27.1318 32.531H24.4371C23.9642 32.531 23.6076 32.5479 23.2245 32.2076C22.7467 31.7894 22.2276 31.2678 21.7424 30.9591C19.0492 29.058 15.1545 28.5965 11.9066 30.2935C11.568 30.4706 11.2843 30.7371 11.0864 31.0639C10.8885 31.3908 10.7839 31.7657 10.7839 32.1478V45.9898C27.9222 46.0128 26.3541 45.9896 26.4568 45.9898C29.3357 45.9898 32.0435 44.8688 34.079 42.8319L41.7947 35.1162C42.8473 34.0636 42.8473 32.3943 41.7946 31.3416Z" fill="#44B859"/>
</g>
</g>
<defs>
<clipPath id="clip0_612_314">
<rect width="46" height="46" fill="white"/>
</clipPath>
</defs>
</svg>
