<svg width="46" height="46" viewBox="0 0 46 46" fill="none" xmlns="http://www.w3.org/2000/svg">
<g id="Frame">
<g id="Group">
<path id="Vector" d="M28.75 37.3534C28.0198 37.6467 27.2651 37.8925 26.4845 38.0722L26.1683 42.1921C26.1487 42.4459 26.034 42.683 25.8472 42.856C25.6604 43.029 25.4152 43.125 25.1606 43.125H20.838C20.5838 43.125 20.3389 43.0291 20.1524 42.8564C19.9658 42.6837 19.8513 42.447 19.8317 42.1935L19.5155 38.0736C17.8488 37.6894 16.258 37.0291 14.8091 36.1201L11.6682 38.8125C11.475 38.9782 11.2264 39.0648 10.9721 39.0549C10.7178 39.0451 10.4766 38.9395 10.2968 38.7593L7.24069 35.7032C7.06083 35.5233 6.95546 35.2821 6.9456 35.0279C6.93574 34.7737 7.02212 34.5251 7.1875 34.3318L9.87994 31.1909C8.97208 29.7414 8.31187 28.1508 7.92637 26.4845L3.8065 26.1683C3.55291 26.1483 3.31615 26.0335 3.14348 25.8468C2.97082 25.66 2.87494 25.4149 2.875 25.1606V20.838C2.875 20.3104 3.28181 19.872 3.8065 19.8317L7.92637 19.5155C8.31059 17.8488 8.97089 16.258 9.87994 14.8091L7.18894 11.6682C7.02347 11.4753 6.93688 11.227 6.94647 10.9731C6.95607 10.7191 7.06114 10.4781 7.24069 10.2983L10.2968 7.24213C10.4769 7.06258 10.718 6.95741 10.9721 6.94755C11.2262 6.9377 11.4747 7.02388 11.6682 7.18894L14.8091 9.88138C16.2586 8.97352 17.8492 8.31331 19.5155 7.92781L19.8317 3.80794C19.8513 3.55409 19.966 3.31698 20.1528 3.14401C20.3396 2.97105 20.5848 2.87497 20.8394 2.875H25.162C25.6896 2.875 26.128 3.28181 26.1683 3.8065L26.1869 4.04656C25.1573 5.62589 24.5604 7.44791 24.4559 9.33035C24.3515 11.2128 24.7432 13.0896 25.5918 14.7732C24.4058 14.3998 23.1531 14.2872 21.9196 14.4431C20.686 14.5991 19.5007 15.0199 18.445 15.6768C17.3893 16.3336 16.4881 17.211 15.8031 18.2487C15.1181 19.2864 14.6657 20.46 14.4766 21.6889C14.2876 22.9178 14.3666 24.1731 14.708 25.3687C15.0495 26.5643 15.6454 27.6719 16.455 28.6156C17.2646 29.5594 18.2686 30.3169 19.3983 30.8363C20.528 31.3558 21.7566 31.6248 23 31.625C25.1241 31.6257 27.1729 30.8385 28.75 29.4156V37.3534Z" fill="#44B859"/>
<path id="Vector_2" d="M38.8123 16.9467V39.5313C38.8123 40.4844 38.4337 41.3985 37.7597 42.0724C37.0857 42.7464 36.1717 43.125 35.2185 43.125C34.2654 43.125 33.3513 42.7464 32.6774 42.0724C32.0034 41.3985 31.6248 40.4844 31.6248 39.5313V16.9467C30.349 16.2964 29.2739 15.3115 28.5147 14.0973C27.7555 12.8832 27.3408 11.4854 27.3148 10.0536C27.2888 8.62189 27.6526 7.21001 28.3672 5.96907C29.0818 4.72814 30.1204 3.70485 31.3718 3.00871C31.4825 2.94834 31.6248 3.03459 31.6248 3.16109V11.5L35.2185 12.9375L38.8123 11.5V3.16109C38.8123 3.03459 38.9546 2.94834 39.0653 3.01015C40.3171 3.70575 41.3562 4.72876 42.0712 5.96964C42.7862 7.21052 43.1502 8.62252 43.1242 10.0544C43.0982 11.4863 42.6832 12.8842 41.9236 14.0983C41.1641 15.3124 40.0886 16.297 38.8123 16.9467Z" fill="#44B859"/>
</g>
</g>
</svg>
