<svg width="46" height="46" viewBox="0 0 46 46" fill="none" xmlns="http://www.w3.org/2000/svg">
<g id="Frame" clip-path="url(#clip0_612_341)">
<g id="Group">
<path id="Vector" d="M33.3498 18.4001H1.15014C0.515128 18.4001 0 18.9147 0 19.5499V44.85C0 45.485 0.51502 46.0001 1.15014 46.0001H9.19985V31.05C9.19985 30.415 9.71487 29.8999 10.35 29.8999H24.15C24.785 29.8999 25.3001 30.4149 25.3001 31.05V46.0001H34.5V19.5499C34.5 18.9148 33.985 18.4001 33.3498 18.4001Z" fill="#44B859"/>
<path id="Vector_2" d="M11.5001 32.2001H22.9998V46.0001H11.5001V32.2001ZM44.8499 25.3001H36.7998V46.0001H44.8499C45.1548 46.0001 45.4475 45.8793 45.6632 45.6632C45.8792 45.4476 46.0001 45.1549 46.0001 44.85V26.4498C46.0001 26.1449 45.8792 25.8522 45.6632 25.6366C45.4475 25.421 45.1548 25.2997 44.8499 25.3001ZM42.5501 36.7998H40.2498C39.6148 36.7998 39.1001 36.2852 39.1001 35.6501C39.1001 35.015 39.6147 34.5 40.2498 34.5H42.5501C43.1851 34.5 43.6998 35.015 43.6998 35.6501C43.6998 36.2852 43.1852 36.7998 42.5501 36.7998ZM42.5501 32.2001H40.2498C39.6148 32.2001 39.1001 31.6851 39.1001 31.05C39.1001 30.4149 39.6147 29.8998 40.2498 29.8998H42.5501C43.1851 29.8998 43.6998 30.4149 43.6998 31.05C43.6998 31.6851 43.1852 32.2001 42.5501 32.2001ZM25.3001 5.74985C25.605 5.75028 25.8977 5.62899 26.1133 5.41337C26.3289 5.19774 26.4502 4.90503 26.4498 4.60014C26.4498 4.347 26.4498 4.27886 27.3889 3.96545C28.267 3.6736 29.8998 3.12872 29.8998 1.15014C29.8998 0.515128 29.3852 0 28.7501 0C28.115 0 27.5999 0.51502 27.5999 1.15014C27.5999 1.40286 27.5999 1.4711 26.6612 1.7844C25.7831 2.07647 24.1499 2.62124 24.1499 4.60014C24.1499 4.90503 24.2708 5.19774 24.4864 5.41337C24.5933 5.52018 24.7201 5.60488 24.8598 5.66262C24.9994 5.72036 25.149 5.75 25.3001 5.74985ZM29.8998 8.05014C29.9001 7.84189 29.8438 7.63747 29.7369 7.45875C29.63 7.28002 29.4766 7.1337 29.2929 7.03543C29.1093 6.93716 28.9025 6.89064 28.6945 6.90083C28.4865 6.91102 28.2852 6.97755 28.112 7.0933L24.662 9.39316C24.5046 9.4983 24.3756 9.6406 24.2863 9.80749C24.1969 9.97438 24.1501 10.1607 24.1499 10.35V16.0998H29.8998V8.05014ZM15.5249 5.74985C15.676 5.75 15.8255 5.72036 15.9651 5.66262C16.1046 5.60488 16.2314 5.52018 16.3382 5.41337C16.5542 5.19774 16.6751 4.90503 16.6751 4.60014C16.6751 4.347 16.6751 4.27886 17.6138 3.96545C18.4919 3.6736 20.1251 3.12872 20.1251 1.15014C20.1251 0.515128 19.6101 0 18.9749 0C18.3398 0 17.8248 0.51502 17.8248 1.15014C17.8248 1.40286 17.8248 1.4711 16.8861 1.7844C16.0079 2.07658 14.3748 2.62124 14.3748 4.60014C14.3748 4.90503 14.4957 5.19774 14.7117 5.41337C14.9273 5.62899 15.2201 5.75028 15.5249 5.74985ZM20.1251 8.05014C20.1253 7.84186 20.069 7.63744 19.962 7.45871C19.8551 7.27998 19.7016 7.13367 19.518 7.03541C19.3343 6.93715 19.1274 6.89063 18.9194 6.90083C18.7114 6.91102 18.5101 6.97755 18.3369 7.0933L14.8869 9.39316C14.7296 9.49843 14.6007 9.64077 14.5114 9.80763C14.4221 9.97448 14.3752 10.1607 14.3748 10.35V16.0998H20.1251V8.05014ZM5.74981 5.74985C5.90084 5.74997 6.05042 5.72031 6.18999 5.66257C6.32955 5.60484 6.45637 5.52017 6.56318 5.41339C6.67 5.30661 6.75472 5.17983 6.81251 5.04028C6.8703 4.90074 6.90001 4.75117 6.89995 4.60014C6.89995 4.347 6.89995 4.27886 7.83868 3.96545C8.71681 3.6736 10.3499 3.12872 10.3499 1.15014C10.3499 0.515128 9.83493 0 9.19981 0C8.56468 0 8.0501 0.51502 8.0501 1.15014C8.0501 1.40286 8.0501 1.4711 7.11094 1.7844C6.23292 2.07658 4.6001 2.62124 4.6001 4.60014C4.59995 4.75116 4.62959 4.90073 4.68733 5.04027C4.74507 5.17982 4.82977 5.30661 4.93658 5.41337C5.15221 5.62899 5.44492 5.75028 5.74981 5.74985ZM10.3499 8.05014C10.3502 7.84186 10.2938 7.63744 10.1869 7.45873C10.0799 7.28003 9.92634 7.13378 9.74264 7.03562C9.55912 6.93738 9.35235 6.89085 9.14444 6.90101C8.93652 6.91117 8.73527 6.97764 8.5622 7.0933L5.11221 9.39316C4.95481 9.4983 4.82574 9.6406 4.73642 9.80749C4.6471 9.97438 4.60028 10.1607 4.6001 10.35V16.0998H10.3499V8.05014Z" fill="#44B859"/>
</g>
</g>
<defs>
<clipPath id="clip0_612_341">
<rect width="46" height="46" fill="white"/>
</clipPath>
</defs>
</svg>
