<svg width="46" height="46" viewBox="0 0 46 46" fill="none" xmlns="http://www.w3.org/2000/svg">
<g id="Frame" clip-path="url(#clip0_612_292)">
<g id="Group">
<g id="02-shop">
<path id="Vector" d="M45.9919 15.3333H0V17.25C0 18.2667 0.403868 19.2417 1.12276 19.9606C1.84165 20.6795 2.81667 21.0833 3.83333 21.0833H9.58333C10.6 21.0833 11.575 20.6795 12.2939 19.9606C13.0128 19.2417 13.4167 18.2667 13.4167 17.25C13.4167 18.2667 13.8205 19.2417 14.5394 19.9606C15.2583 20.6795 16.2333 21.0833 17.25 21.0833H28.75C29.7667 21.0833 30.7417 20.6795 31.4606 19.9606C32.1795 19.2417 32.5833 18.2667 32.5833 17.25C32.5833 18.2667 32.9872 19.2417 33.7061 19.9606C34.425 20.6795 35.4 21.0833 36.4167 21.0833H42.1667C43.1833 21.0833 44.1584 20.6795 44.8772 19.9606C45.5961 19.2417 46 18.2667 46 17.25V15.3333H45.9919ZM45.529 13.4167L42.0929 1.38958C41.9784 0.989205 41.7366 0.637016 41.404 0.386299C41.0715 0.135581 40.6664 -2.3223e-05 40.25 2.98306e-09H31.4712L34.1545 13.4167H45.529ZM14.5288 2.98306e-09H5.75C5.33357 -2.3223e-05 4.92845 0.135581 4.59595 0.386299C4.26345 0.637016 4.02164 0.989205 3.90712 1.38958L0.471021 13.4167H11.8455L14.5288 2.98306e-09ZM27.5621 2.98306e-09H18.4379L15.7545 13.4167H30.2455L27.5621 2.98306e-09ZM36.4167 23C35.0014 23.0012 33.6359 22.4783 32.5833 21.5323C31.5308 22.4783 30.1652 23.0012 28.75 23H17.25C15.8348 23.0012 14.4692 22.4783 13.4167 21.5323C12.3641 22.4783 10.9986 23.0012 9.58333 23H3.83333C3.17996 22.9986 2.53167 22.8852 1.91667 22.6646V44.0833C1.91667 44.5917 2.1186 45.0792 2.47805 45.4386C2.83749 45.7981 3.325 46 3.83333 46H7.66667V28.75C7.66667 28.2417 7.8686 27.7542 8.22805 27.3947C8.58749 27.0353 9.075 26.8333 9.58333 26.8333H19.1667C19.675 26.8333 20.1625 27.0353 20.522 27.3947C20.8814 27.7542 21.0833 28.2417 21.0833 28.75V46H42.1667C42.675 46 43.1625 45.7981 43.522 45.4386C43.8814 45.0792 44.0833 44.5917 44.0833 44.0833V22.6646C43.4683 22.8852 42.82 22.9986 42.1667 23H36.4167ZM38.3333 34.5C38.3333 35.0083 38.1314 35.4958 37.772 35.8553C37.4125 36.2147 36.925 36.4167 36.4167 36.4167H26.8333C26.325 36.4167 25.8375 36.2147 25.478 35.8553C25.1186 35.4958 24.9167 35.0083 24.9167 34.5V28.75C24.9167 28.2417 25.1186 27.7542 25.478 27.3947C25.8375 27.0353 26.325 26.8333 26.8333 26.8333H36.4167C36.925 26.8333 37.4125 27.0353 37.772 27.3947C38.1314 27.7542 38.3333 28.2417 38.3333 28.75V34.5Z" fill="#44B859"/>
</g>
</g>
</g>
<defs>
<clipPath id="clip0_612_292">
<rect width="46" height="46" fill="white"/>
</clipPath>
</defs>
</svg>
