<svg width="46" height="46" viewBox="0 0 46 46" fill="none" xmlns="http://www.w3.org/2000/svg">
<g id="Frame">
<g id="Group">
<path id="Vector" d="M44.6523 35.1289H1.34766C0.603391 35.1289 0 35.7323 0 36.4766C0 38.7095 1.81008 40.5195 4.04297 40.5195H41.957C44.1899 40.5195 46 38.7095 46 36.4766C46 35.7323 45.3966 35.1289 44.6523 35.1289ZM13.5664 12.0095V22.7723C15.0265 22.633 16.5302 22.6876 17.9358 23.0408C19.2795 23.3764 20.6034 24.0015 21.6523 24.5885V14.2705C20.7863 13.6927 19.0071 12.6097 17.283 12.178C15.905 11.8331 14.4877 11.8989 13.5664 12.0095ZM28.717 12.178C26.9838 12.6123 25.2111 13.6927 24.3477 14.2692V24.5884C25.3966 24.0015 26.7205 23.3764 28.0642 23.0407C29.6803 22.6327 31.282 22.6604 32.4336 22.7723V12.0081C31.5149 11.9003 30.1015 11.8331 28.717 12.178Z" fill="#44B859"/>
<path id="Vector_2" d="M43.3047 6.82812C43.3047 6.08323 42.7019 5.48047 41.957 5.48047H4.04297C3.29807 5.48047 2.69531 6.08323 2.69531 6.82812V32.4336H43.3047V6.82812ZM35.1289 24.3477C35.1289 25.2076 34.32 25.8651 33.4575 25.6559C33.4337 25.6493 31.0319 25.0794 28.7169 25.6545C26.3138 26.2559 23.833 28.1024 23.808 28.1208C23.5609 28.3075 23.2677 28.3906 22.9999 28.3906C22.7206 28.3906 22.4335 28.3025 22.1919 28.1222C22.1669 28.1038 19.6729 26.2521 17.2829 25.6545C14.9758 25.0781 12.5674 25.648 12.5451 25.6545C11.6933 25.8661 10.8711 25.2226 10.8711 24.3477V10.8711C10.8712 10.5706 10.9717 10.2787 11.1568 10.0419C11.3418 9.80507 11.6007 9.63694 11.8923 9.56423C12.0174 9.5326 14.9509 8.81403 17.9358 9.56423C19.9717 10.0726 21.9388 11.2351 23 11.9321C24.0612 11.2351 26.0283 10.0726 28.0642 9.56423C31.0504 8.81143 33.9839 9.5326 34.1077 9.56423C34.3993 9.63693 34.6582 9.80505 34.8432 10.0419C35.0283 10.2787 35.1289 10.5706 35.1289 10.8711V24.3477Z" fill="#44B859"/>
</g>
</g>
</svg>
