<svg width="46" height="46" viewBox="0 0 46 46" fill="none" xmlns="http://www.w3.org/2000/svg">
<g id="Frame" clip-path="url(#clip0_612_369)">
<g id="Group">
<g id="Group_2">
<path id="Vector" d="M42.0572 18.0714L37.0465 10.0535C36.4832 11.2826 36.1733 12.6127 36.1355 13.9643V13.9881C36.1326 14.206 36.0432 14.4137 35.8871 14.5657C35.731 14.7177 35.5209 14.8014 35.303 14.7984C35.0852 14.7955 34.8774 14.7061 34.7254 14.55C34.5735 14.3939 34.4898 14.1838 34.4927 13.9659C34.4927 13.6636 34.3925 6.57306 27.913 6.57306H12.1572L19.3447 18.0731L42.0572 18.0714ZM27.6083 34.5C27.8728 34.5 28.1348 34.4573 28.3854 34.3718L39.4287 30.6902V19.7143H23.8215V28.9315C24.5369 29.1215 25.1997 29.4717 25.7598 29.9556C26.3199 30.4394 26.7627 31.0442 27.0547 31.7244C27.438 32.6033 27.4758 33.5944 27.1606 34.5H27.6083ZM31.7762 29.6133L36.1429 28.1577V23.8214C36.1429 23.6036 36.2295 23.3946 36.3835 23.2406C36.5376 23.0865 36.7465 23 36.9644 23C37.1822 23 37.3912 23.0865 37.5452 23.2406C37.6993 23.3946 37.7858 23.6036 37.7858 23.8214V28.75C37.7858 28.9225 37.7316 29.0906 37.6307 29.2305C37.5299 29.3704 37.3876 29.475 37.2239 29.5295L32.2954 31.1724C32.0884 31.2412 31.8626 31.225 31.6675 31.1274C31.4725 31.0297 31.3243 30.8586 31.2554 30.6516C31.1866 30.4446 31.2028 30.2188 31.3005 30.0238C31.3981 29.8287 31.5693 29.6805 31.7762 29.6117V29.6133Z" fill="#44B859"/>
<path id="Vector_2" d="M35.3139 9.88671C35.5841 9.22464 35.9308 8.59707 36.3473 8.01632L36.3604 7.99989C37.0355 7.04989 37.931 6.27785 38.9701 5.75C37.288 4.86267 35.9878 3.39163 35.3139 1.61328C34.64 3.39163 33.3398 4.86267 31.6577 5.75C33.3398 6.63732 34.64 8.10836 35.3139 9.88671Z" fill="#44B859"/>
<path id="Vector_3" d="M4.92857 25.4643H0.821429C0.367766 25.4643 0 25.8321 0 26.2857V43.5357C0 43.9894 0.367766 44.3572 0.821429 44.3572H4.92857C5.38223 44.3572 5.75 43.9894 5.75 43.5357V26.2857C5.75 25.8321 5.38223 25.4643 4.92857 25.4643Z" fill="#44B859"/>
<path id="Vector_4" d="M10.6787 7.30002L3.94629 18.0714H6.93793L12.1745 9.69284L10.6787 7.30002ZM45.7127 31.3712C45.6988 31.352 45.6856 31.3322 45.6732 31.312C45.4889 31.0882 45.2412 30.9254 44.9627 30.8449C44.6841 30.7644 44.3878 30.7701 44.1125 30.8611L28.9144 35.9284C28.4939 36.0713 28.0526 36.1438 27.6084 36.1428H20.3059C19.0084 36.1434 17.7401 36.5275 16.6604 37.2468L16.0656 37.6461C15.9761 37.7062 15.8756 37.7482 15.7698 37.7696C15.6641 37.7909 15.5552 37.7912 15.4493 37.7705C15.3434 37.7497 15.2427 37.7083 15.1528 37.6486C15.0629 37.589 14.9857 37.5122 14.9255 37.4226C14.8653 37.3331 14.8233 37.2326 14.802 37.1268C14.7806 37.0211 14.7803 36.9122 14.8011 36.8063C14.8218 36.7004 14.8632 36.5997 14.9229 36.5098C14.9826 36.4199 15.0594 36.3427 15.1489 36.2825L15.7486 35.88C17.0986 34.9811 18.684 34.501 20.3059 34.5H25.3084C25.5367 34.1967 25.6785 33.8371 25.7188 33.4596C25.759 33.082 25.6961 32.7007 25.5367 32.3561C25.2828 31.7711 24.8631 31.2734 24.3293 30.9244C23.7956 30.5755 23.1713 30.3907 22.5336 30.3928H18.2359C16.3466 30.3904 14.5148 29.748 13.0387 28.5701C11.855 27.6253 10.3861 27.1096 8.87158 27.1071H7.393V43.5357H27.3537C28.2577 43.5359 29.1443 43.2876 29.9166 42.8178L45.3093 33.4453C45.4804 33.3429 45.6279 33.2057 45.7424 33.0425C45.8569 32.8793 45.9357 32.6939 45.9738 32.4982C46.0118 32.3025 46.0082 32.1011 45.9633 31.9069C45.9183 31.7127 45.8329 31.5302 45.7127 31.3712Z" fill="#44B859"/>
<path id="Vector_5" d="M18.1964 19.3282L13.1429 11.2429L8.21436 19.1286V25.4643H8.8715C10.7608 25.4667 12.5926 26.1091 14.0687 27.287C15.2523 28.2318 16.7213 28.7476 18.2358 28.75H22.1786V19.7143H18.8929C18.7536 19.7143 18.6166 19.6788 18.4947 19.6113C18.3729 19.5438 18.2702 19.4464 18.1964 19.3282Z" fill="#44B859"/>
</g>
</g>
</g>
<defs>
<clipPath id="clip0_612_369">
<rect width="46" height="46" fill="white"/>
</clipPath>
</defs>
</svg>
