<svg width="46" height="46" viewBox="0 0 46 46" fill="none" xmlns="http://www.w3.org/2000/svg">
<g id="Frame" clip-path="url(#clip0_612_307)">
<g id="Group">
<path id="Vector" d="M18.0334 20.636H15.3496L14.4907 17.462H17.6036L18.0334 20.636ZM15.7478 22.1698L16.6067 25.3438H18.6623L18.2325 22.1698H15.7478ZM19.5816 20.636H22.3876V17.462H19.1525L19.5816 20.636ZM20.2105 25.3438H22.3883V22.1698H19.7814L20.2105 25.3438ZM23.9214 25.3438H26.1136L26.5434 22.1698H23.9214V25.3438ZM23.9214 20.636H26.7432L27.1723 17.462H23.9214V20.636ZM27.6632 25.3438H28.5523C29.2423 25.3438 29.8554 24.8838 30.0402 24.2089L30.5763 22.1698H28.0772L27.6632 25.3438ZM31.4963 17.462H28.7212L28.2914 20.636H30.9903L31.7422 17.784C31.7529 17.7447 31.7543 17.7035 31.7463 17.6636C31.7383 17.6237 31.7211 17.5862 31.6962 17.554C31.6712 17.5255 31.6405 17.5026 31.6061 17.4867C31.5716 17.4708 31.5342 17.4624 31.4963 17.462ZM20.6245 32.2898C20.6245 32.6125 20.0423 32.6125 20.0423 32.2898C20.045 32.2135 20.0766 32.141 20.1306 32.087C20.1846 32.0329 20.2571 32.0014 20.3334 31.9987C20.4099 32.0014 20.4825 32.0331 20.5365 32.0872C20.5906 32.1414 20.622 32.2133 20.6245 32.2898ZM27.4634 32.2898C27.4634 32.6125 26.8956 32.6125 26.8956 32.2898C26.8956 32.1367 27.0192 31.9987 27.1874 31.9987C27.3412 31.9987 27.4634 32.136 27.4634 32.2898ZM27.4634 32.2898C27.4634 32.6125 26.8956 32.6125 26.8956 32.2898C26.8956 32.1367 27.0192 31.9987 27.1874 31.9987C27.3412 31.9987 27.4634 32.136 27.4634 32.2898ZM20.6245 32.2898C20.6245 32.6125 20.0423 32.6125 20.0423 32.2898C20.045 32.2135 20.0766 32.141 20.1306 32.087C20.1846 32.0329 20.2571 32.0014 20.3334 31.9987C20.4099 32.0014 20.4825 32.0331 20.5365 32.0872C20.5906 32.1414 20.622 32.2133 20.6245 32.2898ZM20.6245 32.2898C20.6245 32.6125 20.0423 32.6125 20.0423 32.2898C20.045 32.2135 20.0766 32.141 20.1306 32.087C20.1846 32.0329 20.2571 32.0014 20.3334 31.9987C20.4099 32.0014 20.4825 32.0331 20.5365 32.0872C20.5906 32.1414 20.622 32.2133 20.6245 32.2898ZM27.4634 32.2898C27.4634 32.6125 26.8956 32.6125 26.8956 32.2898C26.8956 32.1367 27.0192 31.9987 27.1874 31.9987C27.3412 31.9987 27.4634 32.136 27.4634 32.2898ZM27.4634 32.2898C27.4634 32.6125 26.8956 32.6125 26.8956 32.2898C26.8956 32.1367 27.0192 31.9987 27.1874 31.9987C27.3412 31.9987 27.4634 32.136 27.4634 32.2898ZM20.6245 32.2898C20.6245 32.6125 20.0423 32.6125 20.0423 32.2898C20.045 32.2135 20.0766 32.141 20.1306 32.087C20.1846 32.0329 20.2571 32.0014 20.3334 31.9987C20.4099 32.0014 20.4825 32.0331 20.5365 32.0872C20.5906 32.1414 20.622 32.2133 20.6245 32.2898ZM20.6245 32.2898C20.6245 32.6125 20.0423 32.6125 20.0423 32.2898C20.045 32.2135 20.0766 32.141 20.1306 32.087C20.1846 32.0329 20.2571 32.0014 20.3334 31.9987C20.4099 32.0014 20.4825 32.0331 20.5365 32.0872C20.5906 32.1414 20.622 32.2133 20.6245 32.2898ZM27.4634 32.2898C27.4634 32.6125 26.8956 32.6125 26.8956 32.2898C26.8956 32.1367 27.0192 31.9987 27.1874 31.9987C27.3412 31.9987 27.4634 32.136 27.4634 32.2898ZM27.4634 32.2898C27.4634 32.6125 26.8956 32.6125 26.8956 32.2898C26.8956 32.1367 27.0192 31.9987 27.1874 31.9987C27.3412 31.9987 27.4634 32.136 27.4634 32.2898ZM20.6245 32.2898C20.6245 32.6125 20.0423 32.6125 20.0423 32.2898C20.045 32.2135 20.0766 32.141 20.1306 32.087C20.1846 32.0329 20.2571 32.0014 20.3334 31.9987C20.4099 32.0014 20.4825 32.0331 20.5365 32.0872C20.5906 32.1414 20.622 32.2133 20.6245 32.2898ZM20.6245 32.2898C20.6245 32.6125 20.0423 32.6125 20.0423 32.2898C20.045 32.2135 20.0766 32.141 20.1306 32.087C20.1846 32.0329 20.2571 32.0014 20.3334 31.9987C20.4099 32.0014 20.4825 32.0331 20.5365 32.0872C20.5906 32.1414 20.622 32.2133 20.6245 32.2898ZM27.4634 32.2898C27.4634 32.6125 26.8956 32.6125 26.8956 32.2898C26.8956 32.1367 27.0192 31.9987 27.1874 31.9987C27.3412 31.9987 27.4634 32.136 27.4634 32.2898ZM27.4634 32.2898C27.4634 32.6125 26.8956 32.6125 26.8956 32.2898C26.8956 32.1367 27.0192 31.9987 27.1874 31.9987C27.3412 31.9987 27.4634 32.136 27.4634 32.2898ZM20.6245 32.2898C20.6245 32.6125 20.0423 32.6125 20.0423 32.2898C20.045 32.2135 20.0766 32.141 20.1306 32.087C20.1846 32.0329 20.2571 32.0014 20.3334 31.9987C20.4099 32.0014 20.4825 32.0331 20.5365 32.0872C20.5906 32.1414 20.622 32.2133 20.6245 32.2898ZM43.1049 7.93929V33.5325L38.6882 29.8065C38.2658 29.4551 37.7353 29.2599 37.186 29.2538C36.8778 29.2537 36.5726 29.3144 36.2878 29.4323C36.003 29.5502 35.7443 29.723 35.5264 29.941C35.3084 30.1589 35.1356 30.4176 35.0177 30.7024C34.8998 30.9871 34.8392 31.2923 34.8392 31.6005V38.4394H3.41981C2.51306 38.4387 1.64366 38.0781 1.00248 37.437C0.361306 36.7958 0.000761341 35.9264 0 35.0196L0 7.93929H43.1049ZM22.1583 32.2905C22.1572 31.8068 21.9645 31.3432 21.6223 31.0011C21.2802 30.6591 20.8165 30.4666 20.3327 30.4656C19.8492 30.467 19.3859 30.6597 19.044 31.0017C18.7022 31.3436 18.5097 31.807 18.5085 32.2905C18.5078 32.5304 18.5545 32.7681 18.6459 32.9898C18.7373 33.2116 18.8717 33.413 19.0413 33.5826C19.2109 33.7523 19.4124 33.8866 19.6342 33.9781C19.8559 34.0695 20.0936 34.1162 20.3334 34.1154C20.5734 34.1162 20.8111 34.0695 21.0329 33.978C21.2547 33.8865 21.4562 33.7521 21.6258 33.5824C21.7954 33.4127 21.9298 33.2111 22.0212 32.9893C22.1126 32.7675 22.1592 32.5305 22.1583 32.2905ZM28.9973 32.2905C28.9973 31.2936 28.1843 30.4656 27.1874 30.4656C26.7038 30.4668 26.2403 30.6594 25.8983 31.0014C25.5563 31.3434 25.3637 31.8069 25.3625 32.2905C25.3618 32.5305 25.4085 32.7682 25.5 32.99C25.5914 33.2118 25.7259 33.4133 25.8956 33.5829C26.0653 33.7525 26.2668 33.8869 26.4887 33.9783C26.7105 34.0697 26.9482 34.1163 27.1882 34.1154C27.4269 34.1145 27.663 34.0665 27.8832 33.9742C28.1033 33.882 28.3031 33.7472 28.4711 33.5776C28.6391 33.4081 28.7721 33.2071 28.8624 32.9861C28.9526 32.7651 28.9985 32.5292 28.9973 32.2905ZM32.9223 16.634C32.5702 16.1891 32.0642 15.9289 31.4963 15.9289H14.0767L13.6318 14.2269C13.5177 13.8068 13.268 13.4362 12.9214 13.1727C12.5749 12.9092 12.151 12.7676 11.7156 12.77H10.58C10.1509 12.77 9.81381 13.1078 9.81381 13.5362C9.81381 13.966 10.1516 14.3031 10.5807 14.3031H11.7156C11.8124 14.3029 11.9066 14.3342 11.9841 14.3923C12.0615 14.4504 12.1179 14.5321 12.1447 14.6251L15.8096 28.3187C16.0705 29.3307 16.9905 30.0207 18.0327 30.0207H30.3162C30.7453 30.0207 31.0823 29.6829 31.0823 29.2538C31.0816 29.0509 31.0006 28.8564 30.8571 28.7129C30.7136 28.5694 30.5191 28.4884 30.3162 28.4876H18.0327C17.6805 28.4876 17.3736 28.2576 17.2816 27.9198L17.0056 26.8776H28.5523C29.2265 26.8769 29.8817 26.6542 30.4166 26.244C30.9516 25.8337 31.3366 25.2587 31.5122 24.6078L33.2292 18.1678C33.2994 17.9058 33.3083 17.6311 33.255 17.3651C33.2018 17.099 33.088 16.8489 32.9223 16.634ZM27.4634 32.2898C27.4634 32.6125 26.8956 32.6125 26.8956 32.2898C26.8956 32.136 27.0192 31.9987 27.1874 31.9987C27.3412 31.9987 27.4634 32.136 27.4634 32.2898ZM20.6245 32.2898C20.6245 32.6125 20.0423 32.6125 20.0423 32.2898C20.045 32.2135 20.0766 32.141 20.1306 32.087C20.1846 32.0329 20.2571 32.0014 20.3334 31.9987C20.4099 32.0014 20.4825 32.0331 20.5365 32.0872C20.5906 32.1414 20.622 32.2133 20.6245 32.2898ZM20.6245 32.2898C20.6245 32.6125 20.0423 32.6125 20.0423 32.2898C20.045 32.2135 20.0766 32.141 20.1306 32.087C20.1846 32.0329 20.2571 32.0014 20.3334 31.9987C20.4099 32.0014 20.4825 32.0331 20.5365 32.0872C20.5906 32.1414 20.622 32.2133 20.6245 32.2898ZM27.4634 32.2898C27.4634 32.6125 26.8956 32.6125 26.8956 32.2898C26.8956 32.136 27.0192 31.9987 27.1874 31.9987C27.3412 31.9987 27.4634 32.136 27.4634 32.2898ZM27.4634 32.2898C27.4634 32.6125 26.8956 32.6125 26.8956 32.2898C26.8956 32.136 27.0192 31.9987 27.1874 31.9987C27.3412 31.9987 27.4634 32.136 27.4634 32.2898ZM20.6245 32.2898C20.6245 32.6125 20.0423 32.6125 20.0423 32.2898C20.045 32.2135 20.0766 32.141 20.1306 32.087C20.1846 32.0329 20.2571 32.0014 20.3334 31.9987C20.4099 32.0014 20.4825 32.0331 20.5365 32.0872C20.5906 32.1414 20.622 32.2133 20.6245 32.2898ZM20.6245 32.2898C20.6245 32.6125 20.0423 32.6125 20.0423 32.2898C20.045 32.2135 20.0766 32.141 20.1306 32.087C20.1846 32.0329 20.2571 32.0014 20.3334 31.9987C20.4099 32.0014 20.4825 32.0331 20.5365 32.0872C20.5906 32.1414 20.622 32.2133 20.6245 32.2898ZM27.4634 32.2898C27.4634 32.6125 26.8956 32.6125 26.8956 32.2898C26.8956 32.136 27.0192 31.9987 27.1874 31.9987C27.3412 31.9987 27.4634 32.136 27.4634 32.2898ZM27.4634 32.2898C27.4634 32.6125 26.8956 32.6125 26.8956 32.2898C26.8956 32.136 27.0192 31.9987 27.1874 31.9987C27.3412 31.9987 27.4634 32.136 27.4634 32.2898ZM20.6245 32.2898C20.6245 32.6125 20.0423 32.6125 20.0423 32.2898C20.045 32.2135 20.0766 32.141 20.1306 32.087C20.1846 32.0329 20.2571 32.0014 20.3334 31.9987C20.4099 32.0014 20.4825 32.0331 20.5365 32.0872C20.5906 32.1414 20.622 32.2133 20.6245 32.2898ZM20.6245 32.2898C20.6245 32.6125 20.0423 32.6125 20.0423 32.2898C20.045 32.2135 20.0766 32.141 20.1306 32.087C20.1846 32.0329 20.2571 32.0014 20.3334 31.9987C20.4099 32.0014 20.4825 32.0331 20.5365 32.0872C20.5906 32.1414 20.622 32.2133 20.6245 32.2898ZM27.4634 32.2898C27.4634 32.6125 26.8956 32.6125 26.8956 32.2898C26.8956 32.136 27.0192 31.9987 27.1874 31.9987C27.3412 31.9987 27.4634 32.136 27.4634 32.2898ZM43.1049 5.07148V6.4062H0V5.0722C0 3.1862 1.53309 1.66748 3.41981 1.66748H39.6851C41.5711 1.66748 43.1049 3.18548 43.1049 5.07148ZM12.2216 4.41311C12.2216 4.0142 11.8996 3.6922 11.5007 3.6922H3.61891C3.42781 3.6922 3.24453 3.76811 3.1094 3.90324C2.97427 4.03837 2.89836 4.22165 2.89836 4.41275C2.89836 4.60385 2.97427 4.78712 3.1094 4.92225C3.24453 5.05738 3.42781 5.13329 3.61891 5.13329H11.5C11.8989 5.13329 12.2216 4.81129 12.2216 4.41311ZM33.8732 4.41311C33.8727 4.20988 33.7917 4.01515 33.648 3.87145C33.5043 3.72775 33.3096 3.64677 33.1063 3.6462C32.6923 3.6462 32.3402 3.99839 32.3402 4.41311C32.3402 4.8422 32.6923 5.17929 33.1063 5.17929C33.5362 5.17929 33.8732 4.84148 33.8732 4.41311ZM37.0472 4.41311C37.0472 3.99839 36.6951 3.6462 36.2811 3.6462C36.0777 3.64658 35.8828 3.72748 35.7389 3.8712C35.5951 4.01492 35.514 4.20976 35.5134 4.41311C35.5134 4.8422 35.8513 5.17929 36.2803 5.17929C36.4833 5.17854 36.6778 5.09757 36.8213 4.95405C36.9648 4.81052 37.0465 4.61608 37.0472 4.41311ZM40.2062 4.41311C40.2056 4.21001 40.1247 4.01538 39.9812 3.8717C39.8376 3.72802 39.6431 3.64696 39.44 3.6462C39.2367 3.64677 39.042 3.72775 38.8983 3.87145C38.7546 4.01515 38.6736 4.20988 38.6731 4.41311C38.6731 4.8422 39.0109 5.17929 39.44 5.17929C39.8691 5.17929 40.2062 4.84148 40.2062 4.41311ZM27.4634 32.2898C27.4634 32.6125 26.8956 32.6125 26.8956 32.2898C26.8956 32.136 27.0192 31.9987 27.1874 31.9987C27.3412 31.9987 27.4634 32.136 27.4634 32.2898ZM20.6245 32.2898C20.6245 32.6125 20.0423 32.6125 20.0423 32.2898C20.045 32.2135 20.0766 32.141 20.1306 32.087C20.1846 32.0329 20.2571 32.0014 20.3334 31.9987C20.4099 32.0014 20.4825 32.0331 20.5365 32.0872C20.5906 32.1414 20.622 32.2133 20.6245 32.2898ZM20.6245 32.2898C20.6245 32.6125 20.0423 32.6125 20.0423 32.2898C20.045 32.2135 20.0766 32.141 20.1306 32.087C20.1846 32.0329 20.2571 32.0014 20.3334 31.9987C20.4099 32.0014 20.4825 32.0331 20.5365 32.0872C20.5906 32.1414 20.622 32.2133 20.6245 32.2898ZM20.6245 32.2898C20.6245 32.6125 20.0423 32.6125 20.0423 32.2898C20.045 32.2135 20.0766 32.141 20.1306 32.087C20.1846 32.0329 20.2571 32.0014 20.3334 31.9987C20.4099 32.0014 20.4825 32.0331 20.5365 32.0872C20.5906 32.1414 20.622 32.2133 20.6245 32.2898ZM45.7118 37.7387L37.697 30.981C37.1716 30.5382 36.368 30.912 36.368 31.5991L36.3709 42.0828C36.3709 42.7685 37.1702 43.1429 37.6977 42.7052L39.8985 40.8753L41.1175 43.4973C41.2789 43.8442 41.5715 44.1129 41.9309 44.2441C42.2903 44.3753 42.6871 44.3584 43.0341 44.197C43.381 44.0356 43.6496 43.7431 43.7809 43.3836C43.9121 43.0242 43.8951 42.6274 43.7338 42.2804L42.5155 39.6592L45.333 39.1546C46.0072 39.0339 46.2357 38.1814 45.7118 37.7387Z" fill="#44B859"/>
</g>
</g>
<defs>
<clipPath id="clip0_612_307">
<rect width="46" height="46" fill="white"/>
</clipPath>
</defs>
</svg>
