<svg width="46" height="46" viewBox="0 0 46 46" fill="none" xmlns="http://www.w3.org/2000/svg">
<g id="Frame" clip-path="url(#clip0_612_391)">
<g id="Group">
<path id="Vector" d="M9.79663 7.61523C9.6851 7.57837 9.57405 7.57837 9.46299 7.57837C8.94409 7.57837 8.49985 7.91192 8.35146 8.43044C8.27736 8.72685 8.3146 9.02344 8.46261 9.28261C8.61082 9.54197 8.87036 9.72722 9.16658 9.83837C9.79663 10.0236 10.4262 9.65312 10.6115 9.06031C10.6856 8.76409 10.6487 8.46768 10.5003 8.20832C10.3524 7.91192 10.0929 7.72666 9.79663 7.61523ZM16.0579 13.0249C17.0953 13.0249 18.0957 12.7655 18.9851 12.2466C19.3556 12.0245 19.8002 12.1355 20.0225 12.506C20.2447 12.8765 20.1335 13.3211 19.763 13.5434C18.6515 14.2105 17.3547 14.5438 16.0579 14.5438C15.8358 14.5438 15.6133 14.5438 15.3911 14.507" fill="#44B859"/>
<path id="Vector_2" d="M12.5383 11.8392C13.5019 12.5802 14.6872 12.9876 15.9102 13.0248C16.7623 9.31976 14.502 5.54058 10.76 4.50316C10.3894 4.3921 10.0189 4.35486 9.68539 4.28067L10.9083 4.79957C10.6858 5.24417 10.5378 5.72583 10.4263 6.24464C11.0563 6.46685 11.5752 6.87422 11.9083 7.46731C12.242 8.09717 12.353 8.80095 12.1678 9.46777C11.8346 10.6535 10.76 11.3945 9.57423 11.3945C9.35212 11.3945 9.09267 11.3576 8.83322 11.2834C8.12953 11.0981 7.57377 10.6535 7.20326 10.0236C6.86962 9.39395 6.75856 8.6898 6.94382 8.02307C7.20317 7.05948 7.98124 6.39265 8.87046 6.17054C8.98161 5.50362 9.16686 4.87376 9.46327 4.2438C7.98124 4.09542 6.53598 4.3921 5.20243 5.13311C3.4981 6.09634 2.27524 7.61524 1.71947 9.5051C0.867307 12.358 1.79358 15.3221 4.01662 17.1005C4.12777 17.2116 4.16501 17.3599 4.12777 17.471L2.64574 23.1397C2.64574 23.2507 2.64574 23.3249 2.68298 23.399L3.53515 25.3258C3.60925 25.511 3.53515 25.6963 3.38676 25.8074L1.97883 26.7337C1.8309 26.8448 1.75671 27.03 1.8309 27.2153L2.53459 28.6973C2.60879 28.8826 2.57192 29.0678 2.38667 29.1789L1.0157 30.0683C0.867307 30.1793 0.793113 30.3646 0.867307 30.5498L1.57146 32.0319C1.64556 32.2171 1.57146 32.4392 1.42307 32.5134L0.200486 33.1804C0.0152319 33.2917 -0.0588696 33.5138 0.0520974 33.6991L1.42307 36.1816C1.4604 36.2557 1.57146 36.3296 1.64565 36.3669H1.75671C1.83081 36.3669 1.90464 36.3669 1.94196 36.3296L4.79487 34.6623C4.8687 34.6254 4.94289 34.5512 4.98013 34.4402L9.38898 19.2862C9.42631 19.1383 9.53737 19.0271 9.68539 19.0271C12.0567 18.6936 14.2429 16.9153 15.3171 14.5438C13.9462 14.4327 12.6125 13.914 11.501 13.0618C11.1673 12.8024 11.0936 12.3208 11.3526 11.9875C11.7231 11.654 12.2051 11.5798 12.5383 11.8392Z" fill="#44B859"/>
<path id="Vector_3" d="M9.42627 4.20694C10.6115 1.76122 13.1682 0.0570679 16.0581 0.0570679C19.4668 0.0570679 22.4679 2.46537 23.2089 5.72574C23.283 6.13311 23.0236 6.54086 22.6162 6.61505C22.2088 6.68888 21.801 6.4298 21.6899 6.02206C21.0973 3.4285 18.7258 1.5391 16.0211 1.5391C13.7609 1.5391 11.7603 2.83588 10.7969 4.76251" fill="#44B859"/>
<path id="Vector_4" d="M45.773 19.842L32.7684 6.98575C32.4716 6.68906 31.6569 6.02224 30.6933 5.98537L22.2828 5.20703H22.0237C21.1343 5.20703 20.3933 5.54067 19.7264 6.20749C19.0223 6.91164 18.7261 7.65266 18.7261 8.6899V8.76418L19.4671 17.1006C19.4671 18.0637 20.1711 18.842 20.4675 19.1384L33.4721 31.995C33.6205 32.143 33.8057 32.2172 34.0279 32.2172C34.2504 32.2172 34.4357 32.143 34.5836 31.995L45.81 20.9167C46.0693 20.6203 46.0693 20.1387 45.773 19.842ZM28.248 18.953C28.0628 18.953 27.8403 18.8789 27.6923 18.7305C27.396 18.4342 27.396 17.9526 27.6923 17.6563L31.3973 13.9881C31.6937 13.6917 32.1754 13.6917 32.4716 13.9881C32.7684 14.2845 32.7684 14.7663 32.4716 15.0627L28.7666 18.7305C28.6186 18.8789 28.4334 18.953 28.2481 18.953H28.248ZM36.8068 19.3236L33.1017 22.9913C32.9537 23.1397 32.7684 23.2139 32.5459 23.2139C32.3236 23.2139 32.1384 23.1397 31.9902 22.9913C31.6937 22.695 31.6937 22.2134 31.9902 21.9171L35.6952 18.2489C35.9915 17.9525 36.4735 17.9525 36.7697 18.2489C37.103 18.5453 37.103 19.0272 36.8068 19.3236Z" fill="#44B859"/>
</g>
</g>
<defs>
<clipPath id="clip0_612_391">
<rect width="46" height="46" fill="white"/>
</clipPath>
</defs>
</svg>
