<svg width="46" height="46" viewBox="0 0 46 46" fill="none" xmlns="http://www.w3.org/2000/svg">
<g id="Frame" clip-path="url(#clip0_612_283)">
<g id="Group">
<path id="Vector" d="M20.8501 35.9973H30.3286V39.4653H20.8501V35.9973ZM40.7942 2.99628H36.4128V7.02855L40.7942 10.3418V2.99628Z" fill="#44B859"/>
<path id="Vector_2" d="M3.5249 22.6145V45.7395H12.0679V39.4652H18.1548V33.302H24.2417V27.0706H30.3286V20.8733H39.7393L22.9914 8.30151L3.5249 22.6145Z" fill="#44B859"/>
<path id="Vector_3" d="M14.7634 42.1605H24.2419V45.7394H14.7634V42.1605ZM26.9372 42.1605H36.4157V45.7394H26.9372V42.1605ZM0 17.4142V20.1926H2.26909L23.0084 4.94381L43.3224 20.1926H46V17.6576L22.9944 0.260437L0 17.4142ZM39.111 42.1605H42.4748V45.7394H39.111V42.1605ZM33.0241 23.5687H42.4748V27.0707H33.0241V23.5687ZM26.9372 29.7659H36.4157V33.3019H26.9372V29.7659ZM33.0241 35.9973H42.4748V39.4653H33.0241V35.9973ZM39.111 29.7659H42.4748V33.3019H39.111V29.7659Z" fill="#44B859"/>
</g>
</g>
<defs>
<clipPath id="clip0_612_283">
<rect width="46" height="46" fill="white"/>
</clipPath>
</defs>
</svg>
