<svg width="50" height="50" viewBox="0 0 50 50" fill="none" xmlns="http://www.w3.org/2000/svg">
<g id="Frame">
<g id="Group">
<path id="Vector" d="M37.3535 41.1133H6.20117C5.48892 41.1133 4.80584 41.3962 4.3022 41.8999C3.79857 42.4035 3.51562 43.0866 3.51562 43.7988C3.51562 44.5111 3.79857 45.1942 4.3022 45.6978C4.80584 46.2014 5.48892 46.4844 6.20117 46.4844H37.3535C38.0658 46.4844 38.7488 46.2014 39.2525 45.6978C39.7561 45.1942 40.0391 44.5111 40.0391 43.7988C40.0391 43.0866 39.7561 42.4035 39.2525 41.8999C38.7488 41.3962 38.0658 41.1133 37.3535 41.1133ZM37.3535 38.9648C37.5335 38.9727 37.7128 38.9909 37.8906 39.0195V28.7227C37.7021 28.8008 37.5176 28.8896 37.3252 28.958V29.665C37.3242 30.4214 37.0234 31.1466 36.4887 31.6816C35.954 32.2167 35.2291 32.518 34.4727 32.5195H31.6406C30.8839 32.5185 30.1584 32.2174 29.6233 31.6823C29.0882 31.1472 28.7872 30.4218 28.7861 29.665V28.958C28.3752 28.8121 27.9723 28.6445 27.5791 28.4561L27.0781 28.957C26.813 29.2223 26.4981 29.4327 26.1516 29.5763C25.8051 29.7199 25.4337 29.7938 25.0586 29.7938C24.6835 29.7938 24.3121 29.7199 23.9656 29.5763C23.6191 29.4327 23.3042 29.2223 23.0391 28.957L21.0439 26.9531C20.7785 26.6882 20.5678 26.3735 20.4241 26.027C20.2804 25.6805 20.2065 25.3092 20.2065 24.9341C20.2065 24.559 20.2804 24.1876 20.4241 23.8412C20.5678 23.4947 20.7785 23.18 21.0439 22.915L21.543 22.415C21.3547 22.0217 21.1872 21.6188 21.041 21.208H20.334C19.8056 21.2056 19.2883 21.0563 18.8399 20.7767C18.3915 20.4972 18.0297 20.0984 17.7949 19.625H7.8125C7.2427 19.625 6.69624 19.8514 6.29333 20.2543C5.89041 20.6572 5.66406 21.2036 5.66406 21.7734V39.0195C5.84189 38.9909 6.02123 38.9727 6.20117 38.9648H37.3535Z" fill="#44B859"/>
<path id="Vector_2" d="M45.7773 14.8232H43.8594C43.7396 14.8225 43.6236 14.7813 43.5301 14.7063C43.4367 14.6313 43.3714 14.527 43.3447 14.4102C43.0895 13.37 42.6772 12.3749 42.1221 11.459C42.0586 11.3576 42.0312 11.2377 42.0443 11.1188C42.0574 10.9999 42.1103 10.8888 42.1943 10.8037L43.5547 9.44727C43.6204 9.38176 43.6726 9.30391 43.7082 9.21819C43.7438 9.13248 43.7621 9.04057 43.7621 8.94775C43.7621 8.85494 43.7438 8.76303 43.7082 8.67731C43.6726 8.5916 43.6204 8.51375 43.5547 8.44824L41.5518 6.44531C41.4862 6.37956 41.4084 6.32738 41.3227 6.29178C41.237 6.25618 41.1451 6.23785 41.0522 6.23785C40.9594 6.23785 40.8675 6.25618 40.7818 6.29178C40.6961 6.32738 40.6182 6.37956 40.5527 6.44531L39.1943 7.8125C39.1092 7.89658 38.9982 7.94945 38.8793 7.96257C38.7603 7.97568 38.6405 7.94827 38.5391 7.88477C37.6242 7.32627 36.6293 6.91099 35.5889 6.65332C35.4723 6.62633 35.3683 6.56086 35.2935 6.46749C35.2188 6.37412 35.1776 6.25829 35.1768 6.13867V4.22266C35.1768 4.03565 35.1027 3.85625 34.9707 3.72374C34.8387 3.59123 34.6597 3.5164 34.4727 3.51562H31.6406C31.4531 3.51563 31.2733 3.59012 31.1407 3.72271C31.0081 3.8553 30.9336 4.03514 30.9336 4.22266V6.13379C30.9329 6.25333 30.8917 6.36911 30.8169 6.46235C30.7421 6.55559 30.638 6.62083 30.5215 6.64746C29.48 6.9041 28.4838 7.31839 27.5674 7.87598C27.466 7.9397 27.346 7.96716 27.2269 7.95385C27.1079 7.94055 26.9969 7.88728 26.9121 7.80273L25.5605 6.44531C25.495 6.37956 25.4172 6.32738 25.3315 6.29178C25.2458 6.25618 25.1539 6.23785 25.061 6.23785C24.9682 6.23785 24.8763 6.25618 24.7906 6.29178C24.7049 6.32738 24.627 6.37956 24.5615 6.44531L22.5586 8.44824C22.4928 8.51375 22.4407 8.5916 22.4051 8.67731C22.3695 8.76303 22.3511 8.85494 22.3511 8.94775C22.3511 9.04057 22.3695 9.13248 22.4051 9.21819C22.4407 9.30391 22.4928 9.38176 22.5586 9.44727L23.9131 10.8018C23.9972 10.8869 24.05 10.9979 24.0632 11.1168C24.0763 11.2358 24.0489 11.3556 23.9854 11.457C23.4307 12.3741 23.0188 13.3702 22.7637 14.4111C22.737 14.5277 22.6718 14.6318 22.5786 14.7066C22.4853 14.7814 22.3695 14.8225 22.25 14.8232H20.3359C20.1489 14.8232 19.9695 14.8973 19.837 15.0293C19.7045 15.1613 19.6297 15.3403 19.6289 15.5273V18.3594C19.6289 18.4522 19.6472 18.5442 19.6827 18.6299C19.7183 18.7157 19.7703 18.7937 19.836 18.8593C19.9016 18.925 19.9796 18.9771 20.0654 19.0126C20.1511 19.0481 20.2431 19.0664 20.3359 19.0664H22.2471C22.3666 19.0671 22.4824 19.1082 22.5756 19.1831C22.6689 19.2579 22.7341 19.362 22.7607 19.4785C23.0174 20.52 23.4317 21.5162 23.9893 22.4326C24.0528 22.534 24.0802 22.6539 24.0671 22.7728C24.0539 22.8917 24.0011 23.0028 23.917 23.0879L22.5586 24.4395C22.4928 24.505 22.4407 24.5828 22.4051 24.6685C22.3695 24.7542 22.3511 24.8461 22.3511 24.939C22.3511 25.0318 22.3695 25.1237 22.4051 25.2094C22.4407 25.2951 22.4928 25.373 22.5586 25.4385L24.5615 27.4414C24.627 27.5072 24.7049 27.5593 24.7906 27.5949C24.8763 27.6305 24.9682 27.6489 25.061 27.6489C25.1539 27.6489 25.2458 27.6305 25.3315 27.5949C25.4172 27.5593 25.495 27.5072 25.5605 27.4414L26.915 26.0869C27.0002 26.0028 27.1112 25.95 27.2301 25.9368C27.349 25.9237 27.4689 25.9511 27.5703 26.0147C28.4867 26.5722 29.4829 26.9865 30.5244 27.2432C30.641 27.2698 30.7451 27.335 30.8199 27.4283C30.8947 27.5215 30.9358 27.6373 30.9365 27.7568V29.668C30.9376 29.8543 31.0121 30.0327 31.1439 30.1644C31.2758 30.296 31.4543 30.3703 31.6406 30.3711H34.4727C34.6602 30.3711 34.84 30.2966 34.9726 30.164C35.1052 30.0314 35.1797 29.8516 35.1797 29.6641V27.7529C35.1804 27.6334 35.2215 27.5176 35.2963 27.4244C35.3711 27.3311 35.4753 27.2659 35.5918 27.2393C36.6333 26.9826 37.6295 26.5683 38.5459 26.0107C38.6473 25.9472 38.7672 25.9198 38.8861 25.9329C39.005 25.9461 39.116 25.9989 39.2012 26.083L40.5527 27.4414C40.6182 27.5072 40.6961 27.5593 40.7818 27.5949C40.8675 27.6305 40.9594 27.6489 41.0522 27.6489C41.1451 27.6489 41.237 27.6305 41.3227 27.5949C41.4084 27.5593 41.4862 27.5072 41.5518 27.4414L43.5547 25.4385C43.6204 25.373 43.6726 25.2951 43.7082 25.2094C43.7438 25.1237 43.7621 25.0318 43.7621 24.939C43.7621 24.8461 43.7438 24.7542 43.7082 24.6685C43.6726 24.5828 43.6204 24.505 43.5547 24.4395L42.2002 23.085C42.1161 22.9998 42.0632 22.8888 42.0501 22.7699C42.037 22.651 42.0644 22.5311 42.1279 22.4297C42.6855 21.5133 43.0998 20.5171 43.3564 19.4756C43.3831 19.359 43.4483 19.2549 43.5416 19.1801C43.6348 19.1053 43.7506 19.0642 43.8701 19.0635H45.7812C45.9676 19.0624 46.146 18.9879 46.2776 18.8561C46.4093 18.7242 46.4836 18.5457 46.4844 18.3594V15.5273C46.4836 15.3403 46.4088 15.1613 46.2763 15.0293C46.1437 14.8973 45.9644 14.8232 45.7773 14.8232ZM33.0566 22.8516C31.8881 22.8516 30.7458 22.5051 29.7742 21.8559C28.8026 21.2066 28.0454 20.2839 27.5982 19.2043C27.151 18.1247 27.034 16.9368 27.262 15.7907C27.4899 14.6446 28.0526 13.5919 28.8789 12.7656C29.7052 11.9394 30.7579 11.3766 31.904 11.1487C33.0501 10.9207 34.238 11.0377 35.3176 11.4849C36.3972 11.9321 37.3199 12.6893 37.9691 13.6609C38.6183 14.6325 38.9648 15.7748 38.9648 16.9434C38.9648 18.5103 38.3424 20.0131 37.2344 21.1211C36.1264 22.2291 34.6236 22.8516 33.0566 22.8516Z" fill="#44B859"/>
</g>
</g>
</svg>
