<svg width="46" height="46" viewBox="0 0 46 46" fill="none" xmlns="http://www.w3.org/2000/svg">
<g id="Frame">
<g id="Group">
<g id="Layer 3">
<path id="Vector" d="M6.18106 16.6463C6.62752 17.6847 7.37016 18.5685 8.31614 19.1872C9.26212 19.806 10.3695 20.1321 11.4998 20.125H17.8248L14.5617 26.6656C14.4524 26.8823 14.3998 27.1231 14.4087 27.3656C14.4176 27.6081 14.4877 27.8444 14.6126 28.0525C14.7374 28.2606 14.9129 28.4336 15.1227 28.5556C15.3325 28.6776 15.5697 28.7445 15.8123 28.75H20.1248C20.314 28.7511 20.5015 28.7148 20.6767 28.6433C20.8518 28.5718 21.0111 28.4664 21.1454 28.3331L29.3392 20.125H40.2498C41.0123 20.125 41.7436 19.8221 42.2827 19.2829C42.8219 18.7438 43.1248 18.0125 43.1248 17.25C43.1248 15.725 42.519 14.2625 41.4407 13.1842C40.3623 12.1058 38.8998 11.5 37.3748 11.5H13.7136L11.6867 8.46689C11.4232 8.07204 11.0661 7.74856 10.6473 7.52531C10.2284 7.30207 9.76072 7.18602 9.28606 7.18751H4.31231C4.07504 7.18771 3.84151 7.24663 3.63256 7.35901C3.4236 7.4714 3.24571 7.63376 3.11476 7.83162C2.98381 8.02947 2.90386 8.25666 2.88206 8.49292C2.86026 8.72918 2.89727 8.96716 2.98981 9.18564L6.18106 16.6463Z" fill="#44B859"/>
<path id="Vector_2" d="M34.5 28.75H24.7825L23.1725 30.36C22.3645 31.169 21.2684 31.624 20.125 31.625H15.8125C15.0783 31.6249 14.3562 31.4374 13.7147 31.0802C13.0732 30.723 12.5336 30.2079 12.1469 29.5837C11.996 29.3184 11.8708 29.0392 11.7731 28.75H2.875V43.125H37.375C38.9 43.125 40.3625 42.5192 41.4409 41.4409C42.5192 40.3625 43.125 38.9 43.125 37.375C43.125 35.0875 42.2163 32.8937 40.5988 31.2762C38.9813 29.6587 36.7875 28.75 34.5 28.75ZM7.1875 37.375C6.80625 37.375 6.44062 37.2235 6.17103 36.954C5.90145 36.6844 5.75 36.3187 5.75 35.9375C5.75 35.5563 5.90145 35.1906 6.17103 34.921C6.44062 34.6514 6.80625 34.5 7.1875 34.5C7.56875 34.5 7.93438 34.6514 8.20397 34.921C8.47355 35.1906 8.625 35.5563 8.625 35.9375C8.625 36.3187 8.47355 36.6844 8.20397 36.954C7.93438 37.2235 7.56875 37.375 7.1875 37.375ZM12.9375 37.375C12.5563 37.375 12.1906 37.2235 11.921 36.954C11.6515 36.6844 11.5 36.3187 11.5 35.9375C11.5 35.5563 11.6515 35.1906 11.921 34.921C12.1906 34.6514 12.5563 34.5 12.9375 34.5C13.3187 34.5 13.6844 34.6514 13.954 34.921C14.2235 35.1906 14.375 35.5563 14.375 35.9375C14.375 36.3187 14.2235 36.6844 13.954 36.954C13.6844 37.2235 13.3187 37.375 12.9375 37.375ZM18.6875 37.375C18.3063 37.375 17.9406 37.2235 17.671 36.954C17.4015 36.6844 17.25 36.3187 17.25 35.9375C17.25 35.5563 17.4015 35.1906 17.671 34.921C17.9406 34.6514 18.3063 34.5 18.6875 34.5C19.0687 34.5 19.4344 34.6514 19.704 34.921C19.9735 35.1906 20.125 35.5563 20.125 35.9375C20.125 36.3187 19.9735 36.6844 19.704 36.954C19.4344 37.2235 19.0687 37.375 18.6875 37.375ZM24.4375 37.375C24.0563 37.375 23.6906 37.2235 23.421 36.954C23.1514 36.6844 23 36.3187 23 35.9375C23 35.5563 23.1514 35.1906 23.421 34.921C23.6906 34.6514 24.0563 34.5 24.4375 34.5C24.8187 34.5 25.1844 34.6514 25.454 34.921C25.7236 35.1906 25.875 35.5563 25.875 35.9375C25.875 36.3187 25.7236 36.6844 25.454 36.954C25.1844 37.2235 24.8187 37.375 24.4375 37.375ZM33.0625 37.375C32.3 37.375 31.5687 37.0721 31.0296 36.5329C30.4904 35.9938 30.1875 35.2625 30.1875 34.5C30.1875 33.7375 30.4904 33.0062 31.0296 32.4671C31.5687 31.9279 32.3 31.625 33.0625 31.625H34.5C36.025 31.625 37.4875 32.2308 38.5659 33.3091C39.6442 34.3875 40.25 35.85 40.25 37.375H33.0625ZM16.3588 8.625H26.4212L21.1025 3.29187C20.8419 3.03316 20.4921 2.884 20.125 2.875H15.8125C15.5675 2.87574 15.3267 2.93911 15.113 3.05909C14.8994 3.17907 14.7199 3.35168 14.5917 3.56052C14.4635 3.76936 14.3909 4.0075 14.3806 4.25233C14.3704 4.49716 14.4229 4.74055 14.5331 4.95938L16.3588 8.625Z" fill="#44B859"/>
</g>
</g>
</g>
</svg>
