<svg width="64" height="64" viewBox="0 0 64 64" fill="none" xmlns="http://www.w3.org/2000/svg">
<g id="fluent:call-20-filled">
<path id="Vector" d="M22.5855 7.20626C23.953 6.79397 25.4204 6.86246 26.7435 7.40034C28.0666 7.93822 29.1655 8.91303 29.8574 10.1625L30.0887 10.6281L32.1574 15.225C32.7852 16.6203 32.989 18.1693 32.7435 19.6795C32.4979 21.1897 31.8137 22.5943 30.7762 23.7188L30.3605 24.1313L27.1012 27.1719C26.5137 27.7281 26.9543 29.8813 29.0793 33.5625C30.9918 36.875 32.548 38.4219 33.3137 38.5063H33.448L33.6137 38.475L40.0199 36.5156C40.8809 36.2516 41.7997 36.2411 42.6664 36.4855C43.5332 36.7299 44.3112 37.2188 44.9074 37.8938L45.1918 38.2531L49.4324 44.1281C50.2635 45.2797 50.6776 46.6799 50.6066 48.0983C50.5356 49.5166 49.9837 50.8685 49.0418 51.9313L48.6605 52.325L46.9668 53.9313C45.4458 55.3716 43.5432 56.345 41.4852 56.7355C39.4272 57.1261 37.3003 56.9174 35.3574 56.1344C29.3105 53.6969 23.8168 48.1281 18.8262 39.4844C13.8262 30.8188 11.748 23.2656 12.6762 16.7969C12.957 14.8415 13.7622 12.9986 15.0063 11.4641C16.2503 9.92949 17.8867 8.76051 19.7418 8.08126L20.3449 7.88126L22.5855 7.20626Z" fill="#44B859"/>
</g>
</svg>
