<svg width="48" height="48" viewBox="0 0 48 48" fill="none" xmlns="http://www.w3.org/2000/svg">
<g id="Frame" clip-path="url(#clip0_817_8045)">
<g id="Group">
<path id="Vector" d="M27.0118 14.8624H20.8867V24.0999H27.0118C29.5586 24.0999 31.6306 22.0279 31.6306 19.4811C31.6305 16.8975 29.5362 14.8624 27.0118 14.8624Z" fill="#44B859"/>
<path id="Vector_2" d="M24 0C10.7663 0 0 10.7663 0 24C0 37.2337 10.7663 48 24 48C37.2337 48 48 37.2337 48 24C48 10.7663 37.2337 0 24 0ZM27.0126 26.9124H20.8875V30.125H27.0126C27.7892 30.125 28.4188 30.7546 28.4188 31.5312C28.4188 32.3078 27.7892 32.9375 27.0126 32.9375H20.8875V36.05C20.8875 36.8266 20.2579 37.4562 19.4813 37.4562C18.7046 37.4562 18.075 36.8266 18.075 36.05V32.9375H16.4688C15.6922 32.9375 15.0625 32.3078 15.0625 31.5312C15.0625 30.7546 15.6922 30.125 16.4688 30.125H18.075V26.9124H16.4688C15.6922 26.9124 15.0625 26.2828 15.0625 25.5062C15.0625 24.7296 15.6922 24.0999 16.4688 24.0999H18.075V13.4562C18.075 12.6796 18.7046 12.05 19.4813 12.05H27.0126C31.0237 12.05 34.4438 15.2824 34.4438 19.4813C34.4437 23.5789 31.1102 26.9124 27.0126 26.9124Z" fill="#44B859"/>
</g>
</g>
<defs>
<clipPath id="clip0_817_8045">
<rect width="48" height="48" fill="white"/>
</clipPath>
</defs>
</svg>
