<svg width="25" height="25" viewBox="0 0 25 25" fill="none" xmlns="http://www.w3.org/2000/svg">
<g clip-path="url(#clip0_211_127)">
<path d="M24.0886 14.0534C24.1614 13.5429 24.199 13.0279 24.2012 12.5122C24.2012 9.40763 22.9679 6.43022 20.7726 4.23497C18.5773 2.03972 15.5999 0.806438 12.4954 0.806438C11.9797 0.808587 11.4648 0.846185 10.9542 0.918938C8.0688 -0.63614 4.50483 -0.113777 2.18716 2.20409C-0.130616 4.52177 -0.65298 8.08564 0.902098 10.9711C0.829344 11.4816 0.791747 11.9965 0.789501 12.5122C0.789501 18.9772 6.03042 24.2181 12.4954 24.2181C13.011 24.2159 13.526 24.1783 14.0366 24.1056C16.9219 25.6606 20.4858 25.1383 22.8037 22.8204C25.1213 20.5027 25.6438 16.9388 24.0886 14.0534Z" fill="white"/>
<path d="M7.42119 14.85C11.5144 14.85 14.8326 11.5317 14.8326 7.43853C14.8326 3.34531 11.5144 0.0270996 7.42119 0.0270996C3.32797 0.0270996 0.00976562 3.34531 0.00976562 7.43853C0.00976562 11.5317 3.32797 14.85 7.42119 14.85Z" fill="url(#paint0_linear_211_127)"/>
<path d="M17.5687 24.9974C21.6619 24.9974 24.9801 21.6792 24.9801 17.586C24.9801 13.4928 21.6619 10.1746 17.5687 10.1746C13.4754 10.1746 10.1572 13.4928 10.1572 17.586C10.1572 21.6792 13.4754 24.9974 17.5687 24.9974Z" fill="url(#paint1_linear_211_127)"/>
<mask id="mask0_211_127" style="mask-type:luminance" maskUnits="userSpaceOnUse" x="0" y="-1" width="25" height="26">
<path d="M17.5687 10.1745C16.2436 10.1742 14.9428 10.53 13.8023 11.2047C15.7101 7.98794 14.9253 3.85386 11.9714 1.55982C9.01758 -0.734421 4.81807 -0.471432 2.17334 2.17329C-0.471285 4.81792 -0.734274 9.01753 1.55987 11.9713C3.85391 14.9252 7.98789 15.71 11.2049 13.8023C9.49688 16.697 9.95069 20.3789 12.3106 22.7722C14.6705 25.1656 18.3455 25.6711 21.2641 24.004C24.1826 22.3369 25.6139 18.9143 24.7509 15.6659C23.888 12.4173 20.9472 10.1563 17.5858 10.1572L17.5687 10.1745Z" fill="white"/>
</mask>
<g mask="url(#mask0_211_127)">
<path d="M12.2609 26.8936C19.9094 26.8936 26.1098 20.6932 26.1098 13.0448C26.1098 5.39625 19.9094 -0.804077 12.2609 -0.804077C4.61244 -0.804077 -1.58789 5.39625 -1.58789 13.0448C-1.58789 20.6932 4.61244 26.8936 12.2609 26.8936Z" fill="url(#paint2_radial_211_127)"/>
</g>
<path d="M12.4949 24.2181C18.9599 24.2181 24.2008 18.9772 24.2008 12.5123C24.2008 6.04729 18.9599 0.806396 12.4949 0.806396C6.02995 0.806396 0.789062 6.04729 0.789062 12.5123C0.789062 18.9772 6.02995 24.2181 12.4949 24.2181Z" fill="url(#paint3_linear_211_127)"/>
<path d="M12.4949 24.2181C18.9599 24.2181 24.2008 18.9772 24.2008 12.5123C24.2008 6.04729 18.9599 0.806396 12.4949 0.806396C6.02995 0.806396 0.789062 6.04729 0.789062 12.5123C0.789062 18.9772 6.02995 24.2181 12.4949 24.2181Z" fill="url(#paint4_linear_211_127)"/>
<path d="M8.2264 11.075C7.9511 10.5588 7.81392 9.98017 7.82815 9.39531C7.81046 8.6561 8.06288 7.9358 8.53811 7.36933C9.03814 6.80517 9.67682 6.38136 10.3909 6.13984C11.1667 5.8661 11.9839 5.72844 12.8066 5.73291C13.3458 5.72914 13.8844 5.76968 14.4169 5.8541C14.7966 5.91774 15.1703 6.01333 15.5339 6.13984C15.8642 6.25389 16.1614 6.44713 16.3997 6.70263C16.5817 6.90764 16.6805 7.1732 16.6768 7.44726C16.6834 7.59094 16.6616 7.73452 16.6126 7.86974C16.5636 8.00496 16.4883 8.12915 16.391 8.23515C16.3003 8.33171 16.1901 8.40789 16.0677 8.45863C15.9453 8.50938 15.8135 8.53353 15.6811 8.52949C15.4957 8.52661 15.3129 8.48534 15.1443 8.4083C14.7364 8.22763 14.317 8.0743 13.8888 7.94931C13.4905 7.84512 13.0798 7.79565 12.6681 7.80224C12.1345 7.78433 11.6066 7.91627 11.1442 8.1831C10.9496 8.30136 10.7905 8.46999 10.6838 8.67118C10.5772 8.87236 10.5268 9.09863 10.5381 9.32607C10.535 9.6219 10.6468 9.90741 10.8498 10.1226C11.0983 10.3789 11.3918 10.5872 11.7157 10.7373C12.0706 10.9104 12.5815 11.1442 13.3087 11.4387L13.5338 11.5252C14.2206 11.7869 14.8791 12.1176 15.4992 12.5122C15.9933 12.8324 16.4103 13.2583 16.72 13.759C17.0246 14.2842 17.1775 14.8837 17.1616 15.4906C17.1862 16.2341 16.9706 16.9658 16.5469 17.5772C16.1122 18.1654 15.5079 18.6066 14.8153 18.8414C13.9961 19.1335 13.1306 19.2743 12.2611 19.2569C11.0722 19.2964 9.88935 19.0716 8.79778 18.5989C8.51816 18.4731 8.27202 18.2833 8.07923 18.0448C7.9275 17.8201 7.84888 17.554 7.85413 17.2829C7.84464 17.1401 7.86689 16.9969 7.91928 16.8637C7.97167 16.7305 8.05291 16.6105 8.15716 16.5124C8.37359 16.3208 8.65632 16.2213 8.94505 16.2352C9.26785 16.2399 9.58509 16.3199 9.87142 16.469C10.2264 16.6422 10.5034 16.7808 10.7372 16.8673C10.969 16.9652 11.2097 17.0406 11.4559 17.0924C11.7597 17.1615 12.0708 17.1935 12.3824 17.1877C12.9338 17.2283 13.4828 17.0819 13.9408 16.7721C14.1137 16.6396 14.2521 16.4673 14.3441 16.2698C14.436 16.0723 14.4788 15.8555 14.4689 15.6379C14.4772 15.3173 14.359 15.0063 14.1399 14.7721C13.8575 14.4841 13.5299 14.2443 13.1701 14.0621C12.7459 13.8369 12.1399 13.5686 11.3694 13.2395C10.677 12.9638 10.013 12.6216 9.38655 12.2179C8.91819 11.9063 8.50989 11.5609 8.2264 11.075Z" fill="white"/>
</g>
<defs>
<linearGradient id="paint0_linear_211_127" x1="625.134" y1="8.68366" x2="857.171" y2="1473.66" gradientUnits="userSpaceOnUse">
<stop offset="0.01" stop-color="#00B7F0"/>
<stop offset="0.34" stop-color="#009DE5"/>
<stop offset="0.76" stop-color="#0082D9"/>
<stop offset="1" stop-color="#0078D4"/>
</linearGradient>
<linearGradient id="paint1_linear_211_127" x1="108.863" y1="1121.89" x2="1393.74" y2="380.746" gradientUnits="userSpaceOnUse">
<stop stop-color="#0078D4"/>
<stop offset="0.37" stop-color="#007AD5"/>
<stop offset="0.57" stop-color="#0082D9"/>
<stop offset="0.74" stop-color="#0090DF"/>
<stop offset="0.88" stop-color="#00A3E7"/>
<stop offset="1" stop-color="#00BCF2"/>
</linearGradient>
<radialGradient id="paint2_radial_211_127" cx="0" cy="0" r="1" gradientUnits="userSpaceOnUse" gradientTransform="translate(1342.83 1384.08) scale(1385.46)">
<stop/>
<stop offset="1" stop-opacity="0"/>
</radialGradient>
<linearGradient id="paint3_linear_211_127" x1="713.348" y1="378.297" x2="1883.93" y2="2406.06" gradientUnits="userSpaceOnUse">
<stop stop-color="#00B7F0"/>
<stop offset="1" stop-color="#007CC1"/>
</linearGradient>
<linearGradient id="paint4_linear_211_127" x1="1069.21" y1="2337.65" x2="1273.54" y2="5.13761" gradientUnits="userSpaceOnUse">
<stop stop-color="#0078D4"/>
<stop offset="1" stop-color="#00BCF2"/>
</linearGradient>
<clipPath id="clip0_211_127">
<rect width="25" height="25" fill="white"/>
</clipPath>
</defs>
</svg>
