<svg width="50" height="50" viewBox="0 0 50 50" fill="none" xmlns="http://www.w3.org/2000/svg">
<g id="Frame">
<g id="Group">
<path id="Vector" d="M29.167 14.5833V0.958333C31.0942 1.68612 32.8447 2.81523 34.3024 4.27083L41.5607 11.5333C43.018 12.9893 44.148 14.7394 44.8753 16.6667H31.2503C30.6978 16.6667 30.1679 16.4472 29.7772 16.0565C29.3865 15.6658 29.167 15.1359 29.167 14.5833ZM45.8337 21.8437V39.5833C45.8304 42.345 44.7318 44.9926 42.779 46.9454C40.8263 48.8982 38.1786 49.9967 35.417 50H14.5837C11.822 49.9967 9.1744 48.8982 7.22162 46.9454C5.26883 44.9926 4.1703 42.345 4.16699 39.5833V10.4167C4.1703 7.65501 5.26883 5.00741 7.22162 3.05462C9.1744 1.10184 11.822 0.00330804 14.5837 0L23.9899 0C24.3295 0 24.6649 0.0270833 25.0003 0.05V14.5833C25.0003 16.2409 25.6588 17.8306 26.8309 19.0028C28.003 20.1749 29.5927 20.8333 31.2503 20.8333H45.7837C45.8066 21.1687 45.8337 21.5042 45.8337 21.8437ZM34.842 29.8146C34.4611 29.4148 33.9372 29.1826 33.3852 29.1689C32.8332 29.1553 32.2984 29.3613 31.8982 29.7417L24.3982 36.8896C24.1978 37.0912 23.9583 37.2496 23.6944 37.3552C23.4304 37.4607 23.1477 37.5111 22.8636 37.5033C22.5794 37.4955 22.2999 37.4296 22.0422 37.3098C21.7844 37.1899 21.5539 37.0185 21.3649 36.8062L18.0545 33.8604C17.8501 33.6782 17.6119 33.538 17.3533 33.4479C17.0948 33.3578 16.821 33.3195 16.5477 33.3351C15.9956 33.3668 15.4787 33.6164 15.1107 34.0292C14.9285 34.2335 14.7884 34.4718 14.6982 34.7303C14.6081 34.9889 14.5698 35.2626 14.5854 35.536C14.6171 36.0881 14.8667 36.6049 15.2795 36.9729L18.4962 39.8354C19.6621 41.0017 21.2418 41.6598 22.8909 41.6665C24.5401 41.6731 26.125 41.0277 27.3003 39.8708L34.7691 32.7583C35.1688 32.3775 35.4011 31.8535 35.4147 31.3015C35.4284 30.7496 35.2224 30.2148 34.842 29.8146Z" fill="#44B859"/>
</g>
</g>
</svg>
