<svg width="32" height="32" viewBox="0 0 32 32" fill="none" xmlns="http://www.w3.org/2000/svg">
<g id="telegram-svgrepo-com (5) 1" clip-path="url(#clip0_44_2243)">
<path id="Vector" d="M27.2 0H4.8C2.14903 0 0 2.14903 0 4.8V27.2C0 29.851 2.14903 32 4.8 32H27.2C29.851 32 32 29.851 32 27.2V4.8C32 2.14903 29.851 0 27.2 0Z" fill="#37AEE2"/>
<path id="Vector_2" d="M12.4375 25.25C11.75 25.25 11.8125 25 11.625 24.375L9.625 17.8125L24.9375 8.8125" fill="#C8DAEA"/>
<path id="Vector_3" d="M12.4375 25.25C12.875 25.25 13.125 25 13.4375 24.75L16.25 22.0625L12.75 19.9375" fill="#A9C9DD"/>
<path id="Vector_4" d="M12.7495 19.9388L21.187 26.1263C22.062 26.6888 22.812 26.3763 23.062 25.2513L26.4995 9.12625C26.812 7.75125 25.937 7.12625 24.9995 7.56375L4.93704 15.3138C3.62454 15.8138 3.62454 16.6263 4.68704 16.9388L9.87454 18.5638L21.7495 11.0013C22.312 10.6888 22.812 10.8138 22.437 11.2513" fill="#F6FBFE"/>
</g>
<defs>
<clipPath id="clip0_44_2243">
<rect width="32" height="32" fill="white"/>
</clipPath>
</defs>
</svg>
