<svg width="50" height="50" viewBox="0 0 50 50" fill="none" xmlns="http://www.w3.org/2000/svg">
<g id="Frame" clip-path="url(#clip0_211_398)">
<g id="Group">
<path id="Vector" d="M41.5503 5.50422L25.0003 0.0187988L8.45033 5.50422C7.2034 5.91758 6.11841 6.71334 5.3495 7.77845C4.58058 8.84357 4.16682 10.1239 4.16699 11.4375V25C4.16699 40.675 23.3337 49.3313 24.1545 49.6917L24.892 50.0188L25.6587 49.7646C26.4837 49.4896 45.8337 42.8688 45.8337 25V11.4375C45.8338 10.1239 45.4201 8.84357 44.6512 7.77845C43.8822 6.71334 42.7973 5.91758 41.5503 5.50422ZM33.3337 27.0834H27.0837V33.3334H22.917V27.0834H16.667V22.9167H22.917V16.6667H27.0837V22.9167H33.3337V27.0834Z" fill="#44B859"/>
</g>
</g>
<defs>
<clipPath id="clip0_211_398">
<rect width="50" height="50" fill="white"/>
</clipPath>
</defs>
</svg>
