<svg width="50" height="50" viewBox="0 0 50 50" fill="none" xmlns="http://www.w3.org/2000/svg">
<g id="Frame" clip-path="url(#clip0_211_404)">
<g id="Group">
<path id="Vector" d="M17.6542 22.9167C15.3879 22.9167 13.1726 22.2447 11.2883 20.9856C9.40394 19.7265 7.9353 17.937 7.06805 15.8433C6.20079 13.7495 5.97388 11.4456 6.416 9.22293C6.85812 7.00023 7.94942 4.95855 9.5519 3.35607C11.1544 1.7536 13.1961 0.662296 15.4188 0.220174C17.6415 -0.221949 19.9453 0.00496476 22.0391 0.872219C24.1328 1.73947 25.9224 3.20812 27.1814 5.09243C28.4405 6.97674 29.1125 9.19209 29.1125 11.4583C29.1092 14.4963 27.9009 17.4088 25.7528 19.5569C23.6046 21.7051 20.6921 22.9134 17.6542 22.9167ZM35.4167 20.8333C32.5324 20.8333 29.7128 21.6886 27.3146 23.2911C24.9164 24.8935 23.0472 27.1711 21.9434 29.8359C20.8396 32.5006 20.5508 35.4328 21.1135 38.2617C21.6762 41.0906 23.0652 43.6891 25.1047 45.7286C27.1442 47.7682 29.7427 49.1571 32.5716 49.7198C35.4005 50.2825 38.3327 49.9937 40.9975 48.8899C43.6622 47.7861 45.9398 45.917 47.5423 43.5187C49.1447 41.1205 50 38.301 50 35.4167C49.9956 31.5503 48.4577 27.8435 45.7238 25.1096C42.9898 22.3756 39.2831 20.8377 35.4167 20.8333ZM39.5833 42.5292L33.3333 36.2792V27.0833H37.5V34.5542L42.5292 39.5833L39.5833 42.5292ZM16.6667 35.4167C16.668 32.5233 17.3435 29.6701 18.6396 27.0833H10.4167C7.65501 27.0866 5.00741 28.1852 3.05462 30.138C1.10184 32.0908 0.00330804 34.7383 0 37.5L0 50H23.6437C21.4643 48.2456 19.7062 46.0247 18.4987 43.5009C17.2912 40.977 16.6652 38.2145 16.6667 35.4167Z" fill="#44B859"/>
</g>
</g>
<defs>
<clipPath id="clip0_211_404">
<rect width="50" height="50" fill="white"/>
</clipPath>
</defs>
</svg>
