<svg width="50" height="50" viewBox="0 0 50 50" fill="none" xmlns="http://www.w3.org/2000/svg">
<g id="Frame" clip-path="url(#clip0_211_382)">
<g id="Group">
<path id="Vector" d="M16.6667 25C9.77292 25 4.16667 19.3937 4.16667 12.5C4.16667 5.60625 9.77292 0 16.6667 0C23.5604 0 29.1667 5.60625 29.1667 12.5C29.1667 19.3937 23.5604 25 16.6667 25ZM41.3042 33.3333H50V35.4167L43.6375 39.7562L46.2854 48.0521L44.5812 49.2417L37.5354 44.3708L30.5958 49.2417L28.9562 48.0062L31.4167 39.6271L25.0021 35.4271V33.3312H33.7521L36.4292 24.2417H38.6354L41.3083 33.3312L41.3042 33.3333ZM20.8333 37.5C20.8333 34.4646 21.6458 31.6187 23.0646 29.1667H10.4167C4.67292 29.1667 0 33.8396 0 39.5833V50H26.4771C24.7014 48.4378 23.2794 46.5147 22.3061 44.3591C21.3329 42.2035 20.8308 39.8651 20.8333 37.5Z" fill="#44B859"/>
</g>
</g>
<defs>
<clipPath id="clip0_211_382">
<rect width="50" height="50" fill="white"/>
</clipPath>
</defs>
</svg>
