<svg width="20" height="20" viewBox="0 0 20 20" fill="none" xmlns="http://www.w3.org/2000/svg">
<g id="Subtract">
<mask id="path-1-inside-1_44_2197" fill="white">
<path fill-rule="evenodd" clip-rule="evenodd" d="M10 20C15.5228 20 20 15.5228 20 10C20 4.47715 15.5228 0 10 0C4.47715 0 0 4.47715 0 10C0 15.5228 4.47715 20 10 20Z"/>
</mask>
<path d="M9.15133 12.4005L8.79956 12.7558L9.16568 13.1183L9.51703 12.7415L9.15133 12.4005ZM5.64804 9.63585L8.79956 12.7558L9.5031 12.0452L6.35159 8.9252L5.64804 9.63585ZM9.51703 12.7415L14.3655 7.5415L13.6341 6.85954L8.78563 12.0595L9.51703 12.7415ZM19 10C19 14.9706 14.9706 19 10 19V21C16.0751 21 21 16.0751 21 10H19ZM10 1C14.9706 1 19 5.02944 19 10H21C21 3.92487 16.0751 -1 10 -1V1ZM1 10C1 5.02944 5.02944 1 10 1V-1C3.92487 -1 -1 3.92487 -1 10H1ZM10 19C5.02944 19 1 14.9706 1 10H-1C-1 16.0751 3.92487 21 10 21V19Z" fill="#44B859" mask="url(#path-1-inside-1_44_2197)"/>
</g>
</svg>
