<svg width="40" height="40" viewBox="0 0 40 40" fill="none" xmlns="http://www.w3.org/2000/svg">
<g id="Subtract">
<mask id="path-1-inside-1_612_96" fill="white">
<path fill-rule="evenodd" clip-rule="evenodd" d="M20 40C31.0457 40 40 31.0457 40 20C40 8.9543 31.0457 0 20 0C8.9543 0 0 8.9543 0 20C0 31.0457 8.9543 40 20 40Z"/>
</mask>
<path d="M18.303 24.8L17.9513 25.1553L18.3174 25.5178L18.6687 25.141L18.303 24.8ZM11.6482 18.9153L17.9513 25.1553L18.6548 24.4447L12.3518 18.2047L11.6482 18.9153ZM18.6687 25.141L28.3657 14.741L27.6343 14.059L17.9373 24.459L18.6687 25.141ZM39 20C39 30.4934 30.4934 39 20 39V41C31.598 41 41 31.598 41 20H39ZM20 1C30.4934 1 39 9.50659 39 20H41C41 8.40202 31.598 -1 20 -1V1ZM1 20C1 9.50659 9.50659 1 20 1V-1C8.40202 -1 -1 8.40202 -1 20H1ZM20 39C9.50659 39 1 30.4934 1 20H-1C-1 31.598 8.40202 41 20 41V39Z" fill="#44B859" mask="url(#path-1-inside-1_612_96)"/>
</g>
</svg>
