<svg width="32" height="32" viewBox="0 0 32 32" fill="none" xmlns="http://www.w3.org/2000/svg">
<g id="viber-chat-app-svgrepo-com 1" clip-path="url(#clip0_44_2235)">
<path id="Vector" d="M16 0C8.1 0 0 1.7 0 14C0 20.6 2.3 24.7 7 26.6V30.3C7 31 7.4 31.6 8 31.9C8.2 32 8.5 32 8.7 32C9.1 32 9.6 31.8 9.9 31.5L13.5 27.9C14.3 27.9 15.1 28 16 28C23.9 28 32 26.3 32 14C32 1.7 23.9 0 16 0Z" fill="#7B519C"/>
<g id="Group">
<g id="Group_2">
<path id="Vector_2" d="M15.5 9.10156C17.9 9.10156 19.9 11.1016 19.9 13.5016C19.9 14.1016 20.3 14.5016 20.9 14.5016C21.5 14.5016 21.9 14.1016 21.9 13.5016C21.9 10.0016 19 7.10156 15.5 7.10156C14.9 7.10156 14.5 7.50156 14.5 8.10156C14.5 8.70156 14.9 9.10156 15.5 9.10156Z" fill="white"/>
<path id="Vector_3" d="M15.5 12.1992C16.2 12.1992 16.8 12.7992 16.8 13.4992C16.8 14.0992 17.2 14.4992 17.8 14.4992C18.4 14.4992 18.8 14.0992 18.8 13.4992C18.8 11.6992 17.3 10.1992 15.5 10.1992C14.9 10.1992 14.5 10.5992 14.5 11.1992C14.5 11.7992 14.9 12.1992 15.5 12.1992Z" fill="white"/>
<path id="Vector_4" d="M15.5 4C14.9 4 14.5 4.4 14.5 5C14.5 5.6 14.9 6 15.5 6C19.6 6 23 9.4 23 13.5C23 14.1 23.4 14.5 24 14.5C24.6 14.5 25 14.1 25 13.5C25 8.3 20.7 4 15.5 4Z" fill="white"/>
<path id="Vector_5" d="M21.9 17.1L21.7 17C21.7 17 19.5 15.9 19.1 15.8C18.3 15.5 17.5 15.7 17 16.4L16.9 16.6C16.7 16.9 16.4 17.3 16.2 17.5C15.7 17.3 14.8 16.9 13.6 15.9C12.8 15.2 12.2 14.3 11.9 13.8C12 13.7 12 13.7 12.1 13.6C12.2 13.5 12.3 13.4 12.4 13.3C12.6 13.1 12.7 12.9 12.9 12.6C13.1 12.1 13.1 11.6 12.9 11C12.8 10.8 12.4 9.9 12.1 9.2L11.7 8.4C11.3 7.4 10.7 7.2 10 7.2C9.9 7 9.8 7 9.6 7C8.8 7 8.1 7.3 7.6 7.8C7.1 8.3 6 9.4 6 11.6C6 13.4 7.1 15.1 7.7 16L7.8 16.1C9.7 18.9 12.1 20.9 14.5 21.9C16.6 22.8 17.8 23 18.6 23C19 23 19.3 23 19.5 22.9C20.8 22.6 22.3 21.7 22.7 20.5C22.9 19.8 23.2 18.6 22.8 17.9C22.6 17.5 22.2 17.3 21.9 17.1Z" fill="white"/>
</g>
</g>
</g>
<defs>
<clipPath id="clip0_44_2235">
<rect width="32" height="32" fill="white"/>
</clipPath>
</defs>
</svg>
