<svg width="82" height="70" viewBox="0 0 82 70" fill="none" xmlns="http://www.w3.org/2000/svg">
<g id="&#208;&#161;&#208;&#187;&#208;&#190;&#208;&#185;_x0020_1">
<path id="Vector" d="M82 0H0V70H82V0Z" fill="#44B859"/>
<g id="&#208;&#159;&#208;&#160;&#208;&#158;&#208;&#161;&#208;&#162;&#208;&#171;&#208;&#149;">
<path id="Vector_2" d="M64.7844 15.2174V7.09729H70.4071V8.51276H66.5487V10.4476H70.1179V11.8631H66.5487V13.8019H70.4234V15.2174H64.7844Z" fill="white"/>
<path id="Vector_3" d="M55.694 10.0987H57.6824C58.3451 10.0987 58.9156 10.2031 59.3936 10.4119C59.8744 10.6181 60.2452 10.9102 60.506 11.2882C60.7667 11.6662 60.8957 12.1116 60.893 12.6244C60.8957 13.1345 60.7667 13.5852 60.506 13.9764C60.2452 14.365 59.8744 14.6689 59.3936 14.8883C58.9156 15.1077 58.3451 15.2174 57.6824 15.2174H54.5654V7.09729H56.3256V13.8376H57.6824C58.0002 13.8376 58.2677 13.7821 58.485 13.6711C58.7023 13.5574 58.8667 13.4081 58.978 13.2231C59.0921 13.0354 59.1478 12.8305 59.1451 12.6085C59.1478 12.286 59.0229 12.0138 58.7702 11.7917C58.5203 11.5671 58.1577 11.4547 57.6824 11.4547H55.694V10.0987ZM63.3336 7.09729V15.2174H61.5735V7.09729H63.3336Z" fill="white"/>
<path id="Vector_4" d="M46.5522 8.51276V7.09729H53.4054V8.51276H50.8508V15.2174H49.1069V8.51276H46.5522Z" fill="white"/>
<path id="Vector_5" d="M45.6054 9.94018H43.8208C43.7882 9.7155 43.7216 9.51593 43.6211 9.34148C43.5206 9.16438 43.3916 9.01371 43.2341 8.88948C43.0765 8.76525 42.8945 8.67009 42.6881 8.60401C42.4844 8.53793 42.263 8.50488 42.0239 8.50488C41.5921 8.50488 41.2158 8.60929 40.8953 8.81811C40.5748 9.02429 40.3263 9.32562 40.1497 9.72211C39.9731 10.116 39.8849 10.5944 39.8849 11.1574C39.8849 11.7363 39.9731 12.2226 40.1497 12.6165C40.329 13.0103 40.5789 13.3077 40.8994 13.5086C41.2199 13.7095 41.5907 13.8099 42.0117 13.8099C42.248 13.8099 42.4667 13.7795 42.6677 13.7187C42.8714 13.6579 43.0521 13.5694 43.2096 13.4531C43.3672 13.3341 43.4975 13.1901 43.6008 13.0209C43.7067 12.8517 43.78 12.6588 43.8208 12.442L45.6054 12.45C45.5592 12.8227 45.4438 13.1821 45.259 13.5284C45.0771 13.872 44.8312 14.18 44.5216 14.4522C44.2146 14.7218 43.8479 14.936 43.4215 15.0945C42.9977 15.2505 42.5183 15.3285 41.9832 15.3285C41.2389 15.3285 40.5734 15.1646 39.9867 14.8368C39.4027 14.5091 38.941 14.0346 38.6014 13.4134C38.2646 12.7923 38.0962 12.0403 38.0962 11.1574C38.0962 10.2719 38.2673 9.51858 38.6096 8.89741C38.9518 8.27624 39.4163 7.8031 40.003 7.47798C40.5897 7.15021 41.2498 6.98633 41.9832 6.98633C42.4667 6.98633 42.9149 7.05241 43.3278 7.18457C43.7434 7.31674 44.1114 7.50969 44.4319 7.76345C44.7525 8.01456 45.0132 8.3225 45.2142 8.68727C45.4179 9.05204 45.5483 9.46968 45.6054 9.94018Z" fill="white"/>
<path id="Vector_6" d="M36.9359 11.1574C36.9359 12.0429 36.7634 12.7962 36.4184 13.4174C36.0762 14.0386 35.6089 14.513 35.0168 14.8408C34.4274 15.1659 33.7646 15.3285 33.0285 15.3285C32.2869 15.3285 31.6214 15.1646 31.032 14.8368C30.4426 14.5091 29.9767 14.0346 29.6345 13.4134C29.2922 12.7923 29.1211 12.0403 29.1211 11.1574C29.1211 10.2719 29.2922 9.51858 29.6345 8.89741C29.9767 8.27624 30.4426 7.8031 31.032 7.47798C31.6214 7.15021 32.2869 6.98633 33.0285 6.98633C33.7646 6.98633 34.4274 7.15021 35.0168 7.47798C35.6089 7.8031 36.0762 8.27624 36.4184 8.89741C36.7634 9.51858 36.9359 10.2719 36.9359 11.1574ZM35.1472 11.1574C35.1472 10.5838 35.0589 10.1001 34.8823 9.70625C34.7085 9.3124 34.4627 9.01371 34.1449 8.81018C33.8271 8.60665 33.4549 8.50488 33.0285 8.50488C32.602 8.50488 32.2299 8.60665 31.9121 8.81018C31.5943 9.01371 31.3471 9.3124 31.1705 9.70625C30.9967 10.1001 30.9098 10.5838 30.9098 11.1574C30.9098 11.731 30.9967 12.2147 31.1705 12.6086C31.3471 13.0024 31.5943 13.3011 31.9121 13.5046C32.2299 13.7082 32.602 13.8099 33.0285 13.8099C33.4549 13.8099 33.8271 13.7082 34.1449 13.5046C34.4627 13.3011 34.7085 13.0024 34.8823 12.6086C35.0589 12.2147 35.1472 11.731 35.1472 11.1574Z" fill="white"/>
<path id="Vector_7" d="M21.8413 15.2174V7.09729H25.1335C25.7663 7.09729 26.3055 7.21492 26.751 7.45017C27.1965 7.68277 27.536 8.00657 27.7696 8.42157C28.0059 8.83392 28.1241 9.3097 28.1241 9.84893C28.1241 10.3882 28.0046 10.8639 27.7655 11.2763C27.5265 11.6886 27.1802 12.0098 26.7266 12.2398C26.2757 12.4697 25.7297 12.5847 25.0886 12.5847H22.9903V11.2089H24.8034C25.143 11.2089 25.4227 11.1521 25.6428 11.0384C25.8655 10.9221 26.0312 10.7622 26.1398 10.5586C26.2512 10.3525 26.3069 10.1159 26.3069 9.84893C26.3069 9.57932 26.2512 9.34407 26.1398 9.14318C26.0312 8.93965 25.8655 8.78237 25.6428 8.67136C25.42 8.55769 25.1375 8.50086 24.7953 8.50086H23.6055V15.2174H21.8413Z" fill="white"/>
<path id="Vector_8" d="M20.1616 7.09729V15.2174H18.4178V8.49293H15.0442V15.2174H13.3003V7.09729H20.1616Z" fill="white"/>
</g>
<g id="&#208;&#160;&#208;&#149;&#208;&#168;&#208;&#149;&#208;&#157;&#208;&#152;&#208;&#175;">
<path id="Vector_9" d="M70.6054 29.1965H68.8453V22.48H67.6555C67.316 22.48 67.0335 22.5289 66.8081 22.6267C66.5853 22.7218 66.4183 22.8619 66.3069 23.047C66.1955 23.232 66.1399 23.4593 66.1399 23.7289C66.1399 23.9959 66.1955 24.2193 66.3069 24.399C66.4183 24.5787 66.5853 24.7136 66.8081 24.8034C67.0308 24.8933 67.3106 24.9382 67.6474 24.9382H69.5624V26.318H67.3622C66.7239 26.318 66.1779 26.2149 65.7243 26.0088C65.2706 25.8026 64.9243 25.5065 64.6853 25.1206C64.4462 24.7321 64.3267 24.2682 64.3267 23.7289C64.3267 23.1924 64.4435 22.7258 64.6771 22.3293C64.9135 21.9302 65.2543 21.6223 65.6998 21.4055C66.148 21.1861 66.6872 21.0764 67.3174 21.0764H70.6054V29.1965ZM66.1032 25.5012H68.0059L65.9769 29.1965H64.0293L66.1032 25.5012Z" fill="white"/>
<path id="Vector_10" d="M55.7644 21.0764H57.5246V26.1832H57.5938L61.1997 21.0764H62.7439V29.1965H60.9797V24.0858H60.9186L57.2923 29.1965H55.7644V21.0764Z" fill="white"/>
<path id="Vector_11" d="M47.2048 29.1965V21.0764H48.9691V24.4268H52.5505V21.0764H54.3106V29.1965H52.5505V25.8422H48.9691V29.1965H47.2048Z" fill="white"/>
<path id="Vector_12" d="M40.1807 29.1965V21.0764H45.8034V22.4919H41.9449V24.4268H45.5141V25.8422H41.9449V27.7811H45.8197V29.1965H40.1807Z" fill="white"/>
<path id="Vector_13" d="M28.4812 21.0764H30.2047V27.8167H32.6005V21.0764H34.3158V27.8167H36.683V21.0764H38.3984V29.1965H28.4812V21.0764Z" fill="white"/>
<path id="Vector_14" d="M21.1223 29.1965V21.0764H26.745V22.4919H22.8865V24.4268H26.4557V25.8422H22.8865V27.7811H26.7613V29.1965H21.1223Z" fill="white"/>
<path id="Vector_15" d="M13.6943 29.1964V21.0763H16.9865C17.6194 21.0763 18.1586 21.1939 18.604 21.4292C19.0495 21.6618 19.389 21.9856 19.6226 22.4006C19.859 22.8129 19.9771 23.2887 19.9771 23.8279C19.9771 24.3672 19.8576 24.8429 19.6186 25.2553C19.3795 25.6676 19.0332 25.9888 18.5796 26.2188C18.1287 26.4487 17.5827 26.5637 16.9417 26.5637H14.8433V25.1879H16.6564C16.996 25.1879 17.2758 25.1311 17.4958 25.0174C17.7185 24.9011 17.8842 24.7412 17.9929 24.5377C18.1042 24.3315 18.1599 24.0949 18.1599 23.8279C18.1599 23.5583 18.1042 23.3231 17.9929 23.1222C17.8842 22.9187 17.7185 22.7614 17.4958 22.6504C17.273 22.5367 16.9906 22.4799 16.6483 22.4799H15.4586V29.1964H13.6943Z" fill="white"/>
</g>
<g id="&#208;&#154;&#208;&#190;&#208;&#189;&#209;&#129;&#208;&#176;&#208;&#187;&#209;&#130;&#208;&#184;&#208;&#189;&#208;&#179;">
<path id="Vector_16" d="M63.7158 39.8898V40.5016H61.681V44.1614H61.0066V39.8898H63.7158Z" fill="white"/>
<path id="Vector_17" d="M59.2604 41.7252V42.3371H56.8369V41.7252H59.2604ZM56.997 39.8898V44.1614H56.3225V39.8898H56.997ZM59.7748 39.8898V44.1614H59.1003V39.8898H59.7748Z" fill="white"/>
<path id="Vector_18" d="M52.1959 43.1936L54.3108 39.8898H55.0881V44.1614H54.4136V40.8576L52.3103 44.1614H51.5215V39.8898H52.1959V43.1936Z" fill="white"/>
<path id="Vector_19" d="M46.9719 40.5016V39.8898H50.5385V40.5016H49.0982V44.1614H48.4237V40.5016H46.9719Z" fill="white"/>
<path id="Vector_20" d="M42.4331 44.1614V43.5496H42.5931C42.7246 43.5496 42.8342 43.5246 42.9218 43.4745C43.0094 43.4226 43.0799 43.3327 43.1333 43.2048C43.1885 43.075 43.2304 42.8951 43.259 42.6652C43.2895 42.4335 43.3114 42.1387 43.3248 41.7809L43.4048 39.8898H46.3312V44.1614H45.6568V40.5016H44.0449L43.9763 42.0256C43.9611 42.376 43.9287 42.6847 43.8792 42.9517C43.8315 43.2168 43.7582 43.4393 43.6591 43.6191C43.562 43.799 43.4324 43.9343 43.2705 44.0252C43.1085 44.116 42.9056 44.1614 42.6617 44.1614H42.4331Z" fill="white"/>
<path id="Vector_21" d="M39.5803 44.2615C39.3021 44.2615 39.0497 44.2105 38.8229 44.1085C38.5962 44.0047 38.4162 43.8555 38.2828 43.6608C38.1494 43.4643 38.0828 43.227 38.0828 42.9489C38.0828 42.7041 38.1323 42.5057 38.2314 42.3537C38.3304 42.1998 38.4629 42.0793 38.6286 41.9922C38.7944 41.905 38.9773 41.8402 39.1773 41.7975C39.3793 41.753 39.5822 41.7178 39.786 41.6918C40.0528 41.6585 40.269 41.6334 40.4348 41.6167C40.6024 41.5982 40.7244 41.5676 40.8006 41.525C40.8787 41.4823 40.9178 41.4082 40.9178 41.3025V41.2802C40.9178 41.0058 40.8406 40.7926 40.6863 40.6406C40.5339 40.4886 40.3024 40.4126 39.9918 40.4126C39.6698 40.4126 39.4174 40.4812 39.2345 40.6184C39.0516 40.7556 38.923 40.902 38.8487 41.0578L38.2085 40.8353C38.3228 40.5757 38.4752 40.3736 38.6658 40.229C38.8582 40.0825 39.0678 39.9806 39.2945 39.9231C39.5231 39.8638 39.7479 39.8341 39.9689 39.8341C40.1099 39.8341 40.2719 39.8508 40.4548 39.8842C40.6396 39.9157 40.8177 39.9815 40.9892 40.0816C41.1626 40.1817 41.3064 40.3328 41.4207 40.5349C41.5351 40.737 41.5922 41.0077 41.5922 41.347V44.1614H40.9178V43.5829H40.8835C40.8377 43.6756 40.7615 43.7748 40.6548 43.8805C40.5481 43.9862 40.4062 44.0761 40.229 44.1503C40.0518 44.2244 39.8356 44.2615 39.5803 44.2615ZM39.6832 43.6719C39.9499 43.6719 40.1747 43.6209 40.3576 43.519C40.5424 43.417 40.6815 43.2854 40.7749 43.1241C40.8701 42.9628 40.9178 42.7931 40.9178 42.6151V42.0144C40.8892 42.0478 40.8263 42.0784 40.7291 42.1062C40.6339 42.1322 40.5234 42.1553 40.3976 42.1757C40.2738 42.1943 40.1528 42.211 40.0347 42.2258C39.9185 42.2388 39.8242 42.2499 39.7518 42.2592C39.5765 42.2814 39.4126 42.3176 39.2602 42.3676C39.1097 42.4158 38.9878 42.4891 38.8944 42.5873C38.8029 42.6837 38.7572 42.8154 38.7572 42.9822C38.7572 43.2103 38.8439 43.3827 39.0173 43.4995C39.1926 43.6145 39.4145 43.6719 39.6832 43.6719Z" fill="white"/>
<path id="Vector_22" d="M35.576 44.2504C35.1645 44.2504 34.8101 44.1558 34.5129 43.9667C34.2156 43.7776 33.987 43.5171 33.827 43.1852C33.6669 42.8534 33.5869 42.4742 33.5869 42.0478C33.5869 41.614 33.6688 41.2311 33.8327 40.8992C33.9984 40.5655 34.229 40.305 34.5243 40.1178C34.8215 39.9287 35.1683 39.8341 35.5646 39.8341C35.8732 39.8341 36.1514 39.8897 36.399 40.001C36.6467 40.1122 36.8496 40.2679 37.0078 40.4682C37.1659 40.6684 37.264 40.902 37.3021 41.169H36.6277C36.5762 40.9743 36.4619 40.8019 36.2847 40.6517C36.1095 40.4997 35.8732 40.4237 35.576 40.4237C35.3131 40.4237 35.0825 40.4904 34.8844 40.6239C34.6881 40.7556 34.5348 40.9419 34.4243 41.1829C34.3157 41.4221 34.2614 41.703 34.2614 42.0256C34.2614 42.3556 34.3147 42.6429 34.4214 42.8877C34.53 43.1324 34.6824 43.3224 34.8787 43.4578C35.0768 43.5931 35.3092 43.6608 35.576 43.6608C35.7513 43.6608 35.9104 43.6311 36.0532 43.5718C36.1961 43.5125 36.3171 43.4272 36.4162 43.316C36.5153 43.2047 36.5858 43.0712 36.6277 42.9155H37.3021C37.264 43.1676 37.1697 43.3948 37.0192 43.5968C36.8706 43.7971 36.6734 43.9565 36.4276 44.0752C36.1838 44.192 35.8999 44.2504 35.576 44.2504Z" fill="white"/>
<path id="Vector_23" d="M32.0465 41.7252V42.3371H29.6231V41.7252H32.0465ZM29.7831 39.8898V44.1614H29.1086V39.8898H29.7831ZM32.5609 39.8898V44.1614H31.8865V39.8898H32.5609Z" fill="white"/>
<path id="Vector_24" d="M26.0906 44.2504C25.6943 44.2504 25.3466 44.1586 25.0475 43.9751C24.7503 43.7915 24.5179 43.5347 24.3502 43.2047C24.1844 42.8747 24.1016 42.4891 24.1016 42.0478C24.1016 41.6028 24.1844 41.2144 24.3502 40.8826C24.5179 40.5507 24.7503 40.293 25.0475 40.1094C25.3466 39.9259 25.6943 39.8341 26.0906 39.8341C26.4869 39.8341 26.8337 39.9259 27.1309 40.1094C27.43 40.293 27.6625 40.5507 27.8282 40.8826C27.9959 41.2144 28.0797 41.6028 28.0797 42.0478C28.0797 42.4891 27.9959 42.8747 27.8282 43.2047C27.6625 43.5347 27.43 43.7915 27.1309 43.9751C26.8337 44.1586 26.4869 44.2504 26.0906 44.2504ZM26.0906 43.6608C26.3917 43.6608 26.6393 43.5857 26.8337 43.4355C27.028 43.2854 27.1719 43.0879 27.2652 42.8432C27.3586 42.5984 27.4052 42.3333 27.4052 42.0478C27.4052 41.7623 27.3586 41.4962 27.2652 41.2497C27.1719 41.0031 27.028 40.8038 26.8337 40.6517C26.6393 40.4997 26.3917 40.4237 26.0906 40.4237C25.7896 40.4237 25.5419 40.4997 25.3476 40.6517C25.1533 40.8038 25.0094 41.0031 24.9161 41.2497C24.8227 41.4962 24.776 41.7623 24.776 42.0478C24.776 42.3333 24.8227 42.5984 24.9161 42.8432C25.0094 43.0879 25.1533 43.2854 25.3476 43.4355C25.5419 43.5857 25.7896 43.6608 26.0906 43.6608Z" fill="white"/>
<path id="Vector_25" d="M22.9597 44.1614L20.9477 41.5472H20.2275V44.1614H19.5188V38.4658H20.2275V40.9354H20.5362L22.8796 38.4658H23.7256L21.3593 40.9687L23.8056 44.1614H22.9597Z" fill="white"/>
</g>
<g id="&#208;&#184; &#208;&#176;&#209;&#131;&#209;&#130;&#209;&#129;&#208;&#190;&#209;&#128;&#209;&#129;&#208;&#184;&#208;&#189;&#208;&#179;">
<path id="Vector_26" d="M67.6096 49.6946V50.3064H65.5748V53.9662H64.9004V49.6946H67.6096Z" fill="white"/>
<path id="Vector_27" d="M63.1552 51.5301V52.1419H60.7317V51.5301H63.1552ZM60.8917 49.6946V53.9662H60.2173V49.6946H60.8917ZM63.6696 49.6946V53.9662H62.9951V49.6946H63.6696Z" fill="white"/>
<path id="Vector_28" d="M56.0895 52.9984L58.2043 49.6946H58.9816V53.9662H58.3072V50.6624L56.2038 53.9662H55.415V49.6946H56.0895V52.9984Z" fill="white"/>
<path id="Vector_29" d="M52.7034 54.0552C52.2919 54.0552 51.9375 53.9606 51.6403 53.7715C51.3431 53.5824 51.1145 53.3219 50.9544 52.9901C50.7944 52.6582 50.7144 52.279 50.7144 51.8526C50.7144 51.4188 50.7963 51.0359 50.9601 50.704C51.1259 50.3703 51.3564 50.1098 51.6517 49.9226C51.9489 49.7335 52.2957 49.6389 52.692 49.6389C53.0006 49.6389 53.2788 49.6945 53.5265 49.8058C53.7742 49.917 53.9771 50.0728 54.1352 50.273C54.2933 50.4732 54.3915 50.7068 54.4296 50.9738H53.7551C53.7037 50.7791 53.5894 50.6067 53.4122 50.4565C53.2369 50.3045 53.0006 50.2285 52.7034 50.2285C52.4405 50.2285 52.21 50.2952 52.0118 50.4287C51.8156 50.5604 51.6622 50.7467 51.5517 50.9877C51.4431 51.2269 51.3888 51.5078 51.3888 51.8304C51.3888 52.1604 51.4422 52.4478 51.5489 52.6925C51.6574 52.9372 51.8099 53.1273 52.0061 53.2626C52.2043 53.3979 52.4367 53.4656 52.7034 53.4656C52.8787 53.4656 53.0378 53.4359 53.1807 53.3766C53.3236 53.3173 53.4446 53.232 53.5436 53.1208C53.6427 53.0095 53.7132 52.876 53.7551 52.7203H54.4296C54.3915 52.9724 54.2972 53.1996 54.1466 53.4016C53.998 53.6019 53.8008 53.7613 53.5551 53.88C53.3112 53.9968 53.0273 54.0552 52.7034 54.0552Z" fill="white"/>
<path id="Vector_30" d="M46.0168 55.5681V49.6945H46.6684V50.3731H46.7485C46.798 50.2989 46.8666 50.2044 46.9542 50.0894C47.0438 49.9726 47.1714 49.8688 47.3372 49.778C47.5048 49.6853 47.7316 49.6389 48.0173 49.6389C48.387 49.6389 48.7128 49.7288 48.9947 49.9087C49.2767 50.0885 49.4968 50.3434 49.6549 50.6735C49.813 51.0035 49.8921 51.3928 49.8921 51.8415C49.8921 52.2939 49.813 52.686 49.6549 53.0179C49.4968 53.3479 49.2777 53.6037 48.9976 53.7854C48.7175 53.9653 48.3946 54.0552 48.0288 54.0552C47.7468 54.0552 47.521 54.0098 47.3515 53.9189C47.1819 53.8262 47.0514 53.7215 46.9599 53.6047C46.8685 53.486 46.798 53.3877 46.7485 53.3099H46.6913V55.5681H46.0168ZM46.6799 51.8304C46.6799 52.153 46.7285 52.4376 46.8256 52.6841C46.9228 52.9289 47.0647 53.1208 47.2514 53.2598C47.4382 53.397 47.6668 53.4656 47.9373 53.4656C48.2193 53.4656 48.4546 53.3933 48.6432 53.2487C48.8337 53.1022 48.9766 52.9057 49.0719 52.6591C49.1691 52.4107 49.2176 52.1344 49.2176 51.8304C49.2176 51.53 49.17 51.2593 49.0748 51.0183C48.9814 50.7754 48.8395 50.5835 48.6489 50.4426C48.4603 50.2999 48.2231 50.2285 47.9373 50.2285C47.663 50.2285 47.4324 50.2962 47.2457 50.4315C47.059 50.565 46.918 50.7523 46.8228 50.9933C46.7275 51.2324 46.6799 51.5115 46.6799 51.8304Z" fill="white"/>
<path id="Vector_31" d="M42.9988 54.0552C42.6025 54.0552 42.2548 53.9634 41.9557 53.7799C41.6585 53.5963 41.4261 53.3395 41.2584 53.0095C41.0926 52.6795 41.0098 52.2939 41.0098 51.8526C41.0098 51.4077 41.0926 51.0192 41.2584 50.6874C41.4261 50.3555 41.6585 50.0978 41.9557 49.9142C42.2548 49.7307 42.6025 49.6389 42.9988 49.6389C43.3951 49.6389 43.7419 49.7307 44.0391 49.9142C44.3382 50.0978 44.5707 50.3555 44.7364 50.6874C44.9041 51.0192 44.9879 51.4077 44.9879 51.8526C44.9879 52.2939 44.9041 52.6795 44.7364 53.0095C44.5707 53.3395 44.3382 53.5963 44.0391 53.7799C43.7419 53.9634 43.3951 54.0552 42.9988 54.0552ZM42.9988 53.4656C43.2999 53.4656 43.5475 53.3905 43.7419 53.2403C43.9362 53.0902 44.0801 52.8927 44.1734 52.648C44.2668 52.4033 44.3135 52.1381 44.3135 51.8526C44.3135 51.5671 44.2668 51.301 44.1734 51.0545C44.0801 50.8079 43.9362 50.6086 43.7419 50.4565C43.5475 50.3045 43.2999 50.2285 42.9988 50.2285C42.6978 50.2285 42.4501 50.3045 42.2558 50.4565C42.0615 50.6086 41.9176 50.8079 41.8243 51.0545C41.7309 51.301 41.6842 51.5671 41.6842 51.8526C41.6842 52.1381 41.7309 52.4033 41.8243 52.648C41.9176 52.8927 42.0615 53.0902 42.2558 53.2403C42.4501 53.3905 42.6978 53.4656 42.9988 53.4656Z" fill="white"/>
<path id="Vector_32" d="M38.504 54.0552C38.0924 54.0552 37.7381 53.9606 37.4408 53.7715C37.1436 53.5824 36.915 53.3219 36.755 52.9901C36.5949 52.6582 36.5149 52.279 36.5149 51.8526C36.5149 51.4188 36.5968 51.0359 36.7607 50.704C36.9264 50.3703 37.157 50.1098 37.4523 49.9226C37.7495 49.7335 38.0962 49.6389 38.4925 49.6389C38.8012 49.6389 39.0793 49.6945 39.327 49.8058C39.5747 49.917 39.7776 50.0728 39.9357 50.273C40.0939 50.4732 40.192 50.7068 40.2301 50.9738H39.5557C39.5042 50.7791 39.3899 50.6067 39.2127 50.4565C39.0374 50.3045 38.8012 50.2285 38.504 50.2285C38.241 50.2285 38.0105 50.2952 37.8124 50.4287C37.6161 50.5604 37.4627 50.7467 37.3522 50.9877C37.2436 51.2269 37.1893 51.5078 37.1893 51.8304C37.1893 52.1604 37.2427 52.4478 37.3494 52.6925C37.458 52.9372 37.6104 53.1273 37.8066 53.2626C38.0048 53.3979 38.2372 53.4656 38.504 53.4656C38.6792 53.4656 38.8383 53.4359 38.9812 53.3766C39.1241 53.3173 39.2451 53.232 39.3442 53.1208C39.4432 53.0095 39.5137 52.876 39.5557 52.7203H40.2301C40.192 52.9724 40.0977 53.1996 39.9472 53.4016C39.7986 53.6019 39.6014 53.7613 39.3556 53.88C39.1117 53.9968 38.8279 54.0552 38.504 54.0552Z" fill="white"/>
<path id="Vector_33" d="M32.3984 50.3064V49.6946H35.965V50.3064H34.5247V53.9662H33.8502V50.3064H32.3984Z" fill="white"/>
<path id="Vector_34" d="M28.605 55.5681C28.4907 55.5681 28.3887 55.5588 28.2992 55.5403C28.2096 55.5236 28.1477 55.5069 28.1134 55.4902L28.2849 54.9118C28.4487 54.9526 28.5935 54.9674 28.7193 54.9563C28.845 54.9452 28.9565 54.8905 29.0537 54.7922C29.1527 54.6958 29.2432 54.5391 29.3252 54.3222L29.4509 53.9885L27.8276 49.6946H28.5592L29.771 53.0986H29.8167L31.0284 49.6946H31.76L29.8967 54.5892C29.8129 54.8098 29.7091 54.9924 29.5852 55.1371C29.4614 55.2835 29.3175 55.392 29.1537 55.4624C28.9917 55.5329 28.8088 55.5681 28.605 55.5681Z" fill="white"/>
<path id="Vector_35" d="M25.0839 54.0663C24.8058 54.0663 24.5533 54.0153 24.3266 53.9134C24.0999 53.8095 23.9198 53.6603 23.7865 53.4656C23.6531 53.2691 23.5864 53.0318 23.5864 52.7537C23.5864 52.5089 23.636 52.3106 23.735 52.1585C23.8341 52.0046 23.9665 51.8841 24.1323 51.797C24.298 51.7099 24.4809 51.645 24.681 51.6023C24.8829 51.5578 25.0858 51.5226 25.2897 51.4966C25.5564 51.4633 25.7727 51.4382 25.9384 51.4216C26.1061 51.403 26.228 51.3724 26.3042 51.3298C26.3824 51.2871 26.4214 51.213 26.4214 51.1073V51.0851C26.4214 50.8107 26.3443 50.5974 26.1899 50.4454C26.0375 50.2934 25.806 50.2174 25.4955 50.2174C25.1735 50.2174 24.921 50.286 24.7381 50.4232C24.5552 50.5604 24.4266 50.7068 24.3523 50.8626L23.7122 50.6401C23.8265 50.3805 23.9789 50.1784 24.1694 50.0338C24.3619 49.8874 24.5714 49.7854 24.7982 49.7279C25.0268 49.6686 25.2516 49.6389 25.4726 49.6389C25.6136 49.6389 25.7755 49.6556 25.9584 49.689C26.1433 49.7205 26.3214 49.7863 26.4929 49.8864C26.6662 49.9865 26.8101 50.1376 26.9244 50.3397C27.0387 50.5418 27.0959 50.8125 27.0959 51.1518V53.9662H26.4214V53.3877H26.3871C26.3414 53.4804 26.2652 53.5796 26.1585 53.6853C26.0518 53.791 25.9099 53.8809 25.7327 53.9551C25.5555 54.0292 25.3392 54.0663 25.0839 54.0663ZM25.1868 53.4767C25.4536 53.4767 25.6784 53.4258 25.8613 53.3238C26.0461 53.2218 26.1852 53.0902 26.2785 52.9289C26.3738 52.7676 26.4214 52.5979 26.4214 52.4199V51.8192C26.3928 51.8526 26.33 51.8832 26.2328 51.911C26.1375 51.937 26.027 51.9601 25.9013 51.9805C25.7774 51.9991 25.6565 52.0158 25.5383 52.0306C25.4221 52.0436 25.3278 52.0547 25.2554 52.064C25.0801 52.0862 24.9163 52.1224 24.7639 52.1724C24.6133 52.2206 24.4914 52.2939 24.3981 52.3921C24.3066 52.4885 24.2609 52.6202 24.2609 52.787C24.2609 53.0151 24.3476 53.1875 24.5209 53.3043C24.6962 53.4193 24.9182 53.4767 25.1868 53.4767Z" fill="white"/>
<path id="Vector_36" d="M17.4025 52.9984L19.5173 49.6946H20.2946V53.9662H19.6202V50.6624L17.5168 53.9662H16.728V49.6946H17.4025V52.9984Z" fill="white"/>
</g>
<path id="Vector (Stroke)" fill-rule="evenodd" clip-rule="evenodd" d="M5.59814 11.5223H9.53619V12.6098H6.71557V60.9703H75.2863V12.6098H72.4657V11.5223H76.4037V62.0578H5.59814V11.5223Z" fill="white"/>
</g>
</svg>
