<svg width="18" height="18" viewBox="0 0 18 18" fill="none" xmlns="http://www.w3.org/2000/svg">
<g clip-path="url(#clip0_762_287)">
<path d="M2.53294 0C1.12984 0 0 1.12984 0 2.53294V15.4671C0 16.8702 1.12984 18 2.53294 18H15.4671C16.8702 18 18 16.8702 18 15.4671V2.53294C18 1.12984 16.8702 0 15.4671 0H2.53294ZM9.40333 1.83938C11.446 1.83938 13.1068 3.50086 13.1068 5.54344C13.1068 7.58587 11.446 9.24638 9.40333 9.24638C7.36056 9.24638 5.69869 7.58587 5.69869 5.54344C5.69869 3.50086 7.36054 1.83938 9.40333 1.83938ZM9.36394 4.00952C8.53652 4.03058 7.86938 4.71123 7.86938 5.54346C7.86938 6.38854 8.5577 7.07627 9.40333 7.07627C10.2488 7.07627 10.9361 6.38854 10.9361 5.54346C10.9361 4.69804 10.2488 4.00952 9.40333 4.00952C9.39011 4.00952 9.3771 4.00918 9.36394 4.00952ZM6.33656 9.3724C6.53276 9.37307 6.7307 9.42705 6.90919 9.53946C8.4253 10.4928 10.3797 10.4934 11.8963 9.53946C12.4041 9.21969 13.0734 9.37319 13.3931 9.8809C13.7125 10.3878 13.5591 11.0579 13.0517 11.3772C12.3901 11.7929 11.6631 12.094 10.9012 12.2676L12.9724 14.3387C13.3964 14.7618 13.3964 15.4495 12.9724 15.8732C12.5482 16.2971 11.8619 16.2971 11.4384 15.8732L9.40219 13.8381L7.36819 15.8732C7.15639 16.0851 6.87847 16.191 6.60094 16.191C6.32313 16.191 6.04615 16.0848 5.83369 15.8732C5.40977 15.4492 5.4099 14.7627 5.83369 14.3387L7.90369 12.2676C7.14989 12.0957 6.42254 11.7974 5.75269 11.3772C5.24628 11.0579 5.094 10.3885 5.4135 9.8809C5.61262 9.5636 5.949 9.38435 6.29719 9.37296C6.31032 9.37253 6.32345 9.37234 6.33658 9.3724H6.33656Z" fill="#FF7900"/>
</g>
<defs>
<clipPath id="clip0_762_287">
<rect width="18" height="18" fill="white"/>
</clipPath>
</defs>
</svg>
