<svg width="0" height="0" class="hidden">
  <symbol fill="none" xmlns="http://www.w3.org/2000/svg" viewBox="0 0 12 20" id="ic_arr_hor">
    <path d="M11 1L2 10L11 19" stroke="currentColor" stroke-width="2"></path>
  </symbol>
  <symbol fill="none" xmlns="http://www.w3.org/2000/svg" viewBox="0 0 18 11" id="ic_arr_ver">
    <path d="M1 1L9 9L17 1" stroke="currentColor" stroke-width="2"></path>
  </symbol>
  <symbol fill="none" xmlns="http://www.w3.org/2000/svg" viewBox="0 0 12 11" id="ic_check">
    <path d="M1 3.78261L5.13793 9L11 1" stroke="currentColor" stroke-width="2" stroke-linecap="round"></path>
  </symbol>
  <symbol fill="none" xmlns="http://www.w3.org/2000/svg" viewBox="0 0 20 20" id="ic_close">
    <path d="M1 1L19 19" stroke="currentColor"></path>
    <path d="M19 1L1 19" stroke="currentColor"></path>
  </symbol>
  <symbol fill="none" xmlns="http://www.w3.org/2000/svg" viewBox="0 0 17 16" id="ic_comments">
    <path fill-rule="evenodd" clip-rule="evenodd" d="M1.33105 8.23932C1.33093 10.9147 2.82094 13.3673 5.19532 14.6003C7.56972 15.8332 10.4331 15.641 12.6215 14.102L15.6655 14.3825V8.23932C15.6655 4.28107 12.4567 1.07227 8.49829 1.07227C4.53994 1.07227 1.33105 4.28107 1.33105 8.23932Z" stroke="#242424" stroke-linecap="round" stroke-linejoin="round"></path>
    <path d="M5.42676 6.70312H11.5701" stroke="currentColor" stroke-linecap="round"></path>
    <path d="M5.42676 9.77539H11.5701" stroke="currentColor" stroke-linecap="round"></path>
  </symbol>
  <symbol fill="none" xmlns="http://www.w3.org/2000/svg" viewBox="0 0 32 32" id="ic_odnokl">
    <path d="M16 7.50714C15.6142 7.48781 15.2285 7.54711 14.8663 7.68143C14.5042 7.81575 14.1731 8.02229 13.8932 8.2885C13.6133 8.55472 13.3904 8.87506 13.2382 9.23005C13.0859 9.58505 13.0074 9.96729 13.0074 10.3536C13.0074 10.7398 13.0859 11.1221 13.2382 11.4771C13.3904 11.8321 13.6133 12.1524 13.8932 12.4186C14.1731 12.6849 14.5042 12.8914 14.8663 13.0257C15.2285 13.16 15.6142 13.2193 16 13.2C16.3858 13.2193 16.7715 13.16 17.1337 13.0257C17.4958 12.8914 17.8269 12.6849 18.1068 12.4186C18.3867 12.1524 18.6096 11.8321 18.7618 11.4771C18.9141 11.1221 18.9926 10.7398 18.9926 10.3536C18.9926 9.96729 18.9141 9.58505 18.7618 9.23005C18.6096 8.87506 18.3867 8.55472 18.1068 8.2885C17.8269 8.02229 17.4958 7.81575 17.1337 7.68143C16.7715 7.54711 16.3858 7.48781 16 7.50714ZM27.4286 0H4.57143C2.05 0 0 2.05 0 4.57143V27.4286C0 29.95 2.05 32 4.57143 32H27.4286C29.95 32 32 29.95 32 27.4286V4.57143C32 2.05 29.95 0 27.4286 0ZM16 4.56429C17.5354 4.56429 19.0079 5.17423 20.0936 6.25993C21.1793 7.34563 21.7893 8.81816 21.7893 10.3536C21.7893 11.889 21.1793 13.3615 20.0936 14.4472C19.0079 15.5329 17.5354 16.1429 16 16.1429C14.4646 16.1429 12.9921 15.5329 11.9064 14.4472C10.8207 13.3615 10.2107 11.889 10.2107 10.3536C10.2107 8.81816 10.8207 7.34563 11.9064 6.25993C12.9921 5.17423 14.4646 4.56429 16 4.56429ZM20.2357 16.5857C21.4357 15.6429 22.3429 16.1929 22.6714 16.8429C23.2286 17.9857 22.5929 18.5357 21.1357 19.4857C19.9143 20.2643 18.2286 20.5714 17.1214 20.6857L18.05 21.6071L21.4571 25.0143C22.7 26.2929 20.6714 28.2857 19.4143 27.0571C18.5571 26.1857 17.3071 24.9357 16.0071 23.6357L12.6 27.0571C11.3357 28.2857 9.31429 26.2714 10.5714 25.0143L11.4643 24.1214C12.2071 23.3786 13.0786 22.5 13.9786 21.6071L14.9 20.6857C13.8 20.5714 12.0929 20.2786 10.8571 19.4857C9.40714 18.5357 8.76429 17.9929 9.32857 16.8429C9.65714 16.1929 10.5643 15.6429 11.7643 16.5857C11.7643 16.5857 13.3857 17.8714 16 17.8714C18.6143 17.8714 20.2357 16.5857 20.2357 16.5857Z" fill="currentColor"></path>
  </symbol>
  <symbol fill="none" xmlns="http://www.w3.org/2000/svg" viewBox="0 0 30 30" id="ic_question">
    <path d="M16.1719 22.6172C16.1719 22.849 16.1032 23.0755 15.9744 23.2682C15.8456 23.461 15.6626 23.6112 15.4485 23.6999C15.2343 23.7886 14.9987 23.8118 14.7714 23.7665C14.5441 23.7213 14.3353 23.6097 14.1714 23.4458C14.0075 23.2819 13.8959 23.0731 13.8506 22.8458C13.8054 22.6185 13.8286 22.3829 13.9173 22.1687C14.006 21.9546 14.1562 21.7716 14.3489 21.6428C14.5417 21.514 14.7682 21.4453 15 21.4453C15.3108 21.4453 15.6089 21.5688 15.8286 21.7885C16.0484 22.0083 16.1719 22.3064 16.1719 22.6172ZM15 7.38281C12.0923 7.38281 9.72657 9.48633 9.72657 12.0703V12.6562C9.72657 12.8117 9.7883 12.9607 9.89819 13.0706C10.0081 13.1805 10.1571 13.2422 10.3125 13.2422C10.4679 13.2422 10.6169 13.1805 10.7268 13.0706C10.8367 12.9607 10.8984 12.8117 10.8984 12.6562V12.0703C10.8984 10.1323 12.7383 8.55469 15 8.55469C17.2617 8.55469 19.1016 10.1323 19.1016 12.0703C19.1016 14.0083 17.2617 15.5859 15 15.5859C14.8446 15.5859 14.6956 15.6477 14.5857 15.7576C14.4758 15.8674 14.4141 16.0165 14.4141 16.1719V17.3438C14.4141 17.4992 14.4758 17.6482 14.5857 17.7581C14.6956 17.868 14.8446 17.9297 15 17.9297C15.1554 17.9297 15.3044 17.868 15.4143 17.7581C15.5242 17.6482 15.5859 17.4992 15.5859 17.3438V16.7285C18.2227 16.4692 20.2734 14.4785 20.2734 12.0703C20.2734 9.48633 17.9077 7.38281 15 7.38281ZM29.6484 15C29.6484 17.8972 28.7893 20.7293 27.1797 23.1382C25.5701 25.5472 23.2824 27.4247 20.6057 28.5334C17.9291 29.6421 14.9838 29.9322 12.1422 29.367C9.30072 28.8018 6.69062 27.4066 4.642 25.358C2.59338 23.3094 1.19825 20.6993 0.633035 17.8578C0.0678216 15.0162 0.357909 12.0709 1.46661 9.39429C2.57532 6.71763 4.45285 4.42986 6.86177 2.82027C9.27069 1.21068 12.1028 0.351563 15 0.351562C18.8837 0.355828 22.6071 1.90051 25.3533 4.6467C28.0995 7.39289 29.6442 11.1163 29.6484 15ZM28.4766 15C28.4766 12.3346 27.6862 9.72903 26.2054 7.51282C24.7245 5.29661 22.6198 3.56929 20.1573 2.54928C17.6947 1.52927 14.9851 1.26239 12.3709 1.78239C9.75666 2.30238 7.35537 3.5859 5.47064 5.47063C3.58591 7.35536 2.30239 9.75666 1.78239 12.3709C1.2624 14.9851 1.52928 17.6947 2.54929 20.1573C3.5693 22.6198 5.29662 24.7245 7.51283 26.2054C9.72904 27.6862 12.3346 28.4766 15 28.4766C18.573 28.4727 21.9986 27.0516 24.5251 24.5251C27.0516 21.9986 28.4727 18.573 28.4766 15Z" fill="currentColor"></path>
  </symbol>
  <symbol fill="none" xmlns="http://www.w3.org/2000/svg" viewBox="0 0 16 16" id="ic_time">
    <path d="M8 4.11111V8L6.05556 6.83333M1 8C1 11.866 4.13398 15 8 15C11.866 15 15 11.866 15 8C15 4.13401 11.866 1 8 1C4.13398 1 1 4.13401 1 8Z" stroke="currentColor" stroke-linecap="round" stroke-linejoin="round"></path>
  </symbol>
  <symbol fill="none" xmlns="http://www.w3.org/2000/svg" viewBox="0 0 16 12" id="ic_view">
    <path d="M10.1356 6.24114C10.1356 7.37213 9.21881 8.28892 8.08781 8.28892C6.95688 8.28892 6.04004 7.37213 6.04004 6.24114C6.04004 5.11015 6.95688 4.19336 8.08781 4.19336C9.21881 4.19336 10.1356 5.11015 10.1356 6.24114Z" stroke="currentColor" stroke-linecap="round" stroke-linejoin="round"></path>
    <path d="M8.08814 1.12109C4.72493 1.12109 1.87802 3.27337 0.920898 6.24055C1.87801 9.20771 4.72493 11.36 8.08814 11.36C11.4513 11.36 14.2982 9.20771 15.2554 6.24055C14.2982 3.27339 11.4513 1.12109 8.08814 1.12109Z" stroke="currentColor" stroke-linecap="round" stroke-linejoin="round"></path>
  </symbol>
  <symbol fill="none" xmlns="http://www.w3.org/2000/svg" viewBox="0 0 32 32" id="ic_vk">
    <path d="M20.9168 0H11.1008C2.1312 0 0 2.1328 0 11.0832V20.9008C0 29.8672 2.1168 32 11.0832 32H20.9008C29.8672 32 32 29.8832 32 20.9168V11.1008C32 2.1312 29.8832 0 20.9168 0ZM25.8336 22.832H23.4992C22.616 22.832 22.3504 22.1168 20.7664 20.5328C19.384 19.2 18.8 19.0336 18.4496 19.0336C17.9664 19.0336 17.8336 19.1664 17.8336 19.8336V21.9328C17.8336 22.5008 17.6496 22.8336 16.1664 22.8336C14.727 22.7369 13.3311 22.2995 12.0938 21.5576C10.8564 20.8158 9.81307 19.7905 9.0496 18.5664C7.23707 16.3104 5.97591 13.6626 5.3664 10.8336C5.3664 10.4832 5.4992 10.1664 6.1664 10.1664H8.5008C9.1008 10.1664 9.3168 10.4336 9.5504 11.0496C10.6832 14.384 12.616 17.2832 13.4 17.2832C13.7008 17.2832 13.832 17.1504 13.832 16.4V12.9664C13.7328 11.4 12.9008 11.2672 12.9008 10.7008C12.9115 10.5514 12.9799 10.4121 13.0917 10.3123C13.2034 10.2125 13.3496 10.1602 13.4992 10.1664H17.1664C17.6672 10.1664 17.8336 10.416 17.8336 11.016V15.6496C17.8336 16.1504 18.0496 16.3168 18.2 16.3168C18.5008 16.3168 18.7328 16.1504 19.2832 15.6C20.4654 14.1583 21.4313 12.5521 22.1504 10.832C22.2239 10.6254 22.363 10.4485 22.5464 10.3283C22.7299 10.2081 22.9476 10.1513 23.1664 10.1664H25.5008C26.2 10.1664 26.3488 10.5168 26.2 11.016C25.3512 12.9175 24.3009 14.7225 23.0672 16.4C22.816 16.784 22.7152 16.984 23.0672 17.4336C23.2992 17.784 24.1168 18.4672 24.6672 19.1168C25.467 19.9146 26.1313 20.8377 26.6336 21.8496C26.8336 22.4992 26.4992 22.832 25.8336 22.832Z" fill="currentColor"></path>
  </symbol>
</svg>