<svg width="321" height="12" viewBox="0 0 321 12" fill="none" xmlns="http://www.w3.org/2000/svg">
<path d="M1 5C0.447715 5 0 5.44772 0 6C0 6.55228 0.447715 7 1 7V5ZM321 6L311 0.226497V11.7735L321 6ZM5 7C5.55228 7 6 6.55228 6 6C6 5.44772 5.55228 5 5 5V7ZM13 5C12.4477 5 12 5.44772 12 6C12 6.55228 12.4477 7 13 7V5ZM21 7C21.5523 7 22 6.55228 22 6C22 5.44772 21.5523 5 21 5V7ZM29 5C28.4477 5 28 5.44772 28 6C28 6.55228 28.4477 7 29 7V5ZM37 7C37.5523 7 38 6.55228 38 6C38 5.44772 37.5523 5 37 5V7ZM45 5C44.4477 5 44 5.44772 44 6C44 6.55228 44.4477 7 45 7V5ZM53 7C53.5523 7 54 6.55228 54 6C54 5.44772 53.5523 5 53 5V7ZM61 5C60.4477 5 60 5.44772 60 6C60 6.55228 60.4477 7 61 7V5ZM69 7C69.5523 7 70 6.55228 70 6C70 5.44772 69.5523 5 69 5V7ZM77 5C76.4477 5 76 5.44772 76 6C76 6.55228 76.4477 7 77 7V5ZM85 7C85.5523 7 86 6.55228 86 6C86 5.44772 85.5523 5 85 5V7ZM93 5C92.4477 5 92 5.44772 92 6C92 6.55228 92.4477 7 93 7V5ZM101 7C101.552 7 102 6.55228 102 6C102 5.44772 101.552 5 101 5V7ZM109 5C108.448 5 108 5.44772 108 6C108 6.55228 108.448 7 109 7V5ZM117 7C117.552 7 118 6.55228 118 6C118 5.44772 117.552 5 117 5V7ZM125 5C124.448 5 124 5.44772 124 6C124 6.55228 124.448 7 125 7V5ZM133 7C133.552 7 134 6.55228 134 6C134 5.44772 133.552 5 133 5V7ZM141 5C140.448 5 140 5.44772 140 6C140 6.55228 140.448 7 141 7V5ZM149 7C149.552 7 150 6.55228 150 6C150 5.44772 149.552 5 149 5V7ZM157 5C156.448 5 156 5.44772 156 6C156 6.55228 156.448 7 157 7V5ZM165 7C165.552 7 166 6.55228 166 6C166 5.44772 165.552 5 165 5V7ZM173 5C172.448 5 172 5.44772 172 6C172 6.55228 172.448 7 173 7V5ZM181 7C181.552 7 182 6.55228 182 6C182 5.44772 181.552 5 181 5V7ZM189 5C188.448 5 188 5.44772 188 6C188 6.55228 188.448 7 189 7V5ZM197 7C197.552 7 198 6.55228 198 6C198 5.44772 197.552 5 197 5V7ZM205 5C204.448 5 204 5.44772 204 6C204 6.55228 204.448 7 205 7V5ZM213 7C213.552 7 214 6.55228 214 6C214 5.44772 213.552 5 213 5V7ZM221 5C220.448 5 220 5.44772 220 6C220 6.55228 220.448 7 221 7V5ZM229 7C229.552 7 230 6.55228 230 6C230 5.44772 229.552 5 229 5V7ZM237 5C236.448 5 236 5.44772 236 6C236 6.55228 236.448 7 237 7V5ZM245 7C245.552 7 246 6.55228 246 6C246 5.44772 245.552 5 245 5V7ZM253 5C252.448 5 252 5.44772 252 6C252 6.55228 252.448 7 253 7V5ZM261 7C261.552 7 262 6.55228 262 6C262 5.44772 261.552 5 261 5V7ZM269 5C268.448 5 268 5.44772 268 6C268 6.55228 268.448 7 269 7V5ZM277 7C277.552 7 278 6.55228 278 6C278 5.44772 277.552 5 277 5V7ZM285 5C284.448 5 284 5.44772 284 6C284 6.55228 284.448 7 285 7V5ZM293 7C293.552 7 294 6.55228 294 6C294 5.44772 293.552 5 293 5V7ZM301 5C300.448 5 300 5.44772 300 6C300 6.55228 300.448 7 301 7V5ZM309 7C309.552 7 310 6.55228 310 6C310 5.44772 309.552 5 309 5V7ZM317 5C316.448 5 316 5.44772 316 6C316 6.55228 316.448 7 317 7V5ZM1 7H5V5H1V7ZM13 7H21V5H13V7ZM29 7H37V5H29V7ZM45 7H53V5H45V7ZM61 7H69V5H61V7ZM77 7H85V5H77V7ZM93 7H101V5H93V7ZM109 7H117V5H109V7ZM125 7H133V5H125V7ZM141 7H149V5H141V7ZM157 7H165V5H157V7ZM173 7H181V5H173V7ZM189 7H197V5H189V7ZM205 7H213V5H205V7ZM221 7H229V5H221V7ZM237 7H245V5H237V7ZM253 7H261V5H253V7ZM269 7H277V5H269V7ZM285 7H293V5H285V7ZM301 7H309V5H301V7Z" fill="#44B859"/>
</svg>
